<?xml version="1.0" encoding="UTF-8" standalone="no"?>
<!DOCTYPE svg PUBLIC "-//W3C//DTD SVG 1.1//EN"
 "http://www.w3.org/Graphics/SVG/1.1/DTD/svg11.dtd">
<!-- Generated by graphviz version 2.38.0 (20140413.2041)
 -->
<!-- Title: Pipeline: Pages: 1 -->
<svg width="1146pt" height="933pt"
 viewBox="0.00 0.00 1146.00 933.18" xmlns="http://www.w3.org/2000/svg" xmlns:xlink="http://www.w3.org/1999/xlink">
<g id="graph0" class="graph" transform="scale(1 1) rotate(0) translate(4 929.181)">
<title>Pipeline:</title>
<polygon fill="white" stroke="none" points="-4,4 -4,-929.181 1142,-929.181 1142,4 -4,4"/>
<g id="clust1" class="cluster"><title>clustertasks</title>
<polygon fill="none" stroke="black" points="8,-8 8,-917.181 1130,-917.181 1130,-8 8,-8"/>
<text text-anchor="middle" x="569" y="-889.181" font-family="Times,serif" font-size="30.00" fill="#ff3232">Pipeline:</text>
</g>
<!-- t0 -->
<g id="node1" class="node"><title>t0</title>
<polygon fill="#efa03b" stroke="black" points="908.772,-871.181 723.228,-871.181 719.228,-867.181 719.228,-835.181 904.772,-835.181 908.772,-839.181 908.772,-871.181"/>
<polyline fill="none" stroke="black" points="904.772,-867.181 719.228,-867.181 "/>
<polyline fill="none" stroke="black" points="904.772,-867.181 904.772,-835.181 "/>
<polyline fill="none" stroke="black" points="904.772,-867.181 908.772,-871.181 "/>
<text text-anchor="middle" x="814" y="-847.181" font-family="Times,serif" font-size="20.00">triage</text>
</g>
<!-- t1 -->
<g id="node2" class="node"><title>t1</title>
<polygon fill="#efa03b" stroke="black" points="927.535,-813.181 704.465,-813.181 700.465,-809.181 700.465,-777.181 923.535,-777.181 927.535,-781.181 927.535,-813.181"/>
<polyline fill="none" stroke="black" points="923.535,-809.181 700.465,-809.181 "/>
<polyline fill="none" stroke="black" points="923.535,-809.181 923.535,-777.181 "/>
<polyline fill="none" stroke="black" points="923.535,-809.181 927.535,-813.181 "/>
<text text-anchor="middle" x="814" y="-789.181" font-family="Times,serif" font-size="20.00">repair_pdf</text>
</g>
<!-- t0&#45;&gt;t1 -->
<g id="edge1" class="edge"><title>t0&#45;&gt;t1</title>
<path fill="none" stroke="#0044a0" d="M814,-835.075C814,-831.384 814,-827.394 814,-823.424"/>
<polygon fill="#0044a0" stroke="#0044a0" points="817.5,-823.182 814,-813.182 810.5,-823.182 817.5,-823.182"/>
</g>
<!-- t2 -->
<g id="node3" class="node"><title>t2</title>
<polygon fill="#efa03b" stroke="black" points="1018.11,-734.253 814,-751.156 609.888,-734.253 610.078,-706.905 1017.92,-706.905 1018.11,-734.253"/>
<polygon fill="none" stroke="black" points="1022.13,-737.932 814,-755.167 605.866,-737.932 606.11,-702.906 1021.89,-702.906 1022.13,-737.932"/>
<text text-anchor="middle" x="814" y="-720.694" font-family="Times,serif" font-size="20.00">split_pages</text>
</g>
<!-- t1&#45;&gt;t2 -->
<g id="edge2" class="edge"><title>t1&#45;&gt;t2</title>
<path fill="none" stroke="#0044a0" d="M814,-777.059C814,-773.44 814,-769.484 814,-765.438"/>
<polygon fill="#0044a0" stroke="#0044a0" points="817.5,-765.334 814,-755.334 810.5,-765.334 817.5,-765.334"/>
</g>
<!-- t15 -->
<g id="node17" class="node"><title>t15</title>
<polygon fill="#efa03b" stroke="black" points="418.082,-676.208 79.9177,-676.208 75.9177,-672.208 75.9177,-640.208 414.082,-640.208 418.082,-644.208 418.082,-676.208"/>
<polyline fill="none" stroke="black" points="414.082,-672.208 75.9177,-672.208 "/>
<polyline fill="none" stroke="black" points="414.082,-672.208 414.082,-640.208 "/>
<polyline fill="none" stroke="black" points="414.082,-672.208 418.082,-676.208 "/>
<text text-anchor="middle" x="247" y="-652.208" font-family="Times,serif" font-size="20.00">generate_postscript_stub</text>
</g>
<!-- t1&#45;&gt;t15 -->
<g id="edge23" class="edge"><title>t1&#45;&gt;t15</title>
<path fill="none" stroke="#0044a0" d="M708.486,-777.178C672.931,-770.929 633.118,-763.361 597,-755.181 497.138,-732.564 383.022,-699.987 312.99,-679.209"/>
<polygon fill="#0044a0" stroke="#0044a0" points="313.567,-675.73 302.984,-676.232 311.57,-682.439 313.567,-675.73"/>
</g>
<!-- t18 -->
<g id="node19" class="node"><title>t18</title>
<polygon fill="#efa03b" stroke="black" points="727.787,-156.452 923,-129.134 1118.21,-156.452 1118.03,-200.654 727.969,-200.654 727.787,-156.452"/>
<polygon fill="none" stroke="black" points="723.775,-152.971 923,-125.091 1122.22,-152.971 1122.01,-204.657 723.988,-204.657 723.775,-152.971"/>
<text text-anchor="middle" x="923" y="-162.669" font-family="Times,serif" font-size="20.00">merge_pages_qpdf</text>
</g>
<!-- t1&#45;&gt;t18 -->
<g id="edge33" class="edge"><title>t1&#45;&gt;t18</title>
<path fill="none" stroke="#0044a0" d="M927.879,-788.896C1015.25,-777.974 1121,-746.687 1121,-659.208 1121,-659.208 1121,-659.208 1121,-309.208 1121,-274.592 1123.52,-259.604 1100,-234.208 1091.23,-224.742 1080.97,-216.661 1069.87,-209.763"/>
<polygon fill="#0044a0" stroke="#0044a0" points="1071.63,-206.739 1061.23,-204.715 1068.1,-212.782 1071.63,-206.739"/>
</g>
<!-- t3 -->
<g id="node4" class="node"><title>t3</title>
<polygon fill="#efa03b" stroke="black" points="875.883,-676.208 594.117,-676.208 590.117,-672.208 590.117,-640.208 871.883,-640.208 875.883,-644.208 875.883,-676.208"/>
<polyline fill="none" stroke="black" points="871.883,-672.208 590.117,-672.208 "/>
<polyline fill="none" stroke="black" points="871.883,-672.208 871.883,-640.208 "/>
<polyline fill="none" stroke="black" points="871.883,-672.208 875.883,-676.208 "/>
<text text-anchor="middle" x="733" y="-652.208" font-family="Times,serif" font-size="20.00">rasterize_preview</text>
</g>
<!-- t2&#45;&gt;t3 -->
<g id="edge3" class="edge"><title>t2&#45;&gt;t3</title>
<path fill="none" stroke="#0044a0" d="M786.124,-702.813C778.245,-696.345 769.657,-689.296 761.728,-682.788"/>
<polygon fill="#0044a0" stroke="#0044a0" points="763.711,-679.888 753.761,-676.249 759.27,-685.299 763.711,-679.888"/>
</g>
<!-- t4 -->
<g id="node5" class="node"><title>t4</title>
<polygon fill="#efa03b" stroke="black" points="971.148,-618.208 736.852,-618.208 732.852,-614.208 732.852,-582.208 967.148,-582.208 971.148,-586.208 971.148,-618.208"/>
<polyline fill="none" stroke="black" points="967.148,-614.208 732.852,-614.208 "/>
<polyline fill="none" stroke="black" points="967.148,-614.208 967.148,-582.208 "/>
<polyline fill="none" stroke="black" points="967.148,-614.208 971.148,-618.208 "/>
<text text-anchor="middle" x="852" y="-594.208" font-family="Times,serif" font-size="20.00">orient_page</text>
</g>
<!-- t2&#45;&gt;t4 -->
<g id="edge5" class="edge"><title>t2&#45;&gt;t4</title>
<path fill="none" stroke="#0044a0" d="M860.646,-702.795C870.419,-695.692 879.438,-686.864 885,-676.208 892.403,-662.023 890.503,-655.231 885,-640.208 883.215,-635.336 880.523,-630.654 877.431,-626.329"/>
<polygon fill="#0044a0" stroke="#0044a0" points="880.0px4,-624.093 871.127,-618.498 874.671,-628.483 880.0px4,-624.093"/>
</g>
<!-- t3&#45;&gt;t4 -->
<g id="edge4" class="edge"><title>t3&#45;&gt;t4</title>
<path fill="none" stroke="#0044a0" d="M769.351,-640.102C781.115,-634.565 794.311,-628.355 806.646,-622.551"/>
<polygon fill="#0044a0" stroke="#0044a0" points="808.314,-625.634 815.872,-618.209 805.334,-619.3 808.314,-625.634"/>
</g>
<!-- t5 -->
<g id="node6" class="node"><title>t5</title>
<polygon fill="#efa03b" stroke="black" points="943.299,-560.208 592.701,-560.208 588.701,-556.208 588.701,-524.208 939.299,-524.208 943.299,-528.208 943.299,-560.208"/>
<polyline fill="none" stroke="black" points="939.299,-556.208 588.701,-556.208 "/>
<polyline fill="none" stroke="black" points="939.299,-556.208 939.299,-524.208 "/>
<polyline fill="none" stroke="black" points="939.299,-556.208 943.299,-560.208 "/>
<text text-anchor="middle" x="766" y="-536.208" font-family="Times,serif" font-size="20.00">rasterize_with_ghostscript</text>
</g>
<!-- t4&#45;&gt;t5 -->
<g id="edge6" class="edge"><title>t4&#45;&gt;t5</title>
<path fill="none" stroke="#0044a0" d="M825.73,-582.102C817.811,-576.945 808.995,-571.205 800.621,-565.751"/>
<polygon fill="#0044a0" stroke="#0044a0" points="802.399,-562.733 792.109,-560.209 798.579,-568.599 802.399,-562.733"/>
</g>
<!-- t10 -->
<g id="node12" class="node"><title>t10</title>
<polygon fill="#efa03b" stroke="black" points="334.109,-328.208 39.8906,-328.208 35.8906,-324.208 35.8906,-292.208 330.109,-292.208 334.109,-296.208 334.109,-328.208"/>
<polyline fill="none" stroke="black" points="330.109,-324.208 35.8906,-324.208 "/>
<polyline fill="none" stroke="black" points="330.109,-324.208 330.109,-292.208 "/>
<polyline fill="none" stroke="black" points="330.109,-324.208 334.109,-328.208 "/>
<text text-anchor="middle" x="185" y="-304.208" font-family="Times,serif" font-size="20.00">select_image_layer</text>
</g>
<!-- t4&#45;&gt;t10 -->
<g id="edge15" class="edge"><title>t4&#45;&gt;t10</title>
<path fill="none" stroke="#0044a0" d="M732.761,-589.561C550.118,-573.158 222,-536.546 222,-485.208 222,-485.208 222,-485.208 222,-425.208 222,-394.031 209.326,-360.299 198.814,-337.681"/>
<polygon fill="#0044a0" stroke="#0044a0" points="201.838,-335.896 194.337,-328.415 195.535,-338.941 201.838,-335.896"/>
</g>
<!-- t16 -->
<g id="node15" class="node"><title>t16</title>
<polygon fill="#efa03b" stroke="black" points="1082.34,-270.208 861.662,-270.208 857.662,-266.208 857.662,-234.208 1078.34,-234.208 1082.34,-238.208 1082.34,-270.208"/>
<polyline fill="none" stroke="black" points="1078.34,-266.208 857.662,-266.208 "/>
<polyline fill="none" stroke="black" points="1078.34,-266.208 1078.34,-234.208 "/>
<polyline fill="none" stroke="black" points="1078.34,-266.208 1082.34,-270.208 "/>
<text text-anchor="middle" x="970" y="-246.208" font-family="Times,serif" font-size="20.00">skip_page</text>
</g>
<!-- t4&#45;&gt;t16 -->
<g id="edge20" class="edge"><title>t4&#45;&gt;t16</title>
<path fill="none" stroke="#0044a0" d="M971.395,-588.906C1035.3,-576.099 1101,-547.729 1101,-485.208 1101,-485.208 1101,-485.208 1101,-367.208 1101,-333.579 1112.56,-318.019 1091,-292.208 1085.41,-285.511 1078.66,-279.952 1071.24,-275.34"/>
<polygon fill="#0044a0" stroke="#0044a0" points="1072.7,-272.145 1062.25,-270.349 1069.3,-278.265 1072.7,-272.145"/>
</g>
<!-- t14 -->
<g id="node16" class="node"><title>t14</title>
<polygon fill="#efa03b" stroke="black" points="1082.24,-328.208 701.76,-328.208 697.76,-324.208 697.76,-292.208 1078.24,-292.208 1082.24,-296.208 1082.24,-328.208"/>
<polyline fill="none" stroke="black" points="1078.24,-324.208 697.76,-324.208 "/>
<polyline fill="none" stroke="black" points="1078.24,-324.208 1078.24,-292.208 "/>
<polyline fill="none" stroke="black" points="1078.24,-324.208 1082.24,-328.208 "/>
<text text-anchor="middle" x="890" y="-304.208" font-family="Times,serif" font-size="20.00">tesseract_ocr_and_render_pdf</text>
</g>
<!-- t4&#45;&gt;t14 -->
<g id="edge22" class="edge"><title>t4&#45;&gt;t14</title>
<path fill="none" stroke="#0044a0" d="M923.945,-582.129C934.701,-576.714 944.634,-569.587 952,-560.208 972.77,-533.76 962,-518.836 962,-485.208 962,-485.208 962,-485.208 962,-425.208 962,-391.579 970.173,-378.503 952,-350.208 948.079,-344.102 942.825,-338.781 937.028,-334.197"/>
<polygon fill="#0044a0" stroke="#0044a0" points="939.04,-331.334 928.86,-328.4 934.989,-337.042 939.04,-331.334"/>
</g>
<!-- t6 -->
<g id="node7" class="node"><title>t6</title>
<polygon fill="#efa03b" stroke="black" points="774.742,-502.208 479.258,-502.208 475.258,-498.208 475.258,-466.208 770.742,-466.208 774.742,-470.208 774.742,-502.208"/>
<polyline fill="none" stroke="black" points="770.742,-498.208 475.258,-498.208 "/>
<polyline fill="none" stroke="black" points="770.742,-498.208 770.742,-466.208 "/>
<polyline fill="none" stroke="black" points="770.742,-498.208 774.742,-502.208 "/>
<text text-anchor="middle" x="625" y="-478.208" font-family="Times,serif" font-size="20.00">preprocess_deskew</text>
</g>
<!-- t5&#45;&gt;t6 -->
<g id="edge7" class="edge"><title>t5&#45;&gt;t6</title>
<path fill="none" stroke="#0044a0" d="M722.929,-524.102C708.579,-518.402 692.433,-511.99 677.453,-506.04"/>
<polygon fill="#0044a0" stroke="#0044a0" points="678.393,-502.647 667.807,-502.209 675.809,-509.153 678.393,-502.647"/>
</g>
<!-- t9 -->
<g id="node11" class="node"><title>t9</title>
<polygon fill="#efa03b" stroke="black" points="943.119,-386.208 628.881,-386.208 624.881,-382.208 624.881,-350.208 939.119,-350.208 943.119,-354.208 943.119,-386.208"/>
<polyline fill="none" stroke="black" points="939.119,-382.208 624.881,-382.208 "/>
<polyline fill="none" stroke="black" points="939.119,-382.208 939.119,-350.208 "/>
<polyline fill="none" stroke="black" points="939.119,-382.208 943.119,-386.208 "/>
<text text-anchor="middle" x="784" y="-362.208" font-family="Times,serif" font-size="20.00">select_image_for_pdf</text>
</g>
<!-- t5&#45;&gt;t9 -->
<g id="edge13" class="edge"><title>t5&#45;&gt;t9</title>
<path fill="none" stroke="#0044a0" d="M775.933,-523.913C779.179,-517.337 782.368,-509.637 784,-502.208 791.88,-466.33 789.966,-423.684 787.388,-396.535"/>
<polygon fill="#0044a0" stroke="#0044a0" points="790.834,-395.834 786.309,-386.254 783.872,-396.565 790.834,-395.834"/>
</g>
<!-- t7 -->
<g id="node8" class="node"><title>t7</title>
<polygon fill="#efa03b" stroke="black" points="754.95,-444.208 477.05,-444.208 473.05,-440.208 473.05,-408.208 750.95,-408.208 754.95,-412.208 754.95,-444.208"/>
<polyline fill="none" stroke="black" points="750.95,-440.208 473.05,-440.208 "/>
<polyline fill="none" stroke="black" points="750.95,-440.208 750.95,-408.208 "/>
<polyline fill="none" stroke="black" points="750.95,-440.208 754.95,-444.208 "/>
<text text-anchor="middle" x="614" y="-420.208" font-family="Times,serif" font-size="20.00">preprocess_clean</text>
</g>
<!-- t6&#45;&gt;t7 -->
<g id="edge8" class="edge"><title>t6&#45;&gt;t7</title>
<path fill="none" stroke="#0044a0" d="M621.64,-466.102C620.894,-462.302 620.085,-458.185 619.282,-454.1"/>
<polygon fill="#0044a0" stroke="#0044a0" points="622.701,-453.347 617.34,-444.209 615.833,-454.696 622.701,-453.347"/>
</g>
<!-- t6&#45;&gt;t9 -->
<g id="edge12" class="edge"><title>t6&#45;&gt;t9</title>
<path fill="none" stroke="#0044a0" d="M731.682,-466.051C743.672,-460.599 754.844,-453.483 764,-444.208 776.307,-431.74 781.272,-412.595 783.178,-396.768"/>
<polygon fill="#0044a0" stroke="#0044a0" points="786.695,-396.727 784.062,-386.465 779.72,-396.129 786.695,-396.727"/>
</g>
<!-- t8 -->
<g id="node9" class="node"><title>t8</title>
<polygon fill="#efa03b" stroke="black" points="606.666,-386.208 317.334,-386.208 313.334,-382.208 313.334,-350.208 602.666,-350.208 606.666,-354.208 606.666,-386.208"/>
<polyline fill="none" stroke="black" points="602.666,-382.208 313.334,-382.208 "/>
<polyline fill="none" stroke="black" points="602.666,-382.208 602.666,-350.208 "/>
<polyline fill="none" stroke="black" points="602.666,-382.208 606.666,-386.208 "/>
<text text-anchor="middle" x="460" y="-362.208" font-family="Times,serif" font-size="20.00">ocr_tesseract_hocr</text>
</g>
<!-- t7&#45;&gt;t8 -->
<g id="edge9" class="edge"><title>t7&#45;&gt;t8</title>
<path fill="none" stroke="#0044a0" d="M566.958,-408.102C550.987,-402.294 532.978,-395.745 516.355,-389.7"/>
<polygon fill="#0044a0" stroke="#0044a0" points="517.348,-386.337 506.754,-386.209 514.956,-392.916 517.348,-386.337"/>
</g>
<!-- t7&#45;&gt;t9 -->
<g id="edge11" class="edge"><title>t7&#45;&gt;t9</title>
<path fill="none" stroke="#0044a0" d="M665.929,-408.102C683.89,-402.185 704.184,-395.5 722.817,-389.362"/>
<polygon fill="#0044a0" stroke="#0044a0" points="723.986,-392.662 732.389,-386.209 721.796,-386.014 723.986,-392.662"/>
</g>
<!-- t11 -->
<g id="node10" class="node"><title>t11</title>
<polygon fill="#efa03b" stroke="black" points="640.109,-328.208 355.891,-328.208 351.891,-324.208 351.891,-292.208 636.109,-292.208 640.109,-296.208 640.109,-328.208"/>
<polyline fill="none" stroke="black" points="636.109,-324.208 351.891,-324.208 "/>
<polyline fill="none" stroke="black" points="636.109,-324.208 636.109,-292.208 "/>
<polyline fill="none" stroke="black" points="636.109,-324.208 640.109,-328.208 "/>
<text text-anchor="middle" x="496" y="-304.208" font-family="Times,serif" font-size="20.00">render_hocr_page</text>
</g>
<!-- t8&#45;&gt;t11 -->
<g id="edge10" class="edge"><title>t8&#45;&gt;t11</title>
<path fill="none" stroke="#0044a0" d="M470.997,-350.102C473.718,-345.868 476.693,-341.24 479.611,-336.701"/>
<polygon fill="#0044a0" stroke="#0044a0" points="482.607,-338.514 485.071,-328.209 476.719,-334.728 482.607,-338.514"/>
</g>
<!-- t12 -->
<g id="node14" class="node"><title>t12</title>
<polygon fill="#efa03b" stroke="black" points="820.486,-270.208 477.514,-270.208 473.514,-266.208 473.514,-234.208 816.486,-234.208 820.486,-238.208 820.486,-270.208"/>
<polyline fill="none" stroke="black" points="816.486,-266.208 473.514,-266.208 "/>
<polyline fill="none" stroke="black" points="816.486,-266.208 816.486,-234.208 "/>
<polyline fill="none" stroke="black" points="816.486,-266.208 820.486,-270.208 "/>
<text text-anchor="middle" x="647" y="-246.208" font-family="Times,serif" font-size="20.00">render_hocr_debug_page</text>
</g>
<!-- t8&#45;&gt;t12 -->
<g id="edge19" class="edge"><title>t8&#45;&gt;t12</title>
<path fill="none" stroke="#0044a0" d="M601.217,-350.105C623.352,-344.635 641.435,-337.494 649,-328.208 659.629,-315.162 659.021,-296.183 655.81,-280.582"/>
<polygon fill="#0044a0" stroke="#0044a0" points="659.095,-279.29 653.278,-270.435 652.304,-280.985 659.095,-279.29"/>
</g>
<!-- t13 -->
<g id="node13" class="node"><title>t13</title>
<polygon fill="#efa03b" stroke="black" points="455.082,-270.208 196.918,-270.208 192.918,-266.208 192.918,-234.208 451.082,-234.208 455.082,-238.208 455.082,-270.208"/>
<polyline fill="none" stroke="black" points="451.082,-266.208 192.918,-266.208 "/>
<polyline fill="none" stroke="black" points="451.082,-266.208 451.082,-234.208 "/>
<polyline fill="none" stroke="black" points="451.082,-266.208 455.082,-270.208 "/>
<text text-anchor="middle" x="324" y="-246.208" font-family="Times,serif" font-size="20.00">add_text_layer</text>
</g>
<!-- t11&#45;&gt;t13 -->
<g id="edge16" class="edge"><title>t11&#45;&gt;t13</title>
<path fill="none" stroke="#0044a0" d="M443.46,-292.102C425.288,-286.185 404.755,-279.5 385.903,-273.362"/>
<polygon fill="#0044a0" stroke="#0044a0" points="386.811,-269.977 376.219,-270.209 384.644,-276.633 386.811,-269.977"/>
</g>
<!-- t9&#45;&gt;t10 -->
<g id="edge14" class="edge"><title>t9&#45;&gt;t10</title>
<path fill="none" stroke="#0044a0" d="M624.837,-351.018C621.867,-350.744 618.92,-350.473 616,-350.208 497.969,-339.481 465.867,-339.594 344.341,-328.317"/>
<polygon fill="#0044a0" stroke="#0044a0" points="344.55,-324.822 334.267,-327.376 343.898,-331.791 344.55,-324.822"/>
</g>
<!-- t9&#45;&gt;t12 -->
<g id="edge18" class="edge"><title>t9&#45;&gt;t12</title>
<path fill="none" stroke="#0044a0" d="M724.686,-350.021C711.965,-344.466 699.276,-337.311 689,-328.208 680.962,-321.087 668.688,-298.27 659.481,-279.655"/>
<polygon fill="#0044a0" stroke="#0044a0" points="662.506,-277.871 654.985,-270.409 656.21,-280.933 662.506,-277.871"/>
</g>
<!-- t9&#45;&gt;t14 -->
<g id="edge21" class="edge"><title>t9&#45;&gt;t14</title>
<path fill="none" stroke="#0044a0" d="M816.379,-350.102C826.654,-344.674 838.153,-338.599 848.953,-332.893"/>
<polygon fill="#0044a0" stroke="#0044a0" points="850.612,-335.975 857.819,-328.209 847.342,-329.786 850.612,-335.975"/>
</g>
<!-- t10&#45;&gt;t13 -->
<g id="edge17" class="edge"><title>t10&#45;&gt;t13</title>
<path fill="none" stroke="#0044a0" d="M227.46,-292.102C241.606,-286.402 257.523,-279.99 272.292,-274.04"/>
<polygon fill="#0044a0" stroke="#0044a0" points="273.833,-277.192 281.8,-270.209 271.217,-270.7 273.833,-277.192"/>
</g>
<!-- t17 -->
<g id="node18" class="node"><title>t17</title>
<polygon fill="#efa03b" stroke="black" points="242.724,-156.455 472,-129.143 701.276,-156.455 701.062,-200.646 242.938,-200.646 242.724,-156.455"/>
<polygon fill="none" stroke="black" points="238.704,-152.903 472,-125.112 705.296,-152.903 705.046,-204.648 238.954,-204.648 238.704,-152.903"/>
<text text-anchor="middle" x="472" y="-162.669" font-family="Times,serif" font-size="20.00">merge_pages_ghostscript</text>
</g>
<!-- t13&#45;&gt;t17 -->
<g id="edge27" class="edge"><title>t13&#45;&gt;t17</title>
<path fill="none" stroke="#0044a0" d="M355.026,-234.114C367.992,-226.971 383.653,-218.343 399.24,-209.755"/>
<polygon fill="#0044a0" stroke="#0044a0" points="401.319,-212.606 408.388,-204.715 397.941,-206.475 401.319,-212.606"/>
</g>
<!-- t13&#45;&gt;t18 -->
<g id="edge31" class="edge"><title>t13&#45;&gt;t18</title>
<path fill="none" stroke="#0044a0" d="M455.329,-235.235C458.584,-234.884 461.812,-234.541 465,-234.208 575.497,-222.668 604.059,-228.201 714,-212.208 725.737,-210.5 737.809,-208.554 749.949,-206.456"/>
<polygon fill="#0044a0" stroke="#0044a0" points="750.914,-209.84 760.156,-204.659 749.7,-202.946 750.914,-209.84"/>
</g>
<!-- t12&#45;&gt;t17 -->
<g id="edge28" class="edge"><title>t12&#45;&gt;t17</title>
<path fill="none" stroke="#0044a0" d="M610.314,-234.114C594.552,-226.77 575.424,-217.858 556.484,-209.033"/>
<polygon fill="#0044a0" stroke="#0044a0" points="557.759,-205.766 547.216,-204.715 554.803,-212.111 557.759,-205.766"/>
</g>
<!-- t12&#45;&gt;t18 -->
<g id="edge32" class="edge"><title>t12&#45;&gt;t18</title>
<path fill="none" stroke="#0044a0" d="M704.859,-234.114C731.074,-226.37 763.193,-216.881 794.642,-207.59"/>
<polygon fill="#0044a0" stroke="#0044a0" points="795.774,-210.905 804.373,-204.715 793.791,-204.192 795.774,-210.905"/>
</g>
<!-- t16&#45;&gt;t17 -->
<g id="edge24" class="edge"><title>t16&#45;&gt;t17</title>
<path fill="none" stroke="#0044a0" d="M857.572,-234.546C813.13,-227.821 761.626,-219.853 715,-212.208 703.526,-210.326 691.752,-208.365 679.872,-206.363"/>
<polygon fill="#0044a0" stroke="#0044a0" points="680.316,-202.888 669.872,-204.672 679.149,-209.79 680.316,-202.888"/>
</g>
<!-- t16&#45;&gt;t18 -->
<g id="edge29" class="edge"><title>t16&#45;&gt;t18</title>
<path fill="none" stroke="#0044a0" d="M960.033,-233.915C956.584,-227.933 952.546,-220.928 948.429,-213.785"/>
<polygon fill="#0044a0" stroke="#0044a0" points="951.236,-211.645 943.209,-204.729 945.171,-215.141 951.236,-211.645"/>
</g>
<!-- t14&#45;&gt;t17 -->
<g id="edge26" class="edge"><title>t14&#45;&gt;t17</title>
<path fill="none" stroke="#0044a0" d="M869.58,-292.065C862.585,-285.626 855.014,-277.976 849,-270.208 837.796,-255.734 843.883,-244.862 829,-234.208 827.195,-232.915 757.668,-220.232 680.45,-206.446"/>
<polygon fill="#0044a0" stroke="#0044a0" points="680.964,-202.982 670.505,-204.672 679.735,-209.874 680.964,-202.982"/>
</g>
<!-- t14&#45;&gt;t18 -->
<g id="edge30" class="edge"><title>t14&#45;&gt;t18</title>
<path fill="none" stroke="#0044a0" d="M1043.06,-292.207C1065.26,-286.759 1083.25,-279.601 1091,-270.208 1111.71,-245.098 1093.42,-224.707 1062.42,-209.018"/>
<polygon fill="#0044a0" stroke="#0044a0" points="1063.89,-205.844 1053.36,-204.717 1060.89,-212.167 1063.89,-205.844"/>
</g>
<!-- t15&#45;&gt;t17 -->
<g id="edge25" class="edge"><title>t15&#45;&gt;t17</title>
<path fill="none" stroke="#0044a0" d="M121.233,-640.151C67.5371,-625.079 17,-596.687 17,-543.208 17,-543.208 17,-543.208 17,-309.208 17,-258.729 120.653,-224.649 229.014,-202.812"/>
<polygon fill="#0044a0" stroke="#0044a0" points="229.705,-206.243 238.835,-200.869 228.346,-199.377 229.705,-206.243"/>
</g>
<!-- t19 -->
<g id="node20" class="node"><title>t19</title>
<polygon fill="#efa03b" stroke="black" points="546.361,-47.3406 697,-20.006 847.639,-47.3406 847.499,-91.5689 546.501,-91.5689 546.361,-47.3406"/>
<polygon fill="none" stroke="black" points="542.355,-43.9965 697,-15.9349 851.645,-43.9965 851.481,-95.5749 542.519,-95.5749 542.355,-43.9965"/>
<text text-anchor="middle" x="697" y="-53.565" font-family="Times,serif" font-size="20.00">copy_final</text>
</g>
<!-- t17&#45;&gt;t19 -->
<g id="edge35" class="edge"><title>t17&#45;&gt;t19</title>
<path fill="none" stroke="#0044a0" d="M543.81,-133.486C566.177,-122.839 591.024,-111.011 614.085,-100.034"/>
<polygon fill="#0044a0" stroke="#0044a0" points="615.64,-103.17 623.165,-95.7118 612.631,-96.8497 615.64,-103.17"/>
</g>
<!-- t18&#45;&gt;t19 -->
<g id="edge34" class="edge"><title>t18&#45;&gt;t19</title>
<path fill="none" stroke="#0044a0" d="M853.348,-134.66C830.233,-123.705 804.264,-111.399 780.231,-100.009"/>
<polygon fill="#0044a0" stroke="#0044a0" points="781.66,-96.8131 771.124,-95.6933 778.662,-103.139 781.66,-96.8131"/>
</g>
</g>
</svg>
