<?xml version="1.0" encoding="UTF-8" standalone="no"?>
<!DOCTYPE svg PUBLIC "-//W3C//DTD SVG 1.1//EN"
 "http://www.w3.org/Graphics/SVG/1.1/DTD/svg11.dtd">
<!-- Generated by graphviz version 2.38.0 (20140413.2041)
 -->
<!-- Title: Pipeline: Pages: 1 -->
<svg width="1452pt" height="824pt"
 viewBox="0.00 0.00 1452.00 824.08" xmlns="http://www.w3.org/2000/svg" xmlns:xlink="http://www.w3.org/1999/xlink">
<g id="graph0" class="graph" transform="scale(1 1) rotate(0) translate(4 820.083)">
<title>Pipeline:</title>
<polygon fill="white" stroke="none" points="-4,4 -4,-820.083 1448,-820.083 1448,4 -4,4"/>
<g id="clust1" class="cluster"><title>clustertasks</title>
<polygon fill="none" stroke="black" points="8,-8 8,-808.083 1436,-808.083 1436,-8 8,-8"/>
<text text-anchor="middle" x="722" y="-780.083" font-family="Times,serif" font-size="30.00" fill="#ff3232">Pipeline:</text>
</g>
<!-- t0 -->
<g id="node1" class="node"><title>t0</title>
<polygon fill="#efa03b" stroke="black" points="1256.54,-762.083 1033.46,-762.083 1029.46,-758.083 1029.46,-726.083 1252.54,-726.083 1256.54,-730.083 1256.54,-762.083"/>
<polyline fill="none" stroke="black" points="1252.54,-758.083 1029.46,-758.083 "/>
<polyline fill="none" stroke="black" points="1252.54,-758.083 1252.54,-726.083 "/>
<polyline fill="none" stroke="black" points="1252.54,-758.083 1256.54,-762.083 "/>
<text text-anchor="middle" x="1143" y="-738.083" font-family="Times,serif" font-size="20.00">repair_pdf</text>
</g>
<!-- t1 -->
<g id="node2" class="node"><title>t1</title>
<polygon fill="#efa03b" stroke="black" points="1234.11,-683.155 1030,-700.057 825.888,-683.155 826.078,-655.806 1233.92,-655.806 1234.11,-683.155"/>
<polygon fill="none" stroke="black" points="1238.13,-686.834 1030,-704.069 821.866,-686.834 822.11,-651.808 1237.89,-651.808 1238.13,-686.834"/>
<text text-anchor="middle" x="1030" y="-669.596" font-family="Times,serif" font-size="20.00">split_pages</text>
</g>
<!-- t0&#45;&gt;t1 -->
<g id="edge1" class="edge"><title>t0&#45;&gt;t1</title>
<path fill="none" stroke="#0044a0" d="M1113.9,-725.961C1103.58,-719.89 1091.66,-712.873 1080.09,-706.069"/>
<polygon fill="#0044a0" stroke="#0044a0" points="1081.75,-702.982 1071.35,-700.927 1078.2,-709.015 1081.75,-702.982"/>
</g>
<!-- t14 -->
<g id="node16" class="node"><title>t14</title>
<polygon fill="#efa03b" stroke="black" points="1428.08,-625.109 1089.92,-625.109 1085.92,-621.109 1085.92,-589.109 1424.08,-589.109 1428.08,-593.109 1428.08,-625.109"/>
<polyline fill="none" stroke="black" points="1424.08,-621.109 1085.92,-621.109 "/>
<polyline fill="none" stroke="black" points="1424.08,-621.109 1424.08,-589.109 "/>
<polyline fill="none" stroke="black" points="1424.08,-621.109 1428.08,-625.109 "/>
<text text-anchor="middle" x="1257" y="-601.109" font-family="Times,serif" font-size="20.00">generate_postscript_stub</text>
</g>
<!-- t0&#45;&gt;t14 -->
<g id="edge22" class="edge"><title>t0&#45;&gt;t14</title>
<path fill="none" stroke="#0044a0" d="M1219.32,-726.004C1229.98,-720.592 1239.75,-713.466 1247,-704.083 1261.92,-684.78 1263.1,-656.385 1261.35,-635.486"/>
<polygon fill="#0044a0" stroke="#0044a0" points="1264.8,-634.881 1260.22,-625.328 1257.84,-635.653 1264.8,-634.881"/>
</g>
<!-- t2 -->
<g id="node3" class="node"><title>t2</title>
<polygon fill="#efa03b" stroke="black" points="1029.88,-625.109 748.117,-625.109 744.117,-621.109 744.117,-589.109 1025.88,-589.109 1029.88,-593.109 1029.88,-625.109"/>
<polyline fill="none" stroke="black" points="1025.88,-621.109 744.117,-621.109 "/>
<polyline fill="none" stroke="black" points="1025.88,-621.109 1025.88,-589.109 "/>
<polyline fill="none" stroke="black" points="1025.88,-621.109 1029.88,-625.109 "/>
<text text-anchor="middle" x="887" y="-601.109" font-family="Times,serif" font-size="20.00">rasterize_preview</text>
</g>
<!-- t1&#45;&gt;t2 -->
<g id="edge2" class="edge"><title>t1&#45;&gt;t2</title>
<path fill="none" stroke="#0044a0" d="M980.788,-651.715C965.266,-644.498 948.187,-636.558 932.905,-629.452"/>
<polygon fill="#0044a0" stroke="#0044a0" points="934.195,-626.193 923.652,-625.15 931.244,-632.54 934.195,-626.193"/>
</g>
<!-- t3 -->
<g id="node4" class="node"><title>t3</title>
<polygon fill="#efa03b" stroke="black" points="1128.15,-567.109 893.852,-567.109 889.852,-563.109 889.852,-531.109 1124.15,-531.109 1128.15,-535.109 1128.15,-567.109"/>
<polyline fill="none" stroke="black" points="1124.15,-563.109 889.852,-563.109 "/>
<polyline fill="none" stroke="black" points="1124.15,-563.109 1124.15,-531.109 "/>
<polyline fill="none" stroke="black" points="1124.15,-563.109 1128.15,-567.109 "/>
<text text-anchor="middle" x="1009" y="-543.109" font-family="Times,serif" font-size="20.00">orient_page</text>
</g>
<!-- t1&#45;&gt;t3 -->
<g id="edge4" class="edge"><title>t1&#45;&gt;t3</title>
<path fill="none" stroke="#0044a0" d="M1037.63,-651.508C1042.21,-633.96 1045.92,-609.455 1039,-589.109 1037.4,-584.404 1034.98,-579.822 1032.19,-575.552"/>
<polygon fill="#0044a0" stroke="#0044a0" points="1034.85,-573.258 1026.1,-567.282 1029.21,-577.409 1034.85,-573.258"/>
</g>
<!-- t2&#45;&gt;t3 -->
<g id="edge3" class="edge"><title>t2&#45;&gt;t3</title>
<path fill="none" stroke="#0044a0" d="M924.267,-589.003C936.328,-583.467 949.857,-577.257 962.502,-571.453"/>
<polygon fill="#0044a0" stroke="#0044a0" points="964.333,-574.463 971.961,-567.111 961.413,-568.102 964.333,-574.463"/>
</g>
<!-- t4 -->
<g id="node5" class="node"><title>t4</title>
<polygon fill="#efa03b" stroke="black" points="1027.3,-509.109 676.701,-509.109 672.701,-505.109 672.701,-473.109 1023.3,-473.109 1027.3,-477.109 1027.3,-509.109"/>
<polyline fill="none" stroke="black" points="1023.3,-505.109 672.701,-505.109 "/>
<polyline fill="none" stroke="black" points="1023.3,-505.109 1023.3,-473.109 "/>
<polyline fill="none" stroke="black" points="1023.3,-505.109 1027.3,-509.109 "/>
<text text-anchor="middle" x="850" y="-485.109" font-family="Times,serif" font-size="20.00">rasterize_with_ghostscript</text>
</g>
<!-- t3&#45;&gt;t4 -->
<g id="edge5" class="edge"><title>t3&#45;&gt;t4</title>
<path fill="none" stroke="#0044a0" d="M960.431,-531.003C943.787,-525.141 924.999,-518.524 907.704,-512.433"/>
<polygon fill="#0044a0" stroke="#0044a0" points="908.867,-509.132 898.272,-509.111 906.541,-515.734 908.867,-509.132"/>
</g>
<!-- t9 -->
<g id="node11" class="node"><title>t9</title>
<polygon fill="#efa03b" stroke="black" points="314.109,-277.109 19.8906,-277.109 15.8906,-273.109 15.8906,-241.109 310.109,-241.109 314.109,-245.109 314.109,-277.109"/>
<polyline fill="none" stroke="black" points="310.109,-273.109 15.8906,-273.109 "/>
<polyline fill="none" stroke="black" points="310.109,-273.109 310.109,-241.109 "/>
<polyline fill="none" stroke="black" points="310.109,-273.109 314.109,-277.109 "/>
<text text-anchor="middle" x="165" y="-253.109" font-family="Times,serif" font-size="20.00">select_image_layer</text>
</g>
<!-- t3&#45;&gt;t9 -->
<g id="edge14" class="edge"><title>t3&#45;&gt;t9</title>
<path fill="none" stroke="#0044a0" d="M889.675,-542.297C675.505,-530.255 248,-498.192 248,-434.109 248,-434.109 248,-434.109 248,-374.109 248,-337.597 219.83,-304.936 196.312,-284.031"/>
<polygon fill="#0044a0" stroke="#0044a0" points="198.437,-281.243 188.562,-277.404 193.888,-286.563 198.437,-281.243"/>
</g>
<!-- t15 -->
<g id="node14" class="node"><title>t15</title>
<polygon fill="#efa03b" stroke="black" points="1391.34,-451.109 1170.66,-451.109 1166.66,-447.109 1166.66,-415.109 1387.34,-415.109 1391.34,-419.109 1391.34,-451.109"/>
<polyline fill="none" stroke="black" points="1387.34,-447.109 1166.66,-447.109 "/>
<polyline fill="none" stroke="black" points="1387.34,-447.109 1387.34,-415.109 "/>
<polyline fill="none" stroke="black" points="1387.34,-447.109 1391.34,-451.109 "/>
<text text-anchor="middle" x="1279" y="-427.109" font-family="Times,serif" font-size="20.00">skip_page</text>
</g>
<!-- t3&#45;&gt;t15 -->
<g id="edge19" class="edge"><title>t3&#45;&gt;t15</title>
<path fill="none" stroke="#0044a0" d="M1060.32,-531.078C1078.95,-524.591 1100.07,-516.881 1119,-509.109 1159.3,-492.568 1204.11,-471.304 1236.04,-455.645"/>
<polygon fill="#0044a0" stroke="#0044a0" points="1237.67,-458.74 1245.1,-451.181 1234.58,-452.461 1237.67,-458.74"/>
</g>
<!-- t13 -->
<g id="node15" class="node"><title>t13</title>
<polygon fill="#efa03b" stroke="black" points="1388.24,-277.109 1007.76,-277.109 1003.76,-273.109 1003.76,-241.109 1384.24,-241.109 1388.24,-245.109 1388.24,-277.109"/>
<polyline fill="none" stroke="black" points="1384.24,-273.109 1003.76,-273.109 "/>
<polyline fill="none" stroke="black" points="1384.24,-273.109 1384.24,-241.109 "/>
<polyline fill="none" stroke="black" points="1384.24,-273.109 1388.24,-277.109 "/>
<text text-anchor="middle" x="1196" y="-253.109" font-family="Times,serif" font-size="20.00">tesseract_ocr_and_render_pdf</text>
</g>
<!-- t3&#45;&gt;t13 -->
<g id="edge21" class="edge"><title>t3&#45;&gt;t13</title>
<path fill="none" stroke="#0044a0" d="M1040.79,-531.094C1071.69,-511.983 1114,-477.834 1114,-434.109 1114,-434.109 1114,-434.109 1114,-374.109 1114,-337.749 1141.83,-305.063 1165.07,-284.11"/>
<polygon fill="#0044a0" stroke="#0044a0" points="1167.46,-286.664 1172.72,-277.466 1162.87,-281.377 1167.46,-286.664"/>
</g>
<!-- t5 -->
<g id="node6" class="node"><title>t5</title>
<polygon fill="#efa03b" stroke="black" points="830.742,-451.109 535.258,-451.109 531.258,-447.109 531.258,-415.109 826.742,-415.109 830.742,-419.109 830.742,-451.109"/>
<polyline fill="none" stroke="black" points="826.742,-447.109 531.258,-447.109 "/>
<polyline fill="none" stroke="black" points="826.742,-447.109 826.742,-415.109 "/>
<polyline fill="none" stroke="black" points="826.742,-447.109 830.742,-451.109 "/>
<text text-anchor="middle" x="681" y="-427.109" font-family="Times,serif" font-size="20.00">preprocess_deskew</text>
</g>
<!-- t4&#45;&gt;t5 -->
<g id="edge6" class="edge"><title>t4&#45;&gt;t5</title>
<path fill="none" stroke="#0044a0" d="M798.376,-473.003C780.521,-467.087 760.346,-460.402 741.823,-454.264"/>
<polygon fill="#0044a0" stroke="#0044a0" points="742.901,-450.934 732.308,-451.111 740.699,-457.579 742.901,-450.934"/>
</g>
<!-- t8 -->
<g id="node10" class="node"><title>t8</title>
<polygon fill="#efa03b" stroke="black" points="980.119,-335.109 665.881,-335.109 661.881,-331.109 661.881,-299.109 976.119,-299.109 980.119,-303.109 980.119,-335.109"/>
<polyline fill="none" stroke="black" points="976.119,-331.109 661.881,-331.109 "/>
<polyline fill="none" stroke="black" points="976.119,-331.109 976.119,-299.109 "/>
<polyline fill="none" stroke="black" points="976.119,-331.109 980.119,-335.109 "/>
<text text-anchor="middle" x="821" y="-311.109" font-family="Times,serif" font-size="20.00">select_image_for_pdf</text>
</g>
<!-- t4&#45;&gt;t8 -->
<g id="edge12" class="edge"><title>t4&#45;&gt;t8</title>
<path fill="none" stroke="#0044a0" d="M848.03,-473.087C846.196,-457.857 843.261,-434.941 840,-415.109 836.1,-391.393 830.78,-364.592 826.761,-345.181"/>
<polygon fill="#0044a0" stroke="#0044a0" points="830.152,-344.296 824.68,-335.224 823.3,-345.728 830.152,-344.296"/>
</g>
<!-- t6 -->
<g id="node7" class="node"><title>t6</title>
<polygon fill="#efa03b" stroke="black" points="801.95,-393.109 524.05,-393.109 520.05,-389.109 520.05,-357.109 797.95,-357.109 801.95,-361.109 801.95,-393.109"/>
<polyline fill="none" stroke="black" points="797.95,-389.109 520.05,-389.109 "/>
<polyline fill="none" stroke="black" points="797.95,-389.109 797.95,-357.109 "/>
<polyline fill="none" stroke="black" points="797.95,-389.109 801.95,-393.109 "/>
<text text-anchor="middle" x="661" y="-369.109" font-family="Times,serif" font-size="20.00">preprocess_clean</text>
</g>
<!-- t5&#45;&gt;t6 -->
<g id="edge7" class="edge"><title>t5&#45;&gt;t6</title>
<path fill="none" stroke="#0044a0" d="M674.891,-415.003C673.495,-411.095 671.979,-406.852 670.48,-402.652"/>
<polygon fill="#0044a0" stroke="#0044a0" points="673.731,-401.351 667.072,-393.111 667.139,-403.705 673.731,-401.351"/>
</g>
<!-- t5&#45;&gt;t8 -->
<g id="edge11" class="edge"><title>t5&#45;&gt;t8</title>
<path fill="none" stroke="#0044a0" d="M781.944,-415.046C792.967,-409.579 803.051,-402.434 811,-393.109 822.009,-380.195 824.454,-361.215 824.174,-345.581"/>
<polygon fill="#0044a0" stroke="#0044a0" points="827.659,-345.2 823.617,-335.407 820.669,-345.583 827.659,-345.2"/>
</g>
<!-- t7 -->
<g id="node8" class="node"><title>t7</title>
<polygon fill="#efa03b" stroke="black" points="643.666,-335.109 354.334,-335.109 350.334,-331.109 350.334,-299.109 639.666,-299.109 643.666,-303.109 643.666,-335.109"/>
<polyline fill="none" stroke="black" points="639.666,-331.109 350.334,-331.109 "/>
<polyline fill="none" stroke="black" points="639.666,-331.109 639.666,-299.109 "/>
<polyline fill="none" stroke="black" points="639.666,-331.109 643.666,-335.109 "/>
<text text-anchor="middle" x="497" y="-311.109" font-family="Times,serif" font-size="20.00">ocr_tesseract_hocr</text>
</g>
<!-- t6&#45;&gt;t7 -->
<g id="edge8" class="edge"><title>t6&#45;&gt;t7</title>
<path fill="none" stroke="#0044a0" d="M610.903,-357.003C593.736,-351.141 574.358,-344.524 556.518,-338.433"/>
<polygon fill="#0044a0" stroke="#0044a0" points="557.384,-335.03 546.79,-335.111 555.122,-341.654 557.384,-335.03"/>
</g>
<!-- t6&#45;&gt;t8 -->
<g id="edge10" class="edge"><title>t6&#45;&gt;t8</title>
<path fill="none" stroke="#0044a0" d="M709.875,-357.003C726.624,-351.141 745.529,-344.524 762.933,-338.433"/>
<polygon fill="#0044a0" stroke="#0044a0" points="764.142,-341.718 772.425,-335.111 761.83,-335.111 764.142,-341.718"/>
</g>
<!-- t10 -->
<g id="node9" class="node"><title>t10</title>
<polygon fill="#efa03b" stroke="black" points="620.109,-277.109 335.891,-277.109 331.891,-273.109 331.891,-241.109 616.109,-241.109 620.109,-245.109 620.109,-277.109"/>
<polyline fill="none" stroke="black" points="616.109,-273.109 331.891,-273.109 "/>
<polyline fill="none" stroke="black" points="616.109,-273.109 616.109,-241.109 "/>
<polyline fill="none" stroke="black" points="616.109,-273.109 620.109,-277.109 "/>
<text text-anchor="middle" x="476" y="-253.109" font-family="Times,serif" font-size="20.00">render_hocr_page</text>
</g>
<!-- t7&#45;&gt;t10 -->
<g id="edge9" class="edge"><title>t7&#45;&gt;t10</title>
<path fill="none" stroke="#0044a0" d="M490.585,-299.003C489.12,-295.095 487.528,-290.852 485.953,-286.652"/>
<polygon fill="#0044a0" stroke="#0044a0" points="489.164,-285.245 482.376,-277.111 482.61,-287.703 489.164,-285.245"/>
</g>
<!-- t11 -->
<g id="node13" class="node"><title>t11</title>
<polygon fill="#efa03b" stroke="black" points="985.486,-277.109 642.514,-277.109 638.514,-273.109 638.514,-241.109 981.486,-241.109 985.486,-245.109 985.486,-277.109"/>
<polyline fill="none" stroke="black" points="981.486,-273.109 638.514,-273.109 "/>
<polyline fill="none" stroke="black" points="981.486,-273.109 981.486,-241.109 "/>
<polyline fill="none" stroke="black" points="981.486,-273.109 985.486,-277.109 "/>
<text text-anchor="middle" x="812" y="-253.109" font-family="Times,serif" font-size="20.00">render_hocr_debug_page</text>
</g>
<!-- t7&#45;&gt;t11 -->
<g id="edge18" class="edge"><title>t7&#45;&gt;t11</title>
<path fill="none" stroke="#0044a0" d="M592.793,-299.079C628.531,-292.726 669.303,-285.478 705.912,-278.969"/>
<polygon fill="#0044a0" stroke="#0044a0" points="706.887,-282.351 716.12,-277.155 705.661,-275.459 706.887,-282.351"/>
</g>
<!-- t12 -->
<g id="node12" class="node"><title>t12</title>
<polygon fill="#efa03b" stroke="black" points="607.082,-219.109 348.918,-219.109 344.918,-215.109 344.918,-183.109 603.082,-183.109 607.082,-187.109 607.082,-219.109"/>
<polyline fill="none" stroke="black" points="603.082,-215.109 344.918,-215.109 "/>
<polyline fill="none" stroke="black" points="603.082,-215.109 603.082,-183.109 "/>
<polyline fill="none" stroke="black" points="603.082,-215.109 607.082,-219.109 "/>
<text text-anchor="middle" x="476" y="-195.109" font-family="Times,serif" font-size="20.00">add_text_layer</text>
</g>
<!-- t10&#45;&gt;t12 -->
<g id="edge15" class="edge"><title>t10&#45;&gt;t12</title>
<path fill="none" stroke="#0044a0" d="M476,-241.003C476,-237.312 476,-233.322 476,-229.352"/>
<polygon fill="#0044a0" stroke="#0044a0" points="479.5,-229.111 476,-219.111 472.5,-229.111 479.5,-229.111"/>
</g>
<!-- t8&#45;&gt;t9 -->
<g id="edge13" class="edge"><title>t8&#45;&gt;t9</title>
<path fill="none" stroke="#0044a0" d="M661.842,-299.864C658.871,-299.606 655.921,-299.354 653,-299.109 509.812,-287.095 471.159,-289.734 324.542,-277.219"/>
<polygon fill="#0044a0" stroke="#0044a0" points="324.526,-273.705 314.262,-276.332 323.924,-280.679 324.526,-273.705"/>
</g>
<!-- t8&#45;&gt;t11 -->
<g id="edge17" class="edge"><title>t8&#45;&gt;t11</title>
<path fill="none" stroke="#0044a0" d="M818.251,-299.003C817.64,-295.204 816.979,-291.087 816.322,-287.002"/>
<polygon fill="#0044a0" stroke="#0044a0" points="819.775,-286.429 814.732,-277.111 812.864,-287.539 819.775,-286.429"/>
</g>
<!-- t8&#45;&gt;t13 -->
<g id="edge20" class="edge"><title>t8&#45;&gt;t13</title>
<path fill="none" stroke="#0044a0" d="M935.04,-299.079C978.311,-292.618 1027.78,-285.23 1071.94,-278.636"/>
<polygon fill="#0044a0" stroke="#0044a0" points="1072.48,-282.093 1081.86,-277.155 1071.45,-275.17 1072.48,-282.093"/>
</g>
<!-- t9&#45;&gt;t12 -->
<g id="edge16" class="edge"><title>t9&#45;&gt;t12</title>
<path fill="none" stroke="#0044a0" d="M259.577,-241.079C294.86,-234.726 335.115,-227.478 371.259,-220.969"/>
<polygon fill="#0044a0" stroke="#0044a0" points="372.116,-224.372 381.337,-219.155 370.875,-217.482 372.116,-224.372"/>
</g>
<!-- t16 -->
<g id="node17" class="node"><title>t16</title>
<polygon fill="#efa03b" stroke="black" points="1031.47,-105.333 1196,-78.005 1360.53,-105.333 1360.37,-149.551 1031.63,-149.551 1031.47,-105.333"/>
<polygon fill="none" stroke="black" points="1027.46,-101.94 1196,-73.9453 1364.54,-101.94 1364.36,-153.556 1027.64,-153.556 1027.46,-101.94"/>
<text text-anchor="middle" x="1196" y="-111.555" font-family="Times,serif" font-size="20.00">merge_pages</text>
</g>
<!-- t12&#45;&gt;t16 -->
<g id="edge26" class="edge"><title>t12&#45;&gt;t16</title>
<path fill="none" stroke="#0044a0" d="M607.222,-185.246C722.142,-172.229 890.172,-153.196 1017.34,-138.791"/>
<polygon fill="#0044a0" stroke="#0044a0" points="1018.04,-142.235 1027.58,-137.632 1017.25,-135.279 1018.04,-142.235"/>
</g>
<!-- t11&#45;&gt;t16 -->
<g id="edge27" class="edge"><title>t11&#45;&gt;t16</title>
<path fill="none" stroke="#0044a0" d="M859.086,-240.997C916.223,-220.232 1014.29,-184.591 1089.94,-157.099"/>
<polygon fill="#0044a0" stroke="#0044a0" points="1091.32,-160.323 1099.52,-153.618 1088.92,-153.744 1091.32,-160.323"/>
</g>
<!-- t15&#45;&gt;t16 -->
<g id="edge23" class="edge"><title>t15&#45;&gt;t16</title>
<path fill="none" stroke="#0044a0" d="M1321.98,-414.938C1359.16,-396.916 1407,-364.681 1407,-318.109 1407,-318.109 1407,-318.109 1407,-258.109 1407,-211.469 1370.69,-179.509 1328.2,-158.076"/>
<polygon fill="#0044a0" stroke="#0044a0" points="1329.57,-154.854 1319.04,-153.66 1326.53,-161.158 1329.57,-154.854"/>
</g>
<!-- t13&#45;&gt;t16 -->
<g id="edge25" class="edge"><title>t13&#45;&gt;t16</title>
<path fill="none" stroke="#0044a0" d="M1196,-240.997C1196,-221.914 1196,-190.265 1196,-163.926"/>
<polygon fill="#0044a0" stroke="#0044a0" points="1199.5,-163.759 1196,-153.759 1192.5,-163.759 1199.5,-163.759"/>
</g>
<!-- t14&#45;&gt;t16 -->
<g id="edge24" class="edge"><title>t14&#45;&gt;t16</title>
<path fill="none" stroke="#0044a0" d="M1326.64,-588.956C1373.58,-572.748 1427,-543.103 1427,-492.109 1427,-492.109 1427,-492.109 1427,-258.109 1427,-220.539 1416.55,-207.537 1388,-183.109 1376.82,-173.542 1364.16,-165.377 1350.82,-158.413"/>
<polygon fill="#0044a0" stroke="#0044a0" points="1351.99,-155.087 1341.47,-153.781 1348.88,-161.358 1351.99,-155.087"/>
</g>
<!-- t17 -->
<g id="node18" class="node"><title>t17</title>
<polygon fill="#efa03b" stroke="black" points="1310.18,-52 1085.82,-52 1081.82,-48 1081.82,-16 1306.18,-16 1310.18,-20 1310.18,-52"/>
<polyline fill="none" stroke="black" points="1306.18,-48 1081.82,-48 "/>
<polyline fill="none" stroke="black" points="1306.18,-48 1306.18,-16 "/>
<polyline fill="none" stroke="black" points="1306.18,-48 1310.18,-52 "/>
<text text-anchor="middle" x="1196" y="-28" font-family="Times,serif" font-size="20.00">copy_final</text>
</g>
<!-- t16&#45;&gt;t17 -->
<g id="edge28" class="edge"><title>t16&#45;&gt;t17</title>
<path fill="none" stroke="#0044a0" d="M1196,-73.8665C1196,-69.8921 1196,-65.942 1196,-62.1676"/>
<polygon fill="#0044a0" stroke="#0044a0" points="1199.5,-62.1213 1196,-52.1214 1192.5,-62.1214 1199.5,-62.1213"/>
</g>
</g>
</svg>
