<svg xmlns="http://www.w3.org/2000/svg" xmlns:xlink="http://www.w3.org/1999/xlink" width="1350" height="581.04"><rect width="1350" height="581.04" rx="5" ry="5" class="a"/><svg y="0%" x="0%"><circle cx="20" cy="20" r="6" fill="#ff5f58"/><circle cx="40" cy="20" r="6" fill="#ffbd2e"/><circle cx="60" cy="20" r="6" fill="#18c132"/></svg><svg height="521.04" viewBox="0 0 131 52.104" width="1310" x="15" xmlns="http://www.w3.org/2000/svg" xmlns:xlink="http://www.w3.org/1999/xlink" y="50"><style>@keyframes n{0%{transform:translateX(0)}1.2%{transform:translateX(-262px)}6.8%{transform:translateX(-393px)}7.7%{transform:translateX(-524px)}8.7%{transform:translateX(-655px)}9.2%{transform:translateX(-786px)}10.6%{transform:translateX(-917px)}10.9%{transform:translateX(-1048px)}11.4%{transform:translateX(-1179px)}11.7%{transform:translateX(-1310px)}12.1%{transform:translateX(-1441px)}17.7%{transform:translateX(-1572px)}18.5%{transform:translateX(-1703px)}19.4%{transform:translateX(-1834px)}20%{transform:translateX(-1965px)}21%{transform:translateX(-2096px)}21.2%{transform:translateX(-2227px)}23.6%{transform:translateX(-2358px)}24.1%{transform:translateX(-2489px)}24.6%{transform:translateX(-2620px)}25.6%{transform:translateX(-2751px)}25.7%{transform:translateX(-2882px)}26.2%{transform:translateX(-3013px)}31.9%{transform:translateX(-3144px)}33%{transform:translateX(-3275px)}33.4%{transform:translateX(-3406px)}34.2%{transform:translateX(-3537px)}39.3%{transform:translateX(-3668px)}42.4%{transform:translateX(-3799px)}43.7%{transform:translateX(-3930px)}44.3%{transform:translateX(-4061px)}48.2%{transform:translateX(-4192px)}49%{transform:translateX(-4323px)}49.8%{transform:translateX(-4454px)}50.7%{transform:translateX(-4585px)}51.5%{transform:translateX(-4716px)}52.2%{transform:translateX(-4847px)}53.8%{transform:translateX(-4978px)}56.6%{transform:translateX(-5109px)}57%{transform:translateX(-5240px)}57.6%{transform:translateX(-5371px)}59%{transform:translateX(-5502px)}64.6%{transform:translateX(-5633px)}65.5%{transform:translateX(-6288px)}66.5%{transform:translateX(-6419px)}69.6%{transform:translateX(-6550px)}71%{transform:translateX(-6681px)}74.3%{transform:translateX(-6812px)}80%{transform:translateX(-6943px)}80.2%{transform:translateX(-7074px)}85.8%{transform:translateX(-7205px)}86.4%{transform:translateX(-7336px)}87.7%{transform:translateX(-7467px)}87.8%{transform:translateX(-7598px)}93.4%{transform:translateX(-7860px)}93.5%{transform:translateX(-7991px)}93.6%{transform:translateX(-8122px)}94.3%{transform:translateX(-8253px)}to{transform:translateX(-8384px)}}.a{fill:#282d35}.f,.g,.h{fill:#b9c0cb;white-space:pre}.g,.h{fill:#005fd7}.h{fill:#555}.i{fill:#00afff}.i,.j,.k,.p{white-space:pre}.j{fill:#00afff;text-decoration:underline}.k,.p{fill:#dbab79}.p{fill:red}</style><g font-family="Monaco,Consolas,Menlo,'Bitstream Vera Sans Mono','Powerline Symbols',monospace" font-size="1.67"><defs><symbol id="1"><text y="1.67" class="f">&gt;</text></symbol><symbol id="2"><text y="1.67" class="f">&gt;</text><text x="2.004" y="1.67" class="g">ocrmypdf</text><text x="11.022" y="1.67" class="h">multipage.pdf</text><text x="25.05" y="1.67" class="h">multipage_with_ocr.pdf</text></symbol><symbol id="3"><text y="1.67" class="f">&gt;</text><text x="2.004" y="1.67" class="g">ocrmypdf</text><text x="11.022" y="1.67" class="i">--skip-text</text></symbol><symbol id="4"><text y="1.67" class="f">&gt;</text><text x="2.004" y="1.67" class="g">ocrmypdf</text><text x="11.022" y="1.67" class="i">--skip-text</text><text x="23.046" y="1.67" class="j">multipage.pdf</text><text x="37.074" y="1.67" class="j">multipage.pdf</text></symbol><symbol id="5"><text y="1.67" class="f">&gt;</text><text x="2.004" y="1.67" class="g">ocrmypdf</text><text x="11.022" y="1.67" class="i">--skip-text</text><text x="23.046" y="1.67" class="j">multipage.pdf</text><text x="37.074" y="1.67" class="i">multipage_ocr.pdf</text></symbol><symbol id="6"><text y="1.67" class="f">Scanning</text><text x="9.018" y="1.67" class="f">contents:</text><text x="19.038" y="1.67" class="f">100%|█████████████████████████████████████████████████████████████████████████|</text><text x="99.198" y="1.67" class="f">6/6</text><text x="103.206" y="1.67" class="f">[00:00&lt;00:00,</text><text x="117.234" y="1.67" class="f">1270.68page/s]</text></symbol><symbol id="7"><text y="1.67" class="f">Start</text><text x="6.012" y="1.67" class="f">processing</text><text x="17.034" y="1.67" class="f">6</text><text x="19.038" y="1.67" class="f">pages</text><text x="25.05" y="1.67" class="f">concurrently</text></symbol><symbol id="8"><text y="1.67" class="f">OCR:</text><text x="7.014" y="1.67" class="f">0%|</text><text x="103.206" y="1.67" class="f">|</text><text x="105.21" y="1.67" class="f">0.0/6.0</text><text x="113.226" y="1.67" class="f">[00:00&lt;?,</text><text x="123.246" y="1.67" class="f">?page/s]</text></symbol><symbol id="9"><text x="4.008" y="1.67" class="f">4</text><text x="6.012" y="1.67" class="f">skipping</text><text x="15.03" y="1.67" class="f">all</text><text x="19.038" y="1.67" class="f">processing</text><text x="30.06" y="1.67" class="f">on</text><text x="33.066" y="1.67" class="f">this</text><text x="38.076" y="1.67" class="f">page</text></symbol><symbol id="10"><text y="1.67" class="f">OCR:</text><text x="5.01" y="1.67" class="f">100%|█████████████████████████████████████████████████████████████████████████████████████|</text><text x="97.194" y="1.67" class="f">6.0/6.0</text><text x="105.21" y="1.67" class="f">[00:06&lt;00:00,</text><text x="120.24" y="1.67" class="f">1.09s/page]</text></symbol><symbol id="11"><text y="1.67" class="f">Postprocessing...</text></symbol><symbol id="12"><text y="1.67" class="f">PDF/A</text><text x="6.012" y="1.67" class="f">conversion:</text><text x="18.036" y="1.67" class="f">100%|████████████████████████████████████████████████████████████████████████████|</text><text x="101.202" y="1.67" class="f">6/6</text><text x="105.21" y="1.67" class="f">[00:02&lt;00:00,</text><text x="120.24" y="1.67" class="f">2.71page/s]</text></symbol><symbol id="13"><text y="1.67" class="k">Some</text><text x="5.01" y="1.67" class="k">input</text><text x="11.022" y="1.67" class="k">metadata</text><text x="20.04" y="1.67" class="k">could</text><text x="26.052" y="1.67" class="k">not</text><text x="30.06" y="1.67" class="k">be</text><text x="33.066" y="1.67" class="k">copied</text><text x="40.08" y="1.67" class="k">because</text><text x="48.096" y="1.67" class="k">it</text><text x="51.102" y="1.67" class="k">is</text><text x="54.108" y="1.67" class="k">not</text><text x="58.116" y="1.67" class="k">permitted</text><text x="68.136" y="1.67" class="k">in</text><text x="71.142" y="1.67" class="k">PDF/A.</text><text x="78.156" y="1.67" class="k">You</text><text x="82.164" y="1.67" class="k">may</text><text x="86.172" y="1.67" class="k">wish</text><text x="91.182" y="1.67" class="k">to</text><text x="94.188" y="1.67" class="k">examine</text><text x="102.204" y="1.67" class="k">the</text><text x="106.212" y="1.67" class="k">output</text><text x="113.226" y="1.67" class="k">PDF&apos;s</text><text x="119.238" y="1.67" class="k">XMP</text><text x="123.246" y="1.67" class="k">metadata</text></symbol><symbol id="14"><text y="1.67" class="k">.</text></symbol><symbol id="15"><text y="1.67" class="f">Recompressing</text><text x="14.028" y="1.67" class="f">JPEGs:</text><text x="21.042" y="1.67" class="f">0image</text><text x="28.056" y="1.67" class="f">[00:00,</text><text x="36.072" y="1.67" class="f">?image/s]</text></symbol><symbol id="16"><text y="1.67" class="f">Deflating</text><text x="10.02" y="1.67" class="f">JPEGs:</text><text x="17.034" y="1.67" class="f">100%|███████████████████████████████████████████████████████████████████████████|</text><text x="99.198" y="1.67" class="f">4/4</text><text x="103.206" y="1.67" class="f">[00:00&lt;00:00,</text><text x="117.234" y="1.67" class="f">238.28image/s]</text></symbol><symbol id="17"><text y="1.67" class="f">JBIG2:</text><text x="7.014" y="1.67" class="f">0item</text><text x="13.026" y="1.67" class="f">[00:00,</text><text x="21.042" y="1.67" class="f">?item/s]</text></symbol><symbol id="18"><text y="1.67" class="f">Image</text><text x="6.012" y="1.67" class="f">optimization</text><text x="19.038" y="1.67" class="f">ratio:</text><text x="26.052" y="1.67" class="f">1.01</text><text x="31.062" y="1.67" class="f">savings:</text><text x="40.08" y="1.67" class="f">1.3%</text></symbol><symbol id="19"><text y="1.67" class="f">Total</text><text x="6.012" y="1.67" class="f">file</text><text x="11.022" y="1.67" class="f">size</text><text x="16.032" y="1.67" class="f">ratio:</text><text x="23.046" y="1.67" class="f">1.02</text><text x="28.056" y="1.67" class="f">savings:</text><text x="37.074" y="1.67" class="f">1.6%</text></symbol><symbol id="20"><text y="1.67" class="f">Output</text><text x="7.014" y="1.67" class="f">file</text><text x="12.024" y="1.67" class="f">is</text><text x="15.03" y="1.67" class="f">a</text><text x="17.034" y="1.67" class="f">PDF/A-2B</text><text x="26.052" y="1.67" class="f">(as</text><text x="30.06" y="1.67" class="f">expected)</text></symbol><symbol id="a"><path fill="transparent" d="M0 0h131v24H0z"/></symbol><symbol id="b"><path fill="#6f7683" d="M0 0h1.102v2.171H0z"/></symbol></defs><path class="a" d="M0 0h131v52.104H0z"/><g style="animation-duration:8.862206s;animation-iteration-count:infinite;animation-name:n;animation-timing-function:steps(1,end)"><svg width="8515"><svg><use xlink:href="#a"/><use xlink:href="#b" x="-.004"/></svg><svg x="131"><use xlink:href="#a"/><use xlink:href="#b" x="-.004"/></svg><svg x="262"><use xlink:href="#a"/><use xlink:href="#b" x="1.996"/><use xlink:href="#1"/></svg><svg x="393"><use xlink:href="#a"/><use xlink:href="#b" x="2.996"/><text y="1.67" class="f">&gt;</text><text x="2.004" y="1.67" class="p">o</text><text x="3.006" y="1.67" class="h">crmypdf</text><text x="11.022" y="1.67" class="h">multipage.pdf</text><text x="25.05" y="1.67" class="h">multipage_with_ocr.pdf</text></svg><svg x="524"><use xlink:href="#a"/><use xlink:href="#b" x="3.996"/><text y="1.67" class="f">&gt;</text><text x="2.004" y="1.67" class="p">oc</text><text x="4.008" y="1.67" class="h">rmypdf</text><text x="11.022" y="1.67" class="h">multipage.pdf</text><text x="25.05" y="1.67" class="h">multipage_with_ocr.pdf</text></svg><svg x="655"><use xlink:href="#a"/><use xlink:href="#b" x="4.996"/><text y="1.67" class="f">&gt;</text><text x="2.004" y="1.67" class="p">ocr</text><text x="5.01" y="1.67" class="h">mypdf</text><text x="11.022" y="1.67" class="h">multipage.pdf</text><text x="25.05" y="1.67" class="h">multipage_with_ocr.pdf</text></svg><svg x="786"><use xlink:href="#a"/><use xlink:href="#b" x="5.996"/><text y="1.67" class="f">&gt;</text><text x="2.004" y="1.67" class="p">ocrm</text><text x="6.012" y="1.67" class="h">ypdf</text><text x="11.022" y="1.67" class="h">multipage.pdf</text><text x="25.05" y="1.67" class="h">multipage_with_ocr.pdf</text></svg><svg x="917"><use xlink:href="#a"/><use xlink:href="#b" x="6.996"/><text y="1.67" class="f">&gt;</text><text x="2.004" y="1.67" class="p">ocrmy</text><text x="7.014" y="1.67" class="h">pdf</text><text x="11.022" y="1.67" class="h">multipage.pdf</text><text x="25.05" y="1.67" class="h">multipage_with_ocr.pdf</text></svg><svg x="1048"><use xlink:href="#a"/><use xlink:href="#b" x="7.996"/><text y="1.67" class="f">&gt;</text><text x="2.004" y="1.67" class="p">ocrmyp</text><text x="8.016" y="1.67" class="h">df</text><text x="11.022" y="1.67" class="h">multipage.pdf</text><text x="25.05" y="1.67" class="h">multipage_with_ocr.pdf</text></svg><svg x="1179"><use xlink:href="#a"/><use xlink:href="#b" x="8.996"/><text y="1.67" class="f">&gt;</text><text x="2.004" y="1.67" class="p">ocrmypd</text><text x="9.018" y="1.67" class="h">f</text><text x="11.022" y="1.67" class="h">multipage.pdf</text><text x="25.05" y="1.67" class="h">multipage_with_ocr.pdf</text></svg><svg x="1310"><use xlink:href="#a"/><use xlink:href="#b" x="9.996"/><use xlink:href="#2"/></svg><svg x="1441"><use xlink:href="#a"/><use xlink:href="#b" x="10.996"/><use xlink:href="#2"/></svg><svg x="1572"><use xlink:href="#a"/><use xlink:href="#b" x="11.996"/><text y="1.67" class="f">&gt;</text><text x="2.004" y="1.67" class="g">ocrmypdf</text><text x="11.022" y="1.67" class="i">-</text><text x="12.024" y="1.67" class="h">-version</text></svg><svg x="1703"><use xlink:href="#a"/><use xlink:href="#b" x="12.996"/><text y="1.67" class="f">&gt;</text><text x="2.004" y="1.67" class="g">ocrmypdf</text><text x="11.022" y="1.67" class="i">--</text><text x="13.026" y="1.67" class="h">version</text></svg><svg x="1834"><use xlink:href="#a"/><use xlink:href="#b" x="13.996"/><text y="1.67" class="f">&gt;</text><text x="2.004" y="1.67" class="g">ocrmypdf</text><text x="11.022" y="1.67" class="i">--s</text></svg><svg x="1965"><use xlink:href="#a"/><use xlink:href="#b" x="14.996"/><text y="1.67" class="f">&gt;</text><text x="2.004" y="1.67" class="g">ocrmypdf</text><text x="11.022" y="1.67" class="i">--sk</text></svg><svg x="2096"><use xlink:href="#a"/><use xlink:href="#b" x="15.996"/><text y="1.67" class="f">&gt;</text><text x="2.004" y="1.67" class="g">ocrmypdf</text><text x="11.022" y="1.67" class="i">--ski</text></svg><svg x="2227"><use xlink:href="#a"/><use xlink:href="#b" x="16.996"/><text y="1.67" class="f">&gt;</text><text x="2.004" y="1.67" class="g">ocrmypdf</text><text x="11.022" y="1.67" class="i">--skip</text></svg><svg x="2358"><use xlink:href="#a"/><use xlink:href="#b" x="17.996"/><text y="1.67" class="f">&gt;</text><text x="2.004" y="1.67" class="g">ocrmypdf</text><text x="11.022" y="1.67" class="i">--skip-</text></svg><svg x="2489"><use xlink:href="#a"/><use xlink:href="#b" x="18.996"/><text y="1.67" class="f">&gt;</text><text x="2.004" y="1.67" class="g">ocrmypdf</text><text x="11.022" y="1.67" class="i">--skip-t</text></svg><svg x="2620"><use xlink:href="#a"/><use xlink:href="#b" x="19.996"/><text y="1.67" class="f">&gt;</text><text x="2.004" y="1.67" class="g">ocrmypdf</text><text x="11.022" y="1.67" class="i">--skip-te</text></svg><svg x="2751"><use xlink:href="#a"/><use xlink:href="#b" x="20.996"/><text y="1.67" class="f">&gt;</text><text x="2.004" y="1.67" class="g">ocrmypdf</text><text x="11.022" y="1.67" class="i">--skip-tex</text></svg><svg x="2882"><use xlink:href="#a"/><use xlink:href="#b" x="21.996"/><use xlink:href="#3"/></svg><svg x="3013"><use xlink:href="#a"/><use xlink:href="#b" x="22.996"/><use xlink:href="#3"/></svg><svg x="3144"><use xlink:href="#a"/><use xlink:href="#b" x="23.996"/><text y="1.67" class="f">&gt;</text><text x="2.004" y="1.67" class="g">ocrmypdf</text><text x="11.022" y="1.67" class="i">--skip-text</text><text x="23.046" y="1.67" class="j">m</text><text x="24.048" y="1.67" class="h">asks.pdf</text></svg><svg x="3275"><use xlink:href="#a"/><use xlink:href="#b" x="24.996"/><text y="1.67" class="f">&gt;</text><text x="2.004" y="1.67" class="g">ocrmypdf</text><text x="11.022" y="1.67" class="i">--skip-text</text><text x="23.046" y="1.67" class="j">mu</text><text x="25.05" y="1.67" class="h">ltipage.pdf</text></svg><svg x="3406"><use xlink:href="#a"/><use xlink:href="#b" x="25.996"/><text y="1.67" class="f">&gt;</text><text x="2.004" y="1.67" class="g">ocrmypdf</text><text x="11.022" y="1.67" class="i">--skip-text</text><text x="23.046" y="1.67" class="j">mul</text><text x="26.052" y="1.67" class="h">tipage.pdf</text></svg><svg x="3537"><use xlink:href="#a"/><use xlink:href="#b" x="26.996"/><text y="1.67" class="f">&gt;</text><text x="2.004" y="1.67" class="g">ocrmypdf</text><text x="11.022" y="1.67" class="i">--skip-text</text><text x="23.046" y="1.67" class="j">mult</text><text x="27.054" y="1.67" class="h">ipage.pdf</text></svg><svg x="3668"><use xlink:href="#a"/><use xlink:href="#b" x="36.996"/><text y="1.67" class="f">&gt;</text><text x="2.004" y="1.67" class="g">ocrmypdf</text><text x="11.022" y="1.67" class="i">--skip-text</text><text x="23.046" y="1.67" class="j">multipage.pdf</text></svg><svg x="3799"><use xlink:href="#a"/><use xlink:href="#b" x="37.996"/><text y="1.67" class="f">&gt;</text><text x="2.004" y="1.67" class="g">ocrmypdf</text><text x="11.022" y="1.67" class="i">--skip-text</text><text x="23.046" y="1.67" class="j">multipage.pdf</text><text x="37.074" y="1.67" class="j">m</text><text x="38.076" y="1.67" class="h">asks.pdf</text></svg><svg x="3930"><use xlink:href="#a"/><use xlink:href="#b" x="38.996"/><text y="1.67" class="f">&gt;</text><text x="2.004" y="1.67" class="g">ocrmypdf</text><text x="11.022" y="1.67" class="i">--skip-text</text><text x="23.046" y="1.67" class="j">multipage.pdf</text><text x="37.074" y="1.67" class="j">mu</text><text x="39.078" y="1.67" class="h">ltipage.pdf</text></svg><svg x="4061"><use xlink:href="#a"/><use xlink:href="#b" x="39.996"/><text y="1.67" class="f">&gt;</text><text x="2.004" y="1.67" class="g">ocrmypdf</text><text x="11.022" y="1.67" class="i">--skip-text</text><text x="23.046" y="1.67" class="j">multipage.pdf</text><text x="37.074" y="1.67" class="j">mul</text><text x="40.08" y="1.67" class="h">tipage.pdf</text></svg><svg x="4192"><use xlink:href="#a"/><use xlink:href="#b" x="50.996"/><use xlink:href="#4"/></svg><svg x="4323"><use xlink:href="#a"/><use xlink:href="#b" x="49.996"/><use xlink:href="#4"/></svg><svg x="4454"><use xlink:href="#a"/><use xlink:href="#b" x="48.996"/><use xlink:href="#4"/></svg><svg x="4585"><use xlink:href="#a"/><use xlink:href="#b" x="47.996"/><use xlink:href="#4"/></svg><svg x="4716"><use xlink:href="#a"/><use xlink:href="#b" x="46.996"/><use xlink:href="#4"/></svg><svg x="4847"><use xlink:href="#a"/><use xlink:href="#b" x="45.996"/><use xlink:href="#4"/></svg><svg x="4978"><use xlink:href="#a"/><use xlink:href="#b" x="46.996"/><text y="1.67" class="f">&gt;</text><text x="2.004" y="1.67" class="g">ocrmypdf</text><text x="11.022" y="1.67" class="i">--skip-text</text><text x="23.046" y="1.67" class="j">multipage.pdf</text><text x="37.074" y="1.67" class="i">multipage_.pdf</text></svg><svg x="5109"><use xlink:href="#a"/><use xlink:href="#b" x="47.996"/><text y="1.67" class="f">&gt;</text><text x="2.004" y="1.67" class="g">ocrmypdf</text><text x="11.022" y="1.67" class="i">--skip-text</text><text x="23.046" y="1.67" class="j">multipage.pdf</text><text x="37.074" y="1.67" class="i">multipage_o.pdf</text></svg><svg x="5240"><use xlink:href="#a"/><use xlink:href="#b" x="48.996"/><text y="1.67" class="f">&gt;</text><text x="2.004" y="1.67" class="g">ocrmypdf</text><text x="11.022" y="1.67" class="i">--skip-text</text><text x="23.046" y="1.67" class="j">multipage.pdf</text><text x="37.074" y="1.67" class="i">multipage_oc.pdf</text></svg><svg x="5371"><use xlink:href="#a"/><use xlink:href="#b" x="49.996"/><use xlink:href="#5"/></svg><svg x="5502"><use xlink:href="#a"/><use xlink:href="#b" x="54.996"/><use xlink:href="#5"/></svg><svg x="5633"><use xlink:href="#a"/><use xlink:href="#b" x="-.004" y="2.146"/><use xlink:href="#5"/></svg><svg x="5764"><use xlink:href="#a"/><use xlink:href="#b" x="130.996" y="2.146"/><use xlink:href="#5"/><text y="3.841" class="f">Scanning</text><text x="9.018" y="3.841" class="f">contents:</text><text x="21.042" y="3.841" class="f">0%|</text><text x="107.214" y="3.841" class="f">|</text><text x="109.218" y="3.841" class="f">0/6</text><text x="113.226" y="3.841" class="f">[00:00&lt;?,</text><text x="123.246" y="3.841" class="f">?page/s]</text></svg><svg x="5895"><use xlink:href="#a"/><use xlink:href="#b" x="-.004" y="4.317"/><use xlink:href="#5"/><use xlink:href="#6" y="2.171"/></svg><svg x="6026"><use xlink:href="#a"/><use xlink:href="#b" x="-.004" y="6.488"/><use xlink:href="#5"/><use xlink:href="#6" y="2.171"/><use xlink:href="#7" y="4.342"/></svg><svg x="6157"><use xlink:href="#a"/><use xlink:href="#b" x="130.996" y="6.488"/><use xlink:href="#5"/><use xlink:href="#6" y="2.171"/><use xlink:href="#7" y="4.342"/><use xlink:href="#8" y="6.513"/></svg><svg x="6288"><use xlink:href="#a"/><use xlink:href="#b" x="130.996" y="8.659"/><use xlink:href="#5"/><use xlink:href="#6" y="2.171"/><use xlink:href="#7" y="4.342"/><use xlink:href="#9" y="6.513"/><use xlink:href="#8" y="8.684"/></svg><svg x="6419"><use xlink:href="#a"/><use xlink:href="#b" x="130.996" y="8.659"/><use xlink:href="#5"/><use xlink:href="#6" y="2.171"/><use xlink:href="#7" y="4.342"/><use xlink:href="#9" y="6.513"/><text y="10.354" class="f">OCR:</text><text x="6.012" y="10.354" class="f">25%|█████████████████████▎</text><text x="95.19" y="10.354" class="f">|</text><text x="97.194" y="10.354" class="f">1.5/6.0</text><text x="105.21" y="10.354" class="f">[00:00&lt;00:00,</text><text x="120.24" y="10.354" class="f">8.12page/s]</text></svg><svg x="6550"><use xlink:href="#a"/><use xlink:href="#b" x="130.996" y="8.659"/><use xlink:href="#5"/><use xlink:href="#6" y="2.171"/><use xlink:href="#7" y="4.342"/><use xlink:href="#9" y="6.513"/><text y="10.354" class="f">OCR:</text><text x="6.012" y="10.354" class="f">42%|███████████████████████████████████▍</text><text x="95.19" y="10.354" class="f">|</text><text x="97.194" y="10.354" class="f">2.5/6.0</text><text x="105.21" y="10.354" class="f">[00:00&lt;00:01,</text><text x="120.24" y="10.354" class="f">3.05page/s]</text></svg><svg x="6681"><use xlink:href="#a"/><use xlink:href="#b" x="130.996" y="8.659"/><use xlink:href="#5"/><use xlink:href="#6" y="2.171"/><use xlink:href="#7" y="4.342"/><use xlink:href="#9" y="6.513"/><text y="10.354" class="f">OCR:</text><text x="6.012" y="10.354" class="f">58%|█████████████████████████████████████████████████▌</text><text x="95.19" y="10.354" class="f">|</text><text x="97.194" y="10.354" class="f">3.5/6.0</text><text x="105.21" y="10.354" class="f">[00:00&lt;00:00,</text><text x="120.24" y="10.354" class="f">3.39page/s]</text></svg><svg x="6812"><use xlink:href="#a"/><use xlink:href="#b" x="130.996" y="8.659"/><use xlink:href="#5"/><use xlink:href="#6" y="2.171"/><use xlink:href="#7" y="4.342"/><use xlink:href="#9" y="6.513"/><text y="10.354" class="f">OCR:</text><text x="6.012" y="10.354" class="f">75%|███████████████████████████████████████████████████████████████▊</text><text x="95.19" y="10.354" class="f">|</text><text x="97.194" y="10.354" class="f">4.5/6.0</text><text x="105.21" y="10.354" class="f">[00:01&lt;00:00,</text><text x="120.24" y="10.354" class="f">2.49page/s]</text></svg><svg x="6943"><use xlink:href="#a"/><use xlink:href="#b" x="-.004" y="13.001"/><use xlink:href="#5"/><use xlink:href="#6" y="2.171"/><use xlink:href="#7" y="4.342"/><use xlink:href="#9" y="6.513"/><use xlink:href="#10" y="8.684"/><use xlink:href="#11" y="10.855"/></svg><svg x="7074"><use xlink:href="#a"/><use xlink:href="#b" x="130.996" y="13.001"/><use xlink:href="#5"/><use xlink:href="#6" y="2.171"/><use xlink:href="#7" y="4.342"/><use xlink:href="#9" y="6.513"/><use xlink:href="#10" y="8.684"/><use xlink:href="#11" y="10.855"/><text y="14.696" class="f">PDF/A</text><text x="6.012" y="14.696" class="f">conversion:</text><text x="20.04" y="14.696" class="f">0%|</text><text x="107.214" y="14.696" class="f">|</text><text x="109.218" y="14.696" class="f">0/6</text><text x="113.226" y="14.696" class="f">[00:00&lt;?,</text><text x="123.246" y="14.696" class="f">?page/s]</text></svg><svg x="7205"><use xlink:href="#a"/><use xlink:href="#b" x="130.996" y="13.001"/><use xlink:href="#5"/><use xlink:href="#6" y="2.171"/><use xlink:href="#7" y="4.342"/><use xlink:href="#9" y="6.513"/><use xlink:href="#10" y="8.684"/><use xlink:href="#11" y="10.855"/><text y="14.696" class="f">PDF/A</text><text x="6.012" y="14.696" class="f">conversion:</text><text x="19.038" y="14.696" class="f">50%|██████████████████████████████████████</text><text x="99.198" y="14.696" class="f">|</text><text x="101.202" y="14.696" class="f">3/6</text><text x="105.21" y="14.696" class="f">[00:01&lt;00:01,</text><text x="120.24" y="14.696" class="f">1.61page/s]</text></svg><svg x="7336"><use xlink:href="#a"/><use xlink:href="#b" x="130.996" y="13.001"/><use xlink:href="#5"/><use xlink:href="#6" y="2.171"/><use xlink:href="#7" y="4.342"/><use xlink:href="#9" y="6.513"/><use xlink:href="#10" y="8.684"/><use xlink:href="#11" y="10.855"/><text y="14.696" class="f">PDF/A</text><text x="6.012" y="14.696" class="f">conversion:</text><text x="19.038" y="14.696" class="f">83%|███████████████████████████████████████████████████████████████▎</text><text x="99.198" y="14.696" class="f">|</text><text x="101.202" y="14.696" class="f">5/6</text><text x="105.21" y="14.696" class="f">[00:01&lt;00:00,</text><text x="120.24" y="14.696" class="f">2.90page/s]</text></svg><svg x="7467"><use xlink:href="#a"/><use xlink:href="#b" x="-.004" y="15.172"/><use xlink:href="#5"/><use xlink:href="#6" y="2.171"/><use xlink:href="#7" y="4.342"/><use xlink:href="#9" y="6.513"/><use xlink:href="#10" y="8.684"/><use xlink:href="#11" y="10.855"/><use xlink:href="#12" y="13.026"/></svg><svg x="7598"><use xlink:href="#a"/><use xlink:href="#b" x="-.004" y="19.514"/><use xlink:href="#5"/><use xlink:href="#6" y="2.171"/><use xlink:href="#7" y="4.342"/><use xlink:href="#9" y="6.513"/><use xlink:href="#10" y="8.684"/><use xlink:href="#11" y="10.855"/><use xlink:href="#12" y="13.026"/><use xlink:href="#13" y="15.197"/><use xlink:href="#14" y="17.368"/></svg><svg x="7729"><use xlink:href="#a"/><use xlink:href="#b" x="-.004" y="23.856"/><use xlink:href="#5"/><use xlink:href="#6" y="2.171"/><use xlink:href="#7" y="4.342"/><use xlink:href="#9" y="6.513"/><use xlink:href="#10" y="8.684"/><use xlink:href="#11" y="10.855"/><use xlink:href="#12" y="13.026"/><use xlink:href="#13" y="15.197"/><use xlink:href="#14" y="17.368"/><use xlink:href="#15" y="19.539"/><use xlink:href="#16" y="21.71"/></svg><svg x="7860"><use xlink:href="#a"/><use xlink:href="#b" x="-.004" y="26.027"/><use xlink:href="#5"/><use xlink:href="#6" y="2.171"/><use xlink:href="#7" y="4.342"/><use xlink:href="#9" y="6.513"/><use xlink:href="#10" y="8.684"/><use xlink:href="#11" y="10.855"/><use xlink:href="#12" y="13.026"/><use xlink:href="#13" y="15.197"/><use xlink:href="#14" y="17.368"/><use xlink:href="#15" y="19.539"/><use xlink:href="#16" y="21.71"/><use xlink:href="#17" y="23.881"/></svg><svg x="7991"><use xlink:href="#a"/><use xlink:href="#b" x="-.004" y="30.369"/><use xlink:href="#5"/><use xlink:href="#6" y="2.171"/><use xlink:href="#7" y="4.342"/><use xlink:href="#9" y="6.513"/><use xlink:href="#10" y="8.684"/><use xlink:href="#11" y="10.855"/><use xlink:href="#12" y="13.026"/><use xlink:href="#13" y="15.197"/><use xlink:href="#14" y="17.368"/><use xlink:href="#15" y="19.539"/><use xlink:href="#16" y="21.71"/><use xlink:href="#17" y="23.881"/><use xlink:href="#18" y="26.052"/><use xlink:href="#19" y="28.223"/></svg><svg x="8122"><use xlink:href="#a"/><use xlink:href="#b" x="-.004" y="32.54"/><use xlink:href="#5"/><use xlink:href="#6" y="2.171"/><use xlink:href="#7" y="4.342"/><use xlink:href="#9" y="6.513"/><use xlink:href="#10" y="8.684"/><use xlink:href="#11" y="10.855"/><use xlink:href="#12" y="13.026"/><use xlink:href="#13" y="15.197"/><use xlink:href="#14" y="17.368"/><use xlink:href="#15" y="19.539"/><use xlink:href="#16" y="21.71"/><use xlink:href="#17" y="23.881"/><use xlink:href="#18" y="26.052"/><use xlink:href="#19" y="28.223"/><use xlink:href="#20" y="30.394"/></svg><svg x="8253"><use xlink:href="#a"/><use xlink:href="#b" x="1.996" y="32.54"/><use xlink:href="#5"/><use xlink:href="#6" y="2.171"/><use xlink:href="#7" y="4.342"/><use xlink:href="#9" y="6.513"/><use xlink:href="#10" y="8.684"/><use xlink:href="#11" y="10.855"/><use xlink:href="#12" y="13.026"/><use xlink:href="#13" y="15.197"/><use xlink:href="#14" y="17.368"/><use xlink:href="#15" y="19.539"/><use xlink:href="#16" y="21.71"/><use xlink:href="#17" y="23.881"/><use xlink:href="#18" y="26.052"/><use xlink:href="#19" y="28.223"/><use xlink:href="#20" y="30.394"/><use xlink:href="#1" y="32.565"/></svg><svg x="8384"><use xlink:href="#a"/><use xlink:href="#b" x="-.004" y="34.711"/><use xlink:href="#5"/><use xlink:href="#6" y="2.171"/><use xlink:href="#7" y="4.342"/><use xlink:href="#9" y="6.513"/><use xlink:href="#10" y="8.684"/><use xlink:href="#11" y="10.855"/><use xlink:href="#12" y="13.026"/><use xlink:href="#13" y="15.197"/><use xlink:href="#14" y="17.368"/><use xlink:href="#15" y="19.539"/><use xlink:href="#16" y="21.71"/><use xlink:href="#17" y="23.881"/><use xlink:href="#18" y="26.052"/><use xlink:href="#19" y="28.223"/><use xlink:href="#20" y="30.394"/><use xlink:href="#1" y="32.565"/></svg></svg></g></g></svg></svg>