<?xml version="1.0" encoding="UTF-8" standalone="no"?>
<svg
   width="256"
   height="256"
   viewBox="0 0 256 256.00001"
   version="1.1"
   xml:space="preserve"
   style="clip-rule:evenodd;fill-rule:evenodd;stroke-linecap:round;stroke-linejoin:round;stroke-miterlimit:1.5"
   id="svg270"
   sodipodi:docname="logo-square-256.svg"
   inkscape:export-filename="/home/jb/src/ocrmypdf/docs/images/logo-square.png"
   inkscape:export-xdpi="96"
   inkscape:export-ydpi="96"
   inkscape:version="1.1.2 (0a00cf5339, 2022-02-04)"
   xmlns:inkscape="http://www.inkscape.org/namespaces/inkscape"
   xmlns:sodipodi="http://sodipodi.sourceforge.net/DTD/sodipodi-0.dtd"
   xmlns="http://www.w3.org/2000/svg"
   xmlns:svg="http://www.w3.org/2000/svg"
   xmlns:rdf="http://www.w3.org/1999/02/22-rdf-syntax-ns#"
   xmlns:cc="http://creativecommons.org/ns#"
   xmlns:dc="http://purl.org/dc/elements/1.1/"
   xmlns:serif="http://www.serif.com/"><metadata
   id="metadata276"><rdf:RDF><cc:Work
       rdf:about=""><dc:format>image/svg+xml</dc:format><dc:type
         rdf:resource="http://purl.org/dc/dcmitype/StillImage" /></cc:Work></rdf:RDF></metadata><defs
   id="defs274" /><sodipodi:namedview
   pagecolor="#ffffff"
   bordercolor="#666666"
   borderopacity="1"
   objecttolerance="10"
   gridtolerance="10"
   guidetolerance="10"
   inkscape:pageopacity="0"
   inkscape:pageshadow="2"
   inkscape:window-width="2396"
   inkscape:window-height="1691"
   id="namedview272"
   showgrid="false"
   lock-margins="false"
   inkscape:zoom="2.0079523"
   inkscape:cx="189.74554"
   inkscape:cy="54.533168"
   inkscape:window-x="26"
   inkscape:window-y="23"
   inkscape:window-maximized="0"
   inkscape:current-layer="svg270"
   inkscape:pagecheckerboard="0"
   width="256px"
   fit-margin-top="0"
   fit-margin-left="0"
   fit-margin-right="0"
   fit-margin-bottom="0" />
    <g
   id="svg"
   transform="matrix(0.48534351,0,0,0.4057699,1.8106874,71.192214)">
        <rect
   x="0"
   y="0"
   width="520"
   height="280"
   style="fill:#ffffff"
   id="rect188" />
        <g
   transform="matrix(1.03522,0,0,1.23823,-69.7528,-83.422)"
   id="g267">
            <g
   transform="translate(243.977,20.0703)"
   id="g218">
                <g
   id="Page">
                    <g
   transform="matrix(0.961773,0,0,1.05962,6.19811,-3.01071)"
   id="g192">
                        <path
   d="m 328.5,97.682 c 0,-1.217 -0.517,-2.386 -1.444,-3.264 -7.03,-6.66 -37.614,-35.638 -44.828,-42.474 -0.977,-0.925 -2.327,-1.448 -3.738,-1.448 -13.997,0 -90.407,0 -111.151,0 -2.871,0 -5.198,2.113 -5.198,4.718 0,27.837 0,170.351 0,198.186 0,2.605 2.327,4.717 5.197,4.717 24.904,0 131.821,0 156.2,0 2.74,0 4.962,-2.016 4.962,-4.504 0,-24.345 0,-139.717 0,-155.931 z"
   style="fill:#fdfdfd;stroke:#333333;stroke-width:3.95px"
   id="path190" />
                    </g>
                    <g
   id="Dog-ear"
   serif:id="Dog ear"
   transform="translate(-4,2)">
                        <path
   d="m 277.072,48.496 v 45.352 c 0,1.324 0.526,2.593 1.462,3.529 0.936,0.936 2.205,1.462 3.529,1.462 12.485,0 44.078,0 44.078,0"
   style="fill:#f5f5f5;stroke:#333333;stroke-width:4px"
   id="path194" />
                    </g>
                </g>
                <g
   transform="translate(-29.6816,-0.395178)"
   id="g216">
                    <g
   transform="matrix(1.00243,0,0,1.11818,-144.72,-8.80181)"
   id="g200">
                        <path
   d="m 465.73,119.654 c 0,-2.049 -1.856,-3.713 -4.142,-3.713 H 310.259 c -2.286,0 -4.142,1.664 -4.142,3.713 v 63.454 c 0,2.049 1.856,3.713 4.142,3.713 h 151.329 c 2.286,0 4.142,-1.664 4.142,-3.713 z"
   style="fill:#f80000;stroke:#ffffff;stroke-width:3.77px"
   id="path198" />
                    </g>
                    <g
   transform="matrix(1.24571,0,0,1.35864,116.812,84.3924)"
   id="g214">
                        <g
   transform="matrix(64,0,0,64,42.1437,77.6203)"
   id="g204">
                            <path
   d="m 0.084,0 v -0.68 h 0.213 c 0.074,0 0.137,0.017 0.19,0.05 0.053,0.034 0.079,0.09 0.079,0.168 0,0.077 -0.028,0.134 -0.085,0.17 -0.057,0.037 -0.121,0.055 -0.193,0.055 H 0.213 V 0 Z m 0.209,-0.572 h -0.08 v 0.228 h 0.082 c 0.039,0 0.07,-0.009 0.094,-0.027 0.024,-0.017 0.037,-0.045 0.04,-0.083 0,-0.044 -0.012,-0.075 -0.036,-0.092 -0.024,-0.017 -0.057,-0.026 -0.1,-0.026 z"
   style="fill:#ffffff;fill-rule:nonzero"
   id="path202" />
                        </g>
                        <g
   transform="matrix(64,0,0,64,79.7117,77.6203)"
   id="g208">
                            <path
   d="M 0.332,0 H 0.084 v -0.68 h 0.252 c 0.105,0 0.182,0.032 0.233,0.095 0.051,0.063 0.076,0.144 0.076,0.241 0,0.105 -0.027,0.189 -0.082,0.251 C 0.508,-0.031 0.431,0 0.332,0 Z M 0.337,-0.57 H 0.213 v 0.461 H 0.33 c 0.055,0 0.099,-0.018 0.132,-0.054 C 0.495,-0.199 0.511,-0.259 0.511,-0.344 0.511,-0.415 0.497,-0.47 0.469,-0.51 0.441,-0.55 0.397,-0.57 0.337,-0.57 Z"
   style="fill:#ffffff;fill-rule:nonzero"
   id="path206" />
                        </g>
                        <g
   transform="matrix(64,0,0,64,123.424,77.6203)"
   id="g212">
                            <path
   d="M 0.405,-0.288 H 0.213 V 0 H 0.084 v -0.68 h 0.385 l 0.02,0.102 H 0.213 v 0.189 h 0.173 z"
   style="fill:#ffffff;fill-rule:nonzero"
   id="path210" />
                        </g>
                    </g>
                </g>
            </g>
            <g
   transform="matrix(1,0,0,1.52217,67.3796,10.7507)"
   id="g222">
                <rect
   x="23.500999"
   y="81.300003"
   width="162.30499"
   height="61.77"
   style="fill:#b4d5ff"
   id="rect220" />
            </g>
            <g
   transform="matrix(0.967536,0,0,0.961535,5.90498,47.9703)"
   id="g236">
                <g
   transform="matrix(90.4804,0,0,90.4804,82.6698,167.705)"
   id="g226">
                    <path
   d="m 0.057,-0.337 c 0,-0.105 0.027,-0.19 0.082,-0.257 0.055,-0.066 0.132,-0.1 0.231,-0.102 0.107,0 0.186,0.034 0.237,0.103 0.051,0.069 0.077,0.152 0.077,0.249 0,0.105 -0.027,0.191 -0.082,0.258 -0.055,0.067 -0.133,0.1 -0.232,0.1 C 0.264,0.014 0.185,-0.02 0.134,-0.089 0.083,-0.157 0.057,-0.24 0.057,-0.337 Z m 0.135,-0.001 c 0,0.071 0.014,0.13 0.043,0.175 0.029,0.045 0.073,0.068 0.134,0.068 0.055,0 0.098,-0.02 0.131,-0.061 0.033,-0.041 0.049,-0.103 0.049,-0.188 0,-0.071 -0.014,-0.129 -0.043,-0.174 -0.029,-0.045 -0.073,-0.068 -0.134,-0.068 -0.053,0 -0.097,0.022 -0.13,0.067 -0.033,0.045 -0.05,0.105 -0.05,0.181 z"
   style="fill:#333333;fill-rule:nonzero"
   id="path224" />
                </g>
                <g
   transform="matrix(90.4804,0,0,90.4804,147.906,167.705)"
   id="g230">
                    <path
   d="M 0.505,-0.557 C 0.473,-0.567 0.448,-0.574 0.429,-0.579 0.41,-0.583 0.388,-0.585 0.361,-0.585 c -0.054,0 -0.096,0.022 -0.125,0.066 -0.029,0.044 -0.044,0.104 -0.044,0.181 0,0.066 0.012,0.123 0.037,0.171 0.025,0.048 0.066,0.072 0.124,0.072 0.029,0 0.056,-0.003 0.081,-0.009 0.025,-0.006 0.047,-0.013 0.068,-0.022 L 0.551,-0.03 C 0.525,-0.017 0.494,-0.006 0.457,0.002 0.42,0.01 0.388,0.014 0.36,0.014 0.254,0.014 0.177,-0.02 0.129,-0.088 0.081,-0.156 0.057,-0.239 0.057,-0.337 c 0,-0.105 0.027,-0.19 0.08,-0.257 0.053,-0.067 0.129,-0.1 0.228,-0.1 0.02,0 0.048,0.003 0.083,0.01 0.035,0.007 0.068,0.018 0.097,0.034 z"
   style="fill:#333333;fill-rule:nonzero"
   id="path228" />
                </g>
                <g
   transform="matrix(90.4804,0,0,90.4804,199.751,167.705)"
   id="g234">
                    <path
   d="m 0.293,-0.572 h -0.08 v 0.208 h 0.082 c 0.039,0 0.071,-0.008 0.096,-0.024 0.025,-0.015 0.038,-0.041 0.038,-0.077 0,-0.038 -0.012,-0.065 -0.036,-0.082 -0.024,-0.017 -0.057,-0.025 -0.1,-0.025 z M 0.479,0 0.335,-0.26 C 0.328,-0.259 0.32,-0.259 0.312,-0.259 0.304,-0.258 0.296,-0.258 0.288,-0.258 H 0.213 V 0 H 0.084 v -0.68 h 0.213 c 0.074,0 0.137,0.017 0.19,0.051 0.053,0.034 0.079,0.087 0.079,0.158 0,0.042 -0.011,0.078 -0.032,0.108 -0.022,0.031 -0.05,0.054 -0.084,0.071 L 0.617,0 Z"
   style="fill:#333333;fill-rule:nonzero"
   id="path232" />
                </g>
            </g>
            <g
   transform="matrix(0.916882,0,0,1,121.475,-32.6535)"
   id="g246">
                <g
   transform="matrix(86.953,0,0,86.953,152.996,241.878)"
   id="g240">
                    <path
   d="M 0.479,-0.428 C 0.5,-0.451 0.527,-0.47 0.562,-0.484 c 0.034,-0.013 0.065,-0.02 0.092,-0.02 0.066,0 0.113,0.019 0.141,0.058 0.027,0.039 0.041,0.086 0.041,0.142 V 0 H 0.705 v -0.298 c 0,-0.031 -0.007,-0.054 -0.022,-0.071 -0.015,-0.016 -0.036,-0.024 -0.064,-0.024 -0.019,0 -0.038,0.005 -0.059,0.015 -0.021,0.01 -0.039,0.021 -0.056,0.034 0.001,0.007 0.001,0.013 0.002,0.02 0.001,0.007 0.001,0.013 0.001,0.02 V 0 H 0.376 v -0.298 c 0,-0.031 -0.007,-0.054 -0.022,-0.071 -0.015,-0.016 -0.036,-0.024 -0.063,-0.024 -0.017,0 -0.033,0.003 -0.05,0.01 -0.017,0.007 -0.034,0.016 -0.049,0.027 V 0 H 0.062 V -0.485 H 0.13 l 0.032,0.044 c 0.022,-0.02 0.049,-0.035 0.08,-0.047 0.031,-0.011 0.058,-0.016 0.083,-0.016 0.038,0 0.07,0.007 0.095,0.02 0.025,0.014 0.045,0.033 0.059,0.056 z"
   style="fill:#333333;fill-rule:nonzero"
   id="path238" />
                </g>
                <g
   transform="matrix(86.953,0,0,86.953,228.906,241.878)"
   id="g244">
                    <path
   d="M 0.156,0.023 0.179,-0.034 0.006,-0.467 0.14,-0.485 0.252,-0.191 0.358,-0.485 H 0.495 L 0.278,0.064 C 0.263,0.103 0.236,0.137 0.197,0.165 0.158,0.193 0.118,0.212 0.075,0.222 L 0.029,0.115 C 0.052,0.105 0.077,0.093 0.104,0.079 0.13,0.064 0.147,0.046 0.156,0.023 Z"
   style="fill:#333333;fill-rule:nonzero"
   id="path242" />
                </g>
            </g>
            <g
   id="Selectors"
   transform="matrix(0.965977,0,0,0.807602,67.3796,67.3718)">
                <g
   id="Right-selector"
   serif:id="Right selector">
                    <g
   transform="matrix(1.03522,0,0,1.23823,2.07044,0)"
   id="g250">
                        <path
   d="M 185.806,161.156 V 67.132"
   style="fill:none;stroke:#4c9fff;stroke-width:4px;stroke-linecap:butt"
   id="path248" />
                    </g>
                    <g
   transform="matrix(1.03522,0,0,1.23823,161.788,169.469)"
   id="g254">
                        <circle
   cx="31.523001"
   cy="34.313999"
   r="10.021"
   style="fill:#4c9fff;stroke:#4c9fff;stroke-width:4px;stroke-linecap:butt"
   id="circle252" />
                    </g>
                </g>
                <g
   id="Left-selector"
   serif:id="Left selector">
                    <g
   transform="matrix(1.03522,0,0,1.23823,-170.092,0)"
   id="g259">
                        <path
   d="M 185.806,161.156 V 67.132"
   style="fill:none;stroke:#4c9fff;stroke-width:4px;stroke-linecap:butt"
   id="path257" />
                    </g>
                    <g
   transform="matrix(1.03522,0,0,1.23823,-10.3742,28.2274)"
   id="g263">
                        <circle
   cx="31.523001"
   cy="34.313999"
   r="10.021"
   style="fill:#4c9fff;stroke:#4c9fff;stroke-width:4px;stroke-linecap:butt"
   id="circle261" />
                    </g>
                </g>
            </g>
        </g>
    </g>
</svg>
