<?xml version="1.0" encoding="UTF-8" standalone="no"?>
<!DOCTYPE svg PUBLIC "-//W3C//DTD SVG 1.1//EN" "http://www.w3.org/Graphics/SVG/1.1/DTD/svg11.dtd">
<svg width="100%" height="100%" viewBox="0 0 503 227" version="1.1" xmlns="http://www.w3.org/2000/svg" xmlns:xlink="http://www.w3.org/1999/xlink" xml:space="preserve" xmlns:serif="http://www.serif.com/" style="fill-rule:evenodd;clip-rule:evenodd;stroke-linecap:round;stroke-linejoin:round;stroke-miterlimit:1.5;">
    <g id="svg" transform="matrix(0.965977,0,0,0.807602,0,0)">
        <rect x="0" y="0" width="520" height="280" style="fill:white;"/>
        <g transform="matrix(1.03522,0,0,1.23823,-69.7528,-83.422)">
            <g transform="matrix(1,0,0,1,243.977,20.0703)">
                <g id="Page">
                    <g transform="matrix(0.961773,0,0,1.05962,6.19811,-3.01071)">
                        <path d="M328.5,97.682C328.5,96.465 327.983,95.296 327.056,94.418C320.026,87.758 289.442,58.78 282.228,51.944C281.251,51.019 279.901,50.496 278.49,50.496C264.493,50.496 188.083,50.496 167.339,50.496C164.468,50.496 162.141,52.609 162.141,55.214C162.141,83.051 162.141,225.565 162.141,253.4C162.141,256.005 164.468,258.117 167.338,258.117C192.242,258.117 299.159,258.117 323.538,258.117C326.278,258.117 328.5,256.101 328.5,253.613C328.5,229.268 328.5,113.896 328.5,97.682Z" style="fill:rgb(253,253,253);stroke:rgb(51,51,51);stroke-width:3.95px;"/>
                    </g>
                    <g id="Dog-ear" serif:id="Dog ear" transform="matrix(1,0,0,1,-4,2)">
                        <path d="M277.072,48.496L277.072,93.848C277.072,95.172 277.598,96.441 278.534,97.377C279.47,98.313 280.739,98.839 282.063,98.839C294.548,98.839 326.141,98.839 326.141,98.839" style="fill:rgb(245,245,245);stroke:rgb(51,51,51);stroke-width:4px;"/>
                    </g>
                </g>
                <g transform="matrix(1,0,0,1,-29.6816,-0.395178)">
                    <g transform="matrix(1.00243,0,0,1.11818,-144.72,-8.80181)">
                        <path d="M465.73,119.654C465.73,117.605 463.874,115.941 461.588,115.941L310.259,115.941C307.973,115.941 306.117,117.605 306.117,119.654L306.117,183.108C306.117,185.157 307.973,186.821 310.259,186.821L461.588,186.821C463.874,186.821 465.73,185.157 465.73,183.108L465.73,119.654Z" style="fill:rgb(248,0,0);stroke:white;stroke-width:3.77px;"/>
                    </g>
                    <g transform="matrix(1.24571,0,0,1.35864,116.812,84.3924)">
                        <g transform="matrix(64,0,0,64,42.1437,77.6203)">
                            <path d="M0.084,0L0.084,-0.68L0.297,-0.68C0.371,-0.68 0.434,-0.663 0.487,-0.63C0.54,-0.596 0.566,-0.54 0.566,-0.462C0.566,-0.385 0.538,-0.328 0.481,-0.292C0.424,-0.255 0.36,-0.237 0.288,-0.237L0.213,-0.237L0.213,0L0.084,0ZM0.293,-0.572L0.213,-0.572L0.213,-0.344L0.295,-0.344C0.334,-0.344 0.365,-0.353 0.389,-0.371C0.413,-0.388 0.426,-0.416 0.429,-0.454C0.429,-0.498 0.417,-0.529 0.393,-0.546C0.369,-0.563 0.336,-0.572 0.293,-0.572Z" style="fill:white;fill-rule:nonzero;"/>
                        </g>
                        <g transform="matrix(64,0,0,64,79.7117,77.6203)">
                            <path d="M0.332,0L0.084,0L0.084,-0.68L0.336,-0.68C0.441,-0.68 0.518,-0.648 0.569,-0.585C0.62,-0.522 0.645,-0.441 0.645,-0.344C0.645,-0.239 0.618,-0.155 0.563,-0.093C0.508,-0.031 0.431,0 0.332,0ZM0.337,-0.57L0.213,-0.57L0.213,-0.109L0.33,-0.109C0.385,-0.109 0.429,-0.127 0.462,-0.163C0.495,-0.199 0.511,-0.259 0.511,-0.344C0.511,-0.415 0.497,-0.47 0.469,-0.51C0.441,-0.55 0.397,-0.57 0.337,-0.57Z" style="fill:white;fill-rule:nonzero;"/>
                        </g>
                        <g transform="matrix(64,0,0,64,123.424,77.6203)">
                            <path d="M0.405,-0.288L0.213,-0.288L0.213,0L0.084,0L0.084,-0.68L0.469,-0.68L0.489,-0.578L0.213,-0.578L0.213,-0.389L0.386,-0.389L0.405,-0.288Z" style="fill:white;fill-rule:nonzero;"/>
                        </g>
                    </g>
                </g>
            </g>
            <g transform="matrix(1,0,0,1.52217,67.3796,10.7507)">
                <rect x="23.501" y="81.3" width="162.305" height="61.77" style="fill:rgb(180,213,255);"/>
            </g>
            <g transform="matrix(0.967536,0,0,0.961535,5.90498,47.9703)">
                <g transform="matrix(90.4804,0,0,90.4804,82.6698,167.705)">
                    <path d="M0.057,-0.337C0.057,-0.442 0.084,-0.527 0.139,-0.594C0.194,-0.66 0.271,-0.694 0.37,-0.696C0.477,-0.696 0.556,-0.662 0.607,-0.593C0.658,-0.524 0.684,-0.441 0.684,-0.344C0.684,-0.239 0.657,-0.153 0.602,-0.086C0.547,-0.019 0.469,0.014 0.37,0.014C0.264,0.014 0.185,-0.02 0.134,-0.089C0.083,-0.157 0.057,-0.24 0.057,-0.337ZM0.192,-0.338C0.192,-0.267 0.206,-0.208 0.235,-0.163C0.264,-0.118 0.308,-0.095 0.369,-0.095C0.424,-0.095 0.467,-0.115 0.5,-0.156C0.533,-0.197 0.549,-0.259 0.549,-0.344C0.549,-0.415 0.535,-0.473 0.506,-0.518C0.477,-0.563 0.433,-0.586 0.372,-0.586C0.319,-0.586 0.275,-0.564 0.242,-0.519C0.209,-0.474 0.192,-0.414 0.192,-0.338Z" style="fill:rgb(51,51,51);fill-rule:nonzero;"/>
                </g>
                <g transform="matrix(90.4804,0,0,90.4804,147.906,167.705)">
                    <path d="M0.505,-0.557C0.473,-0.567 0.448,-0.574 0.429,-0.579C0.41,-0.583 0.388,-0.585 0.361,-0.585C0.307,-0.585 0.265,-0.563 0.236,-0.519C0.207,-0.475 0.192,-0.415 0.192,-0.338C0.192,-0.272 0.204,-0.215 0.229,-0.167C0.254,-0.119 0.295,-0.095 0.353,-0.095C0.382,-0.095 0.409,-0.098 0.434,-0.104C0.459,-0.11 0.481,-0.117 0.502,-0.126L0.551,-0.03C0.525,-0.017 0.494,-0.006 0.457,0.002C0.42,0.01 0.388,0.014 0.36,0.014C0.254,0.014 0.177,-0.02 0.129,-0.088C0.081,-0.156 0.057,-0.239 0.057,-0.337C0.057,-0.442 0.084,-0.527 0.137,-0.594C0.19,-0.661 0.266,-0.694 0.365,-0.694C0.385,-0.694 0.413,-0.691 0.448,-0.684C0.483,-0.677 0.516,-0.666 0.545,-0.65L0.505,-0.557Z" style="fill:rgb(51,51,51);fill-rule:nonzero;"/>
                </g>
                <g transform="matrix(90.4804,0,0,90.4804,199.751,167.705)">
                    <path d="M0.293,-0.572L0.213,-0.572L0.213,-0.364L0.295,-0.364C0.334,-0.364 0.366,-0.372 0.391,-0.388C0.416,-0.403 0.429,-0.429 0.429,-0.465C0.429,-0.503 0.417,-0.53 0.393,-0.547C0.369,-0.564 0.336,-0.572 0.293,-0.572ZM0.479,0L0.335,-0.26C0.328,-0.259 0.32,-0.259 0.312,-0.259C0.304,-0.258 0.296,-0.258 0.288,-0.258L0.213,-0.258L0.213,0L0.084,0L0.084,-0.68L0.297,-0.68C0.371,-0.68 0.434,-0.663 0.487,-0.629C0.54,-0.595 0.566,-0.542 0.566,-0.471C0.566,-0.429 0.555,-0.393 0.534,-0.363C0.512,-0.332 0.484,-0.309 0.45,-0.292L0.617,0L0.479,0Z" style="fill:rgb(51,51,51);fill-rule:nonzero;"/>
                </g>
            </g>
            <g transform="matrix(0.916882,0,0,1,121.475,-32.6535)">
                <g transform="matrix(86.953,0,0,86.953,152.996,241.878)">
                    <path d="M0.479,-0.428C0.5,-0.451 0.527,-0.47 0.562,-0.484C0.596,-0.497 0.627,-0.504 0.654,-0.504C0.72,-0.504 0.767,-0.485 0.795,-0.446C0.822,-0.407 0.836,-0.36 0.836,-0.304L0.836,0L0.705,0L0.705,-0.298C0.705,-0.329 0.698,-0.352 0.683,-0.369C0.668,-0.385 0.647,-0.393 0.619,-0.393C0.6,-0.393 0.581,-0.388 0.56,-0.378C0.539,-0.368 0.521,-0.357 0.504,-0.344C0.505,-0.337 0.505,-0.331 0.506,-0.324C0.507,-0.317 0.507,-0.311 0.507,-0.304L0.507,0L0.376,0L0.376,-0.298C0.376,-0.329 0.369,-0.352 0.354,-0.369C0.339,-0.385 0.318,-0.393 0.291,-0.393C0.274,-0.393 0.258,-0.39 0.241,-0.383C0.224,-0.376 0.207,-0.367 0.192,-0.356L0.192,0L0.062,0L0.062,-0.485L0.13,-0.485L0.162,-0.441C0.184,-0.461 0.211,-0.476 0.242,-0.488C0.273,-0.499 0.3,-0.504 0.325,-0.504C0.363,-0.504 0.395,-0.497 0.42,-0.484C0.445,-0.47 0.465,-0.451 0.479,-0.428Z" style="fill:rgb(51,51,51);fill-rule:nonzero;"/>
                </g>
                <g transform="matrix(86.953,0,0,86.953,228.906,241.878)">
                    <path d="M0.156,0.023L0.179,-0.034L0.006,-0.467L0.14,-0.485L0.252,-0.191L0.358,-0.485L0.495,-0.485L0.278,0.064C0.263,0.103 0.236,0.137 0.197,0.165C0.158,0.193 0.118,0.212 0.075,0.222L0.029,0.115C0.052,0.105 0.077,0.093 0.104,0.079C0.13,0.064 0.147,0.046 0.156,0.023Z" style="fill:rgb(51,51,51);fill-rule:nonzero;"/>
                </g>
            </g>
            <g id="Selectors" transform="matrix(0.965977,0,0,0.807602,67.3796,67.3718)">
                <g id="Right-selector" serif:id="Right selector">
                    <g transform="matrix(1.03522,0,0,1.23823,2.07044,0)">
                        <path d="M185.806,161.156L185.806,67.132" style="fill:none;stroke:rgb(76,159,255);stroke-width:4px;stroke-linecap:butt;"/>
                    </g>
                    <g transform="matrix(1.03522,0,0,1.23823,161.788,169.469)">
                        <circle cx="31.523" cy="34.314" r="10.021" style="fill:rgb(76,159,255);stroke:rgb(76,159,255);stroke-width:4px;stroke-linecap:butt;"/>
                    </g>
                </g>
                <g id="Left-selector" serif:id="Left selector">
                    <g transform="matrix(1.03522,0,0,1.23823,-170.092,0)">
                        <path d="M185.806,161.156L185.806,67.132" style="fill:none;stroke:rgb(76,159,255);stroke-width:4px;stroke-linecap:butt;"/>
                    </g>
                    <g transform="matrix(1.03522,0,0,1.23823,-10.3742,28.2274)">
                        <circle cx="31.523" cy="34.314" r="10.021" style="fill:rgb(76,159,255);stroke:rgb(76,159,255);stroke-width:4px;stroke-linecap:butt;"/>
                    </g>
                </g>
            </g>
        </g>
    </g>
</svg>
