<?xml version="1.0" encoding="UTF-8" standalone="no"?>
<!DOCTYPE svg PUBLIC "-//W3C//DTD SVG 1.1//EN"
 "http://www.w3.org/Graphics/SVG/1.1/DTD/svg11.dtd">
<!-- Generated by graphviz version 2.40.1 (20161225.0304)
 -->
<!-- Title: Pipeline: Pages: 1 -->
<svg width="1660pt" height="1270pt"
 viewBox="0.00 0.00 1660.00 1270.29" xmlns="http://www.w3.org/2000/svg" xmlns:xlink="http://www.w3.org/1999/xlink">
<g id="graph0" class="graph" transform="scale(1 1) rotate(0) translate(4 1266.2885)">
<title>Pipeline:</title>
<polygon fill="#ffffff" stroke="transparent" points="-4,4 -4,-1266.2885 1656,-1266.2885 1656,4 -4,4"/>
<g id="clust1" class="cluster">
<title>clustertasks</title>
<polygon fill="none" stroke="#000000" points="8,-8 8,-1254.2885 1644,-1254.2885 1644,-8 8,-8"/>
<text text-anchor="middle" x="826" y="-1226.2885" font-family="Times,serif" font-size="30.00" fill="#ff3232">Pipeline:</text>
</g>
<!-- t0 -->
<g id="node1" class="node">
<title>t0</title>
<polygon fill="#efa03b" stroke="#000000" points="1571.7053,-1208.2885 1362.2947,-1208.2885 1358.2947,-1204.2885 1358.2947,-1172.2885 1567.7053,-1172.2885 1571.7053,-1176.2885 1571.7053,-1208.2885"/>
<polyline fill="none" stroke="#000000" points="1567.7053,-1204.2885 1358.2947,-1204.2885 "/>
<polyline fill="none" stroke="#000000" points="1567.7053,-1204.2885 1567.7053,-1172.2885 "/>
<polyline fill="none" stroke="#000000" points="1567.7053,-1204.2885 1571.7053,-1208.2885 "/>
<text text-anchor="middle" x="1465" y="-1184.2885" font-family="Times,serif" font-size="20.00" fill="#000000">ocrmypdf.pipeline.triage</text>
</g>
<!-- t1 -->
<g id="node2" class="node">
<title>t1</title>
<polygon fill="#efa03b" stroke="#000000" points="1636.0433,-1150.2885 1297.9567,-1150.2885 1293.9567,-1146.2885 1293.9567,-1114.2885 1632.0433,-1114.2885 1636.0433,-1118.2885 1636.0433,-1150.2885"/>
<polyline fill="none" stroke="#000000" points="1632.0433,-1146.2885 1293.9567,-1146.2885 "/>
<polyline fill="none" stroke="#000000" points="1632.0433,-1146.2885 1632.0433,-1114.2885 "/>
<polyline fill="none" stroke="#000000" points="1632.0433,-1146.2885 1636.0433,-1150.2885 "/>
<text text-anchor="middle" x="1465" y="-1126.2885" font-family="Times,serif" font-size="20.00" fill="#000000">ocrmypdf.pipeline.repair_and_parse_pdf</text>
</g>
<!-- t0&#45;&gt;t1 -->
<g id="edge1" class="edge">
<title>t0&#45;&gt;t1</title>
<path fill="none" stroke="#0044a0" d="M1465,-1172.2548C1465,-1168.5803 1465,-1164.6302 1465,-1160.6948"/>
<polygon fill="#0044a0" stroke="#0044a0" points="1468.5001,-1160.5107 1465,-1150.5107 1461.5001,-1160.5108 1468.5001,-1160.5107"/>
</g>
<!-- t2 -->
<g id="node3" class="node">
<title>t2</title>
<polygon fill="#efa03b" stroke="#000000" points="1436.0926,-1071.3639 1191,-1088.2639 945.9074,-1071.3639 946.1362,-1044.0193 1435.8638,-1044.0193 1436.0926,-1071.3639"/>
<polygon fill="none" stroke="#000000" points="1440.0px49,-1075.0929 1191,-1092.2709 941.8751,-1075.0929 942.1685,-1040.0218 1439.8315,-1040.0218 1440.0px49,-1075.0929"/>
<text text-anchor="middle" x="1191" y="-1057.8061" font-family="Times,serif" font-size="20.00" fill="#000000">ocrmypdf.pipeline.marker_pages</text>
</g>
<!-- t1&#45;&gt;t2 -->
<g id="edge2" class="edge">
<title>t1&#45;&gt;t2</title>
<path fill="none" stroke="#0044a0" d="M1392.6513,-1114.2059C1361.3368,-1106.3793 1324.1752,-1097.0913 1290.3371,-1088.634"/>
<polygon fill="#0044a0" stroke="#0044a0" points="1290.9726,-1085.1852 1280.4224,-1086.1559 1289.2752,-1091.9763 1290.9726,-1085.1852"/>
</g>
<!-- t17 -->
<g id="node18" class="node">
<title>t17</title>
<polygon fill="#00cc66" stroke="#000000" points="917.5059,-295.7315 644.4941,-295.7315 640.4941,-291.7315 640.4941,-259.7315 913.5059,-259.7315 917.5059,-263.7315 917.5059,-295.7315"/>
<polyline fill="none" stroke="#000000" points="913.5059,-291.7315 640.4941,-291.7315 "/>
<polyline fill="none" stroke="#000000" points="913.5059,-291.7315 913.5059,-259.7315 "/>
<polyline fill="none" stroke="#000000" points="913.5059,-291.7315 917.5059,-295.7315 "/>
<text text-anchor="middle" x="779" y="-271.7315" font-family="Times,serif" font-size="20.00" fill="#000000">ocrmypdf.pipeline.weave_layers</text>
</g>
<!-- t1&#45;&gt;t17 -->
<g id="edge26" class="edge">
<title>t1&#45;&gt;t17</title>
<path fill="none" stroke="#0044a0" d="M1463.7858,-1114.1384C1462.0326,-1086.3221 1459,-1031.4682 1459,-984.84 1459,-984.84 1459,-984.84 1459,-558.3564 1459,-509.3948 1466.5665,-483.7568 1429,-452.3564 1351.9075,-387.9176 1281.2138,-494.6497 1204,-430.3564 1173.0571,-404.5913 1209.1627,-369.951 1179,-343.2769 1155.5732,-322.5595 1070.8682,-326.2946 1040,-321.2769 992.8913,-313.6192 941.0326,-305.0051 896.0381,-297.472"/>
<polygon fill="#0044a0" stroke="#0044a0" points="896.3929,-293.9828 885.952,-295.7823 895.2363,-300.8866 896.3929,-293.9828"/>
</g>
<!-- t18 -->
<g id="node20" class="node">
<title>t18</title>
<polygon fill="#efa03b" stroke="#000000" points="1635.5156,-404.8166 1272.4844,-404.8166 1268.4844,-400.8166 1268.4844,-368.8166 1631.5156,-368.8166 1635.5156,-372.8166 1635.5156,-404.8166"/>
<polyline fill="none" stroke="#000000" points="1631.5156,-400.8166 1268.4844,-400.8166 "/>
<polyline fill="none" stroke="#000000" points="1631.5156,-400.8166 1631.5156,-368.8166 "/>
<polyline fill="none" stroke="#000000" points="1631.5156,-400.8166 1635.5156,-404.8166 "/>
<text text-anchor="middle" x="1452" y="-380.8166" font-family="Times,serif" font-size="20.00" fill="#000000">ocrmypdf.pipeline.generate_postscript_stub</text>
</g>
<!-- t1&#45;&gt;t18 -->
<g id="edge29" class="edge">
<title>t1&#45;&gt;t18</title>
<path fill="none" stroke="#0044a0" d="M1475.1096,-1114.035C1478.4118,-1107.3677 1481.7937,-1099.6531 1484,-1092.2885 1497.8378,-1046.0988 1499,-1033.058 1499,-984.84 1499,-984.84 1499,-984.84 1499,-558.3564 1499,-510.7759 1497.9424,-497.8482 1484,-452.3564 1479.9708,-439.2095 1473.6018,-425.423 1467.6031,-413.9052"/>
<polygon fill="#0044a0" stroke="#0044a0" points="1470.5362,-411.9701 1462.7108,-404.8277 1464.3741,-415.2912 1470.5362,-411.9701"/>
</g>
<!-- t20 -->
<g id="node21" class="node">
<title>t20</title>
<polygon fill="#efa03b" stroke="#000000" points="840.189,-156.4288 1033,-129.1099 1225.811,-156.4288 1225.631,-200.6317 840.369,-200.6317 840.189,-156.4288"/>
<polygon fill="none" stroke="#000000" points="836.1715,-152.9543 1033,-125.0662 1229.8285,-152.9543 1229.6181,-204.6353 836.3819,-204.6353 836.1715,-152.9543"/>
<text text-anchor="middle" x="1033" y="-162.6461" font-family="Times,serif" font-size="20.00" fill="#000000">ocrmypdf.pipeline.metadata_fixup</text>
</g>
<!-- t1&#45;&gt;t20 -->
<g id="edge33" class="edge">
<title>t1&#45;&gt;t20</title>
<path fill="none" stroke="#0044a0" d="M1467.8331,-1114.1813C1471.924,-1086.421 1479,-1031.6392 1479,-984.84 1479,-984.84 1479,-984.84 1479,-558.3564 1479,-509.3948 1486.4421,-483.9051 1449,-452.3564 1377.9112,-392.4567 1317.7442,-482.8149 1241,-430.3564 1205.035,-405.7725 1231.3468,-368.7415 1196,-343.2769 1144.5389,-306.2031 1099.5867,-366.385 1055,-321.2769 1027.8809,-293.8406 1024.3206,-248.934 1026.3901,-214.9163"/>
<polygon fill="#0044a0" stroke="#0044a0" points="1029.8955,-214.9845 1027.1933,-204.7401 1022.9172,-214.4337 1029.8955,-214.9845"/>
</g>
<!-- t21 -->
<g id="node23" class="node">
<title>t21</title>
<polygon fill="#efa03b" stroke="#000000" points="1068.1753,-265.5126 1249,-238.1903 1429.8247,-265.5126 1429.6559,-309.721 1068.3441,-309.721 1068.1753,-265.5126"/>
<polygon fill="none" stroke="#000000" points="1064.1584,-262.0699 1249,-234.1406 1433.8416,-262.0699 1433.6444,-313.7252 1064.3556,-313.7252 1064.1584,-262.0699"/>
<text text-anchor="middle" x="1249" y="-271.7315" font-family="Times,serif" font-size="20.00" fill="#000000">ocrmypdf.pipeline.merge_pages</text>
</g>
<!-- t1&#45;&gt;t21 -->
<g id="edge38" class="edge">
<title>t1&#45;&gt;t21</title>
<path fill="none" stroke="#0044a0" d="M1481.1099,-1114.2158C1486.2106,-1107.688 1491.4411,-1100.0152 1495,-1092.2885 1515.4706,-1047.8446 1519,-1033.7717 1519,-984.84 1519,-984.84 1519,-984.84 1519,-558.3564 1519,-508.7435 1522.7432,-483.3466 1484,-452.3564 1444.7682,-420.9753 1293.9503,-466.4448 1259,-430.3564 1244.7552,-415.6477 1244.044,-363.272 1245.7301,-323.9497"/>
<polygon fill="#0044a0" stroke="#0044a0" points="1249.2359,-323.9168 1246.2316,-313.7569 1242.2443,-323.5727 1249.2359,-323.9168"/>
</g>
<!-- t3 -->
<g id="node4" class="node">
<title>t3</title>
<polygon fill="#efa03b" stroke="#000000" points="1421.5194,-992.3982 1191,-1009.2989 960.4806,-992.3982 960.6958,-965.0524 1421.3042,-965.0524 1421.5194,-992.3982"/>
<polygon fill="none" stroke="#000000" points="1425.5491,-996.1112 1191,-1013.3073 956.4509,-996.1112 956.7267,-961.0547 1425.2733,-961.0547 1425.5491,-996.1112"/>
<text text-anchor="middle" x="1191" y="-978.84" font-family="Times,serif" font-size="20.00" fill="#000000">ocrmypdf.pipeline.ocr_or_skip</text>
</g>
<!-- t2&#45;&gt;t3 -->
<g id="edge3" class="edge">
<title>t2&#45;&gt;t3</title>
<path fill="none" stroke="#0044a0" d="M1191,-1039.6846C1191,-1034.6543 1191,-1029.2298 1191,-1023.8181"/>
<polygon fill="#0044a0" stroke="#0044a0" points="1194.5001,-1023.5335 1191,-1013.5335 1187.5001,-1023.5336 1194.5001,-1023.5335"/>
</g>
<!-- t4 -->
<g id="node5" class="node">
<title>t4</title>
<polygon fill="#efa03b" stroke="#000000" points="1246.3166,-934.3564 939.6834,-934.3564 935.6834,-930.3564 935.6834,-898.3564 1242.3166,-898.3564 1246.3166,-902.3564 1246.3166,-934.3564"/>
<polyline fill="none" stroke="#000000" points="1242.3166,-930.3564 935.6834,-930.3564 "/>
<polyline fill="none" stroke="#000000" points="1242.3166,-930.3564 1242.3166,-898.3564 "/>
<polyline fill="none" stroke="#000000" points="1242.3166,-930.3564 1246.3166,-934.3564 "/>
<text text-anchor="middle" x="1091" y="-910.3564" font-family="Times,serif" font-size="20.00" fill="#000000">ocrmypdf.pipeline.rasterize_preview</text>
</g>
<!-- t3&#45;&gt;t4 -->
<g id="edge4" class="edge">
<title>t3&#45;&gt;t4</title>
<path fill="none" stroke="#0044a0" d="M1156.0249,-960.8877C1146.1799,-954.1455 1135.4781,-946.8166 1125.6521,-940.0874"/>
<polygon fill="#0044a0" stroke="#0044a0" points="1127.5144,-937.1207 1117.2861,-934.358 1123.5591,-942.8962 1127.5144,-937.1207"/>
</g>
<!-- t5 -->
<g id="node6" class="node">
<title>t5</title>
<polygon fill="#efa03b" stroke="#000000" points="1299.0824,-876.3564 1040.9176,-876.3564 1036.9176,-872.3564 1036.9176,-840.3564 1295.0824,-840.3564 1299.0824,-844.3564 1299.0824,-876.3564"/>
<polyline fill="none" stroke="#000000" points="1295.0824,-872.3564 1036.9176,-872.3564 "/>
<polyline fill="none" stroke="#000000" points="1295.0824,-872.3564 1295.0824,-840.3564 "/>
<polyline fill="none" stroke="#000000" points="1295.0824,-872.3564 1299.0824,-876.3564 "/>
<text text-anchor="middle" x="1168" y="-852.3564" font-family="Times,serif" font-size="20.00" fill="#000000">ocrmypdf.pipeline.orient_page</text>
</g>
<!-- t3&#45;&gt;t5 -->
<g id="edge6" class="edge">
<title>t3&#45;&gt;t5</title>
<path fill="none" stroke="#0044a0" d="M1232.4907,-961.0487C1241.5514,-953.7304 1249.9372,-944.7982 1255,-934.3564 1261.9805,-919.9594 1263.6331,-911.8274 1255,-898.3564 1250.9299,-892.0054 1245.5695,-886.6492 1239.5039,-882.1346"/>
<polygon fill="#0044a0" stroke="#0044a0" points="1241.1375,-879.0213 1230.8506,-876.4856 1237.311,-884.8829 1241.1375,-879.0213"/>
</g>
<!-- t4&#45;&gt;t5 -->
<g id="edge5" class="edge">
<title>t4&#45;&gt;t5</title>
<path fill="none" stroke="#0044a0" d="M1114.9412,-898.3227C1121.6047,-893.3035 1128.9506,-887.7702 1135.9974,-882.4622"/>
<polygon fill="#0044a0" stroke="#0044a0" points="1138.1919,-885.1911 1144.0736,-876.3788 1133.9802,-879.5998 1138.1919,-885.1911"/>
</g>
<!-- t6 -->
<g id="node7" class="node">
<title>t6</title>
<polygon fill="#efa03b" stroke="#000000" points="1087.7325,-818.3564 712.2675,-818.3564 708.2675,-814.3564 708.2675,-782.3564 1083.7325,-782.3564 1087.7325,-786.3564 1087.7325,-818.3564"/>
<polyline fill="none" stroke="#000000" points="1083.7325,-814.3564 708.2675,-814.3564 "/>
<polyline fill="none" stroke="#000000" points="1083.7325,-814.3564 1083.7325,-782.3564 "/>
<polyline fill="none" stroke="#000000" points="1083.7325,-814.3564 1087.7325,-818.3564 "/>
<text text-anchor="middle" x="898" y="-794.3564" font-family="Times,serif" font-size="20.00" fill="#000000">ocrmypdf.pipeline.rasterize_with_ghostscript</text>
</g>
<!-- t5&#45;&gt;t6 -->
<g id="edge7" class="edge">
<title>t5&#45;&gt;t6</title>
<path fill="none" stroke="#0044a0" d="M1084.0503,-840.3227C1054.8434,-834.0486 1021.8978,-826.9714 991.935,-820.535"/>
<polygon fill="#0044a0" stroke="#0044a0" points="992.4098,-817.0572 981.8977,-818.3788 990.9396,-823.9011 992.4098,-817.0572"/>
</g>
<!-- t13 -->
<g id="node17" class="node">
<title>t13</title>
<polygon fill="#00cc66" stroke="#000000" points="1097,-508.3564 774.4141,-480.3564 1097,-452.3564 1419.5859,-480.3564 1097,-508.3564"/>
<text text-anchor="middle" x="1097" y="-474.3564" font-family="Times,serif" font-size="20.00" fill="#000000">ocrmypdf.pipeline.select_image_layer</text>
</g>
<!-- t5&#45;&gt;t13 -->
<g id="edge22" class="edge">
<title>t5&#45;&gt;t13</title>
<path fill="none" stroke="#0044a0" d="M1168,-840.273C1168,-817.4524 1168,-776.9952 1168,-742.3564 1168,-742.3564 1168,-742.3564 1168,-626.3564 1168,-583.4588 1178.3393,-568.1255 1158,-530.3564 1154.4291,-523.7254 1149.577,-517.6358 1144.1589,-512.161"/>
<polygon fill="#0044a0" stroke="#0044a0" points="1146.2104,-509.2916 1136.4871,-505.0833 1141.4638,-514.4366 1146.2104,-509.2916"/>
</g>
<!-- t19 -->
<g id="node22" class="node">
<title>t19</title>
<polygon fill="#efa03b" stroke="#000000" points="1438.7716,-760.3564 1193.2284,-760.3564 1189.2284,-756.3564 1189.2284,-724.3564 1434.7716,-724.3564 1438.7716,-728.3564 1438.7716,-760.3564"/>
<polyline fill="none" stroke="#000000" points="1434.7716,-756.3564 1189.2284,-756.3564 "/>
<polyline fill="none" stroke="#000000" points="1434.7716,-756.3564 1434.7716,-724.3564 "/>
<polyline fill="none" stroke="#000000" points="1434.7716,-756.3564 1438.7716,-760.3564 "/>
<text text-anchor="middle" x="1314" y="-736.3564" font-family="Times,serif" font-size="20.00" fill="#000000">ocrmypdf.pipeline.skip_page</text>
</g>
<!-- t5&#45;&gt;t19 -->
<g id="edge34" class="edge">
<title>t5&#45;&gt;t19</title>
<path fill="none" stroke="#0044a0" d="M1190.8125,-840.2314C1215.5242,-820.5974 1255.1075,-789.1476 1282.7129,-767.2146"/>
<polygon fill="#0044a0" stroke="#0044a0" points="1285.2136,-769.6981 1290.8659,-760.7369 1280.859,-764.2173 1285.2136,-769.6981"/>
</g>
<!-- t7 -->
<g id="node8" class="node">
<title>t7</title>
<polygon fill="#efa03b" stroke="#000000" points="879.0801,-760.3564 454.9199,-760.3564 450.9199,-756.3564 450.9199,-724.3564 875.0801,-724.3564 879.0801,-728.3564 879.0801,-760.3564"/>
<polyline fill="none" stroke="#000000" points="875.0801,-756.3564 450.9199,-756.3564 "/>
<polyline fill="none" stroke="#000000" points="875.0801,-756.3564 875.0801,-724.3564 "/>
<polyline fill="none" stroke="#000000" points="875.0801,-756.3564 879.0801,-760.3564 "/>
<text text-anchor="middle" x="665" y="-736.3564" font-family="Times,serif" font-size="20.00" fill="#000000">ocrmypdf.pipeline.preprocess_remove_background</text>
</g>
<!-- t6&#45;&gt;t7 -->
<g id="edge8" class="edge">
<title>t6&#45;&gt;t7</title>
<path fill="none" stroke="#0044a0" d="M825.5546,-782.3227C800.7884,-776.1578 772.9071,-769.2174 747.4138,-762.8714"/>
<polygon fill="#0044a0" stroke="#0044a0" points="747.95,-759.3981 737.4006,-760.3788 746.259,-766.1908 747.95,-759.3981"/>
</g>
<!-- t12 -->
<g id="node16" class="node">
<title>t12</title>
<polygon fill="#efa03b" stroke="#000000" points="765,-586.3564 381.1874,-558.3564 765,-530.3564 1148.8126,-558.3564 765,-586.3564"/>
<text text-anchor="middle" x="765" y="-552.3564" font-family="Times,serif" font-size="20.00" fill="#000000">ocrmypdf.pipeline.select_visible_page_image</text>
</g>
<!-- t6&#45;&gt;t12 -->
<g id="edge20" class="edge">
<title>t6&#45;&gt;t12</title>
<path fill="none" stroke="#0044a0" d="M898.1443,-782.2037C897.6867,-766.3864 895.5831,-743.1096 888,-724.3564 867.2991,-673.1624 827.0126,-623.5073 798.1838,-592.0549"/>
<polygon fill="#0044a0" stroke="#0044a0" points="800.4937,-589.3993 791.1202,-584.4608 795.3682,-594.1668 800.4937,-589.3993"/>
</g>
<!-- t8 -->
<g id="node9" class="node">
<title>t8</title>
<polygon fill="#efa03b" stroke="#000000" points="755.6759,-702.3564 436.3241,-702.3564 432.3241,-698.3564 432.3241,-666.3564 751.6759,-666.3564 755.6759,-670.3564 755.6759,-702.3564"/>
<polyline fill="none" stroke="#000000" points="751.6759,-698.3564 432.3241,-698.3564 "/>
<polyline fill="none" stroke="#000000" points="751.6759,-698.3564 751.6759,-666.3564 "/>
<polyline fill="none" stroke="#000000" points="751.6759,-698.3564 755.6759,-702.3564 "/>
<text text-anchor="middle" x="594" y="-678.3564" font-family="Times,serif" font-size="20.00" fill="#000000">ocrmypdf.pipeline.preprocess_deskew</text>
</g>
<!-- t7&#45;&gt;t8 -->
<g id="edge9" class="edge">
<title>t7&#45;&gt;t8</title>
<path fill="none" stroke="#0044a0" d="M642.9243,-724.3227C636.9709,-719.4593 630.4267,-714.1134 624.115,-708.9574"/>
<polygon fill="#0044a0" stroke="#0044a0" points="626.2653,-706.1945 616.3065,-702.5786 621.8367,-711.6156 626.2653,-706.1945"/>
</g>
<!-- t7&#45;&gt;t12 -->
<g id="edge19" class="edge">
<title>t7&#45;&gt;t12</title>
<path fill="none" stroke="#0044a0" d="M740.0346,-724.2554C749.8757,-718.7792 758.7103,-711.6465 765,-702.3564 786.0291,-671.2957 782.4083,-627.1795 775.8082,-595.9806"/>
<polygon fill="#0044a0" stroke="#0044a0" points="779.1481,-594.8884 773.487,-585.9328 772.3278,-596.4641 779.1481,-594.8884"/>
</g>
<!-- t9 -->
<g id="node10" class="node">
<title>t9</title>
<polygon fill="#efa03b" stroke="#000000" points="735.8828,-644.3564 434.1172,-644.3564 430.1172,-640.3564 430.1172,-608.3564 731.8828,-608.3564 735.8828,-612.3564 735.8828,-644.3564"/>
<polyline fill="none" stroke="#000000" points="731.8828,-640.3564 430.1172,-640.3564 "/>
<polyline fill="none" stroke="#000000" points="731.8828,-640.3564 731.8828,-608.3564 "/>
<polyline fill="none" stroke="#000000" points="731.8828,-640.3564 735.8828,-644.3564 "/>
<text text-anchor="middle" x="583" y="-620.3564" font-family="Times,serif" font-size="20.00" fill="#000000">ocrmypdf.pipeline.preprocess_clean</text>
</g>
<!-- t8&#45;&gt;t9 -->
<g id="edge10" class="edge">
<title>t8&#45;&gt;t9</title>
<path fill="none" stroke="#0044a0" d="M590.5798,-666.3227C589.8624,-662.5401 589.0897,-658.4655 588.3216,-654.4155"/>
<polygon fill="#0044a0" stroke="#0044a0" points="591.7581,-653.7513 586.4559,-644.5786 584.8807,-655.0557 591.7581,-653.7513"/>
</g>
<!-- t8&#45;&gt;t12 -->
<g id="edge18" class="edge">
<title>t8&#45;&gt;t12</title>
<path fill="none" stroke="#0044a0" d="M693.0045,-666.3526C716.2528,-660.3246 736.6919,-652.9215 745,-644.3564 757.1971,-631.782 762.4901,-613.2959 764.6123,-596.6822"/>
<polygon fill="#0044a0" stroke="#0044a0" points="768.1041,-596.9335 765.5574,-586.6493 761.1349,-596.277 768.1041,-596.9335"/>
</g>
<!-- t10 -->
<g id="node11" class="node">
<title>t10</title>
<polygon fill="#efa03b" stroke="#000000" points="363.1094,-576.3564 58.8906,-576.3564 54.8906,-572.3564 54.8906,-540.3564 359.1094,-540.3564 363.1094,-544.3564 363.1094,-576.3564"/>
<polyline fill="none" stroke="#000000" points="359.1094,-572.3564 54.8906,-572.3564 "/>
<polyline fill="none" stroke="#000000" points="359.1094,-572.3564 359.1094,-540.3564 "/>
<polyline fill="none" stroke="#000000" points="359.1094,-572.3564 363.1094,-576.3564 "/>
<text text-anchor="middle" x="209" y="-552.3564" font-family="Times,serif" font-size="20.00" fill="#000000">ocrmypdf.pipeline.select_ocr_image</text>
</g>
<!-- t9&#45;&gt;t10 -->
<g id="edge11" class="edge">
<title>t9&#45;&gt;t10</title>
<path fill="none" stroke="#0044a0" d="M483.7568,-608.3121C432.7279,-599.0342 370.4237,-587.7061 318.0537,-578.1843"/>
<polygon fill="#0044a0" stroke="#0044a0" points="318.5223,-574.7122 308.0575,-576.3668 317.2701,-581.5993 318.5223,-574.7122"/>
</g>
<!-- t9&#45;&gt;t12 -->
<g id="edge17" class="edge">
<title>t9&#45;&gt;t12</title>
<path fill="none" stroke="#0044a0" d="M631.2948,-608.3121C650.0226,-601.3149 671.8712,-593.1517 692.4134,-585.4766"/>
<polygon fill="#0044a0" stroke="#0044a0" points="693.9148,-588.6521 702.0573,-581.8734 691.4648,-582.0948 693.9148,-588.6521"/>
</g>
<!-- t11 -->
<g id="node12" class="node">
<title>t11</title>
<polygon fill="#00cc66" stroke="#000000" points="736.0996,-498.3564 421.9004,-498.3564 417.9004,-494.3564 417.9004,-462.3564 732.0996,-462.3564 736.0996,-466.3564 736.0996,-498.3564"/>
<polyline fill="none" stroke="#000000" points="732.0996,-494.3564 417.9004,-494.3564 "/>
<polyline fill="none" stroke="#000000" points="732.0996,-494.3564 732.0996,-462.3564 "/>
<polyline fill="none" stroke="#000000" points="732.0996,-494.3564 736.0996,-498.3564 "/>
<text text-anchor="middle" x="577" y="-474.3564" font-family="Times,serif" font-size="20.00" fill="#000000">ocrmypdf.pipeline.ocr_tesseract_hocr</text>
</g>
<!-- t10&#45;&gt;t11 -->
<g id="edge12" class="edge">
<title>t10&#45;&gt;t11</title>
<path fill="none" stroke="#0044a0" d="M294.3516,-540.2655C350.4513,-528.3748 423.9209,-512.8025 481.8937,-500.5148"/>
<polygon fill="#0044a0" stroke="#0044a0" points="482.7362,-503.914 491.7932,-498.4165 481.2847,-497.0661 482.7362,-503.914"/>
</g>
<!-- t16 -->
<g id="node13" class="node">
<title>t16</title>
<polygon fill="#ff69b4" stroke="#000000" points="400.2696,-498.3564 19.7304,-498.3564 15.7304,-494.3564 15.7304,-462.3564 396.2696,-462.3564 400.2696,-466.3564 400.2696,-498.3564"/>
<polyline fill="none" stroke="#000000" points="396.2696,-494.3564 15.7304,-494.3564 "/>
<polyline fill="none" stroke="#000000" points="396.2696,-494.3564 396.2696,-462.3564 "/>
<polyline fill="none" stroke="#000000" points="396.2696,-494.3564 400.2696,-498.3564 "/>
<text text-anchor="middle" x="208" y="-474.3564" font-family="Times,serif" font-size="20.00" fill="#000000">ocrmypdf.pipeline.ocr_tesseract_textonly_pdf</text>
</g>
<!-- t10&#45;&gt;t16 -->
<g id="edge13" class="edge">
<title>t10&#45;&gt;t16</title>
<path fill="none" stroke="#0044a0" d="M208.7681,-540.2655C208.6478,-530.8822 208.4981,-519.2062 208.3629,-508.6609"/>
<polygon fill="#0044a0" stroke="#0044a0" points="211.8621,-508.5735 208.2341,-498.6193 204.8627,-508.6633 211.8621,-508.5735"/>
</g>
<!-- t22 -->
<g id="node14" class="node">
<title>t22</title>
<polygon fill="#efa03b" stroke="#000000" points="39.7205,-374.5993 233,-347.2805 426.2795,-374.5993 426.0991,-418.802 39.9009,-418.802 39.7205,-374.5993"/>
<polygon fill="none" stroke="#000000" points="35.7033,-371.1237 233,-343.2371 430.2967,-371.1237 430.0858,-422.8056 35.9142,-422.8056 35.7033,-371.1237"/>
<text text-anchor="middle" x="233" y="-380.8166" font-family="Times,serif" font-size="20.00" fill="#000000">ocrmypdf.pipeline.merge_sidecars</text>
</g>
<!-- t11&#45;&gt;t22 -->
<g id="edge15" class="edge">
<title>t11&#45;&gt;t22</title>
<path fill="none" stroke="#0044a0" d="M510.6733,-462.321C472.1331,-451.8412 422.0357,-438.2188 375.0218,-425.4349"/>
<polygon fill="#0044a0" stroke="#0044a0" points="375.9216,-422.0525 365.3536,-422.8059 374.0848,-428.8073 375.9216,-422.0525"/>
</g>
<!-- t14 -->
<g id="node15" class="node">
<title>t14</title>
<polygon fill="#00cc66" stroke="#000000" points="760.0433,-404.8166 451.9567,-404.8166 447.9567,-400.8166 447.9567,-368.8166 756.0433,-368.8166 760.0433,-372.8166 760.0433,-404.8166"/>
<polyline fill="none" stroke="#000000" points="756.0433,-400.8166 447.9567,-400.8166 "/>
<polyline fill="none" stroke="#000000" points="756.0433,-400.8166 756.0433,-368.8166 "/>
<polyline fill="none" stroke="#000000" points="756.0433,-400.8166 760.0433,-404.8166 "/>
<text text-anchor="middle" x="604" y="-380.8166" font-family="Times,serif" font-size="20.00" fill="#000000">ocrmypdf.pipeline.render_hocr_page</text>
</g>
<!-- t11&#45;&gt;t14 -->
<g id="edge16" class="edge">
<title>t11&#45;&gt;t14</title>
<path fill="none" stroke="#0044a0" d="M582.2059,-462.321C586.0656,-448.9492 591.4022,-430.461 595.8284,-415.1265"/>
<polygon fill="#0044a0" stroke="#0044a0" points="599.3074,-415.6942 598.718,-405.1158 592.5819,-413.7529 599.3074,-415.6942"/>
</g>
<!-- t15 -->
<g id="node19" class="node">
<title>t15</title>
<polygon fill="#00cc66" stroke="#000000" points="1169.9202,-404.8166 802.0798,-404.8166 798.0798,-400.8166 798.0798,-368.8166 1165.9202,-368.8166 1169.9202,-372.8166 1169.9202,-404.8166"/>
<polyline fill="none" stroke="#000000" points="1165.9202,-400.8166 798.0798,-400.8166 "/>
<polyline fill="none" stroke="#000000" points="1165.9202,-400.8166 1165.9202,-368.8166 "/>
<polyline fill="none" stroke="#000000" points="1165.9202,-400.8166 1169.9202,-404.8166 "/>
<text text-anchor="middle" x="984" y="-380.8166" font-family="Times,serif" font-size="20.00" fill="#000000">ocrmypdf.pipeline.render_hocr_debug_page</text>
</g>
<!-- t11&#45;&gt;t15 -->
<g id="edge28" class="edge">
<title>t11&#45;&gt;t15</title>
<path fill="none" stroke="#0044a0" d="M655.4737,-462.321C724.1963,-446.5266 823.9775,-423.5942 895.5195,-407.1518"/>
<polygon fill="#0044a0" stroke="#0044a0" points="896.4589,-410.5273 905.4208,-404.8763 894.8909,-403.7051 896.4589,-410.5273"/>
</g>
<!-- t16&#45;&gt;t22 -->
<g id="edge14" class="edge">
<title>t16&#45;&gt;t22</title>
<path fill="none" stroke="#0044a0" d="M212.8203,-462.321C215.0783,-453.8723 217.8822,-443.3813 220.6745,-432.9336"/>
<polygon fill="#0044a0" stroke="#0044a0" points="224.1291,-433.5629 223.3299,-422.9982 217.3665,-431.7554 224.1291,-433.5629"/>
</g>
<!-- t16&#45;&gt;t17 -->
<g id="edge23" class="edge">
<title>t16&#45;&gt;t17</title>
<path fill="none" stroke="#0044a0" d="M101.729,-462.3237C68.1524,-454.3148 37.1198,-443.6507 27,-430.3564 3.5584,-399.5613 .8487,-371.8067 27,-343.2769 66.8598,-299.7917 422.64,-285.0519 630.2336,-280.1334"/>
<polygon fill="#0044a0" stroke="#0044a0" points="630.3956,-283.6306 640.3117,-279.8995 630.2332,-276.6325 630.3956,-283.6306"/>
</g>
<!-- t14&#45;&gt;t17 -->
<g id="edge24" class="edge">
<title>t14&#45;&gt;t17</title>
<path fill="none" stroke="#0044a0" d="M632.8977,-368.8034C662.5359,-350.3286 708.7757,-321.5053 741.2807,-301.2435"/>
<polygon fill="#0044a0" stroke="#0044a0" points="743.4245,-304.0316 750.0594,-295.7714 739.7216,-298.0911 743.4245,-304.0316"/>
</g>
<!-- t12&#45;&gt;t13 -->
<g id="edge21" class="edge">
<title>t12&#45;&gt;t13</title>
<path fill="none" stroke="#0044a0" d="M856.1596,-536.9393C900.7804,-526.4562 954.5256,-513.8293 999.9137,-503.1658"/>
<polygon fill="#0044a0" stroke="#0044a0" points="1000.8284,-506.5463 1009.7629,-500.8518 999.2274,-499.7318 1000.8284,-506.5463"/>
</g>
<!-- t12&#45;&gt;t15 -->
<g id="edge27" class="edge">
<title>t12&#45;&gt;t15</title>
<path fill="none" stroke="#0044a0" d="M756.6247,-530.7365C751.3868,-507.5191 748.4049,-474.6451 765,-452.3564 778.9693,-433.5944 826.5079,-418.2146 873.7389,-407.0804"/>
<polygon fill="#0044a0" stroke="#0044a0" points="874.5236,-410.4914 883.4852,-404.8399 872.9553,-403.6693 874.5236,-410.4914"/>
</g>
<!-- t13&#45;&gt;t17 -->
<g id="edge25" class="edge">
<title>t13&#45;&gt;t17</title>
<path fill="none" stroke="#0044a0" d="M951.3099,-464.9236C877.3581,-455.6365 800.6359,-443.1602 789,-430.3564 773.0023,-412.7529 774.4983,-345.0386 776.8379,-305.973"/>
<polygon fill="#0044a0" stroke="#0044a0" points="780.3443,-305.9872 777.5063,-295.7796 773.3593,-305.5291 780.3443,-305.9872"/>
</g>
<!-- t17&#45;&gt;t20 -->
<g id="edge31" class="edge">
<title>t17&#45;&gt;t20</title>
<path fill="none" stroke="#0044a0" d="M820.9429,-259.7182C853.1659,-245.8795 898.9091,-226.2341 939.6664,-208.7301"/>
<polygon fill="#0044a0" stroke="#0044a0" points="941.2839,-211.8446 949.0912,-204.6824 938.5215,-205.4127 941.2839,-211.8446"/>
</g>
<!-- t15&#45;&gt;t20 -->
<g id="edge32" class="edge">
<title>t15&#45;&gt;t20</title>
<path fill="none" stroke="#0044a0" d="M988.0934,-368.5908C995.6308,-335.0312 1011.915,-262.5263 1022.6622,-214.6749"/>
<polygon fill="#0044a0" stroke="#0044a0" points="1026.0898,-215.3849 1024.8663,-204.861 1019.26,-213.8509 1026.0898,-215.3849"/>
</g>
<!-- t15&#45;&gt;t21 -->
<g id="edge37" class="edge">
<title>t15&#45;&gt;t21</title>
<path fill="none" stroke="#0044a0" d="M1027.7594,-368.8034C1061.5194,-354.9064 1109.5042,-335.1538 1152.1612,-317.5944"/>
<polygon fill="#0044a0" stroke="#0044a0" points="1153.5424,-320.8108 1161.4573,-313.7677 1150.8778,-314.3378 1153.5424,-320.8108"/>
</g>
<!-- t18&#45;&gt;t20 -->
<g id="edge30" class="edge">
<title>t18&#45;&gt;t20</title>
<path fill="none" stroke="#0044a0" d="M1457.391,-368.5685C1465.5268,-336.849 1476.6646,-271.383 1443,-234.1861 1428.2257,-217.8616 1334.1684,-202.1909 1239.869,-190.2682"/>
<polygon fill="#0044a0" stroke="#0044a0" points="1240.2171,-186.7845 1229.86,-189.0166 1239.3484,-193.7304 1240.2171,-186.7845"/>
</g>
<!-- t18&#45;&gt;t21 -->
<g id="edge36" class="edge">
<title>t18&#45;&gt;t21</title>
<path fill="none" stroke="#0044a0" d="M1418.4787,-368.8034C1393.1567,-355.1962 1357.3878,-335.9753 1325.2321,-318.696"/>
<polygon fill="#0044a0" stroke="#0044a0" points="1326.7356,-315.5306 1316.2701,-313.8801 1323.4221,-321.6967 1326.7356,-315.5306"/>
</g>
<!-- t23 -->
<g id="node24" class="node">
<title>t23</title>
<polygon fill="#efa03b" stroke="#000000" points="974.0652,-47.332 1141,-20.0049 1307.9348,-47.332 1307.779,-91.5483 974.221,-91.5483 974.0652,-47.332"/>
<polygon fill="none" stroke="#000000" points="970.0538,-43.9306 1141,-15.9468 1311.9462,-43.9306 1311.7643,-95.5532 970.2357,-95.5532 970.0538,-43.9306"/>
<text text-anchor="middle" x="1141" y="-53.5531" font-family="Times,serif" font-size="20.00" fill="#000000">ocrmypdf.pipeline.copy_final</text>
</g>
<!-- t20&#45;&gt;t23 -->
<g id="edge40" class="edge">
<title>t20&#45;&gt;t23</title>
<path fill="none" stroke="#0044a0" d="M1071.0768,-130.184C1079.7982,-121.3743 1089.1282,-111.9499 1098.0392,-102.9487"/>
<polygon fill="#0044a0" stroke="#0044a0" points="1100.5282,-105.4094 1105.0763,-95.8404 1095.5535,-100.4846 1100.5282,-105.4094"/>
</g>
<!-- t19&#45;&gt;t21 -->
<g id="edge35" class="edge">
<title>t19&#45;&gt;t21</title>
<path fill="none" stroke="#0044a0" d="M1356.3193,-724.2261C1392.5828,-705.5141 1439,-672.542 1439,-626.3564 1439,-626.3564 1439,-626.3564 1439,-558.3564 1439,-511.0361 1462.0515,-486.221 1429,-452.3564 1371.1662,-393.0997 1298.984,-492.2664 1244,-430.3564 1218.6833,-401.8507 1223.387,-357.2098 1232.3726,-323.5562"/>
<polygon fill="#0044a0" stroke="#0044a0" points="1235.7387,-324.5149 1235.134,-313.9374 1229.0105,-322.5833 1235.7387,-324.5149"/>
</g>
<!-- t21&#45;&gt;t23 -->
<g id="edge39" class="edge">
<title>t21&#45;&gt;t23</title>
<path fill="none" stroke="#0044a0" d="M1255.8749,-235.0071C1258.8908,-202.6847 1258.1767,-158.3414 1239,-125.1062 1234.1919,-116.7732 1227.846,-109.2905 1220.6891,-102.6266"/>
<polygon fill="#0044a0" stroke="#0044a0" points="1222.5064,-99.5739 1212.6391,-95.7155 1217.9466,-104.8851 1222.5064,-99.5739"/>
</g>
</g>
</svg>
