<?xml version="1.0" encoding="UTF-8" standalone="no"?>
<!DOCTYPE svg PUBLIC "-//W3C//DTD SVG 1.1//EN"
 "http://www.w3.org/Graphics/SVG/1.1/DTD/svg11.dtd">
<!-- Generated by graphviz version 2.40.1 (20161225.0304)
 -->
<!-- Title: Pipeline: Pages: 1 -->
<svg width="1660pt" height="1270pt"
 viewBox="0.00 0.00 1660.00 1270.29" xmlns="http://www.w3.org/2000/svg" xmlns:xlink="http://www.w3.org/1999/xlink">
<g id="graph0" class="graph" transform="scale(1 1) rotate(0) translate(4 1266.2885)">
<title>Pipeline:</title>
<polygon fill="#ffffff" stroke="transparent" points="-4,4 -4,-1266.2885 1656,-1266.2885 1656,4 -4,4"/>
<g id="clust1" class="cluster">
<title>clustertasks</title>
<polygon fill="none" stroke="#000000" points="8,-8 8,-1254.2885 1644,-1254.2885 1644,-8 8,-8"/>
<text text-anchor="middle" x="826" y="-1226.2885" font-family="Times,serif" font-size="30.00" fill="#ff3232">Pipeline:</text>
</g>
<!-- t0 -->
<g id="node1" class="node">
<title>t0</title>
<polygon fill="#efa03b" stroke="#000000" points="293.7053,-1208.2885 84.2947,-1208.2885 80.2947,-1204.2885 80.2947,-1172.2885 289.7053,-1172.2885 293.7053,-1176.2885 293.7053,-1208.2885"/>
<polyline fill="none" stroke="#000000" points="289.7053,-1204.2885 80.2947,-1204.2885 "/>
<polyline fill="none" stroke="#000000" points="289.7053,-1204.2885 289.7053,-1172.2885 "/>
<polyline fill="none" stroke="#000000" points="289.7053,-1204.2885 293.7053,-1208.2885 "/>
<text text-anchor="middle" x="187" y="-1184.2885" font-family="Times,serif" font-size="20.00" fill="#000000">ocrmypdf.pipeline.triage</text>
</g>
<!-- t1 -->
<g id="node2" class="node">
<title>t1</title>
<polygon fill="#efa03b" stroke="#000000" points="358.0433,-1150.2885 19.9567,-1150.2885 15.9567,-1146.2885 15.9567,-1114.2885 354.0433,-1114.2885 358.0433,-1118.2885 358.0433,-1150.2885"/>
<polyline fill="none" stroke="#000000" points="354.0433,-1146.2885 15.9567,-1146.2885 "/>
<polyline fill="none" stroke="#000000" points="354.0433,-1146.2885 354.0433,-1114.2885 "/>
<polyline fill="none" stroke="#000000" points="354.0433,-1146.2885 358.0433,-1150.2885 "/>
<text text-anchor="middle" x="187" y="-1126.2885" font-family="Times,serif" font-size="20.00" fill="#000000">ocrmypdf.pipeline.repair_and_parse_pdf</text>
</g>
<!-- t0&#45;&gt;t1 -->
<g id="edge1" class="edge">
<title>t0&#45;&gt;t1</title>
<path fill="none" stroke="#0044a0" d="M187,-1172.2548C187,-1168.5803 187,-1164.6302 187,-1160.6948"/>
<polygon fill="#0044a0" stroke="#0044a0" points="190.5001,-1160.5107 187,-1150.5107 183.5001,-1160.5108 190.5001,-1160.5107"/>
</g>
<!-- t2 -->
<g id="node3" class="node">
<title>t2</title>
<polygon fill="#efa03b" stroke="#000000" points="686.0926,-1071.3639 441,-1088.2639 195.9074,-1071.3639 196.1362,-1044.0193 685.8638,-1044.0193 686.0926,-1071.3639"/>
<polygon fill="none" stroke="#000000" points="690.0px49,-1075.0929 441,-1092.2709 191.8751,-1075.0929 192.1685,-1040.0218 689.8315,-1040.0218 690.0px49,-1075.0929"/>
<text text-anchor="middle" x="441" y="-1057.8061" font-family="Times,serif" font-size="20.00" fill="#000000">ocrmypdf.pipeline.marker_pages</text>
</g>
<!-- t1&#45;&gt;t2 -->
<g id="edge2" class="edge">
<title>t1&#45;&gt;t2</title>
<path fill="none" stroke="#0044a0" d="M254.0678,-1114.2059C282.4495,-1106.5538 316.0126,-1097.5046 346.8117,-1089.2007"/>
<polygon fill="#0044a0" stroke="#0044a0" points="347.9601,-1092.5161 356.7042,-1086.5335 346.1379,-1085.7575 347.9601,-1092.5161"/>
</g>
<!-- t17 -->
<g id="node17" class="node">
<title>t17</title>
<polygon fill="#00cc66" stroke="#000000" points="1578.5059,-295.7315 1305.4941,-295.7315 1301.4941,-291.7315 1301.4941,-259.7315 1574.5059,-259.7315 1578.5059,-263.7315 1578.5059,-295.7315"/>
<polyline fill="none" stroke="#000000" points="1574.5059,-291.7315 1301.4941,-291.7315 "/>
<polyline fill="none" stroke="#000000" points="1574.5059,-291.7315 1574.5059,-259.7315 "/>
<polyline fill="none" stroke="#000000" points="1574.5059,-291.7315 1578.5059,-295.7315 "/>
<text text-anchor="middle" x="1440" y="-271.7315" font-family="Times,serif" font-size="20.00" fill="#000000">ocrmypdf.pipeline.weave_layers</text>
</g>
<!-- t1&#45;&gt;t17 -->
<g id="edge25" class="edge">
<title>t1&#45;&gt;t17</title>
<path fill="none" stroke="#0044a0" d="M358.0758,-1123.6249C741.2403,-1103.0857 1635,-1048.3676 1635,-984.84 1635,-984.84 1635,-984.84 1635,-480.3564 1635,-418.9654 1656.1556,-391.3705 1618,-343.2769 1605.0678,-326.9763 1561.5297,-310.7971 1520.7529,-298.5915"/>
<polygon fill="#0044a0" stroke="#0044a0" points="1521.5972,-295.1917 1511.0163,-295.7346 1519.6263,-301.9086 1521.5972,-295.1917"/>
</g>
<!-- t18 -->
<g id="node18" class="node">
<title>t18</title>
<polygon fill="#efa03b" stroke="#000000" points="403.5156,-404.8166 40.4844,-404.8166 36.4844,-400.8166 36.4844,-368.8166 399.5156,-368.8166 403.5156,-372.8166 403.5156,-404.8166"/>
<polyline fill="none" stroke="#000000" points="399.5156,-400.8166 36.4844,-400.8166 "/>
<polyline fill="none" stroke="#000000" points="399.5156,-400.8166 399.5156,-368.8166 "/>
<polyline fill="none" stroke="#000000" points="399.5156,-400.8166 403.5156,-404.8166 "/>
<text text-anchor="middle" x="220" y="-380.8166" font-family="Times,serif" font-size="20.00" fill="#000000">ocrmypdf.pipeline.generate_postscript_stub</text>
</g>
<!-- t1&#45;&gt;t18 -->
<g id="edge26" class="edge">
<title>t1&#45;&gt;t18</title>
<path fill="none" stroke="#0044a0" d="M176.8904,-1114.035C173.5882,-1107.3677 170.2063,-1099.6531 168,-1092.2885 154.1622,-1046.0988 153,-1033.058 153,-984.84 153,-984.84 153,-984.84 153,-558.3564 153,-510.7759 149.2243,-496.0756 168,-452.3564 174.2264,-437.8581 184.5322,-423.8627 194.334,-412.554"/>
<polygon fill="#0044a0" stroke="#0044a0" points="197.2096,-414.5921 201.3166,-404.8257 192.0155,-409.8993 197.2096,-414.5921"/>
</g>
<!-- t20 -->
<g id="node19" class="node">
<title>t20</title>
<polygon fill="#efa03b" stroke="#000000" points="27.189,-156.4288 220,-129.1099 412.811,-156.4288 412.631,-200.6317 27.369,-200.6317 27.189,-156.4288"/>
<polygon fill="none" stroke="#000000" points="23.1715,-152.9543 220,-125.0662 416.8285,-152.9543 416.6181,-204.6353 23.3819,-204.6353 23.1715,-152.9543"/>
<text text-anchor="middle" x="220" y="-162.6461" font-family="Times,serif" font-size="20.00" fill="#000000">ocrmypdf.pipeline.metadata_fixup</text>
</g>
<!-- t1&#45;&gt;t20 -->
<g id="edge29" class="edge">
<title>t1&#45;&gt;t20</title>
<path fill="none" stroke="#0044a0" d="M138.2848,-1114.2775C88.0501,-1092.1806 17,-1049.4987 17,-984.84 17,-984.84 17,-984.84 17,-386.8166 17,-309.4325 86.2972,-247.9982 143.9157,-210.2921"/>
<polygon fill="#0044a0" stroke="#0044a0" points="146.1535,-213.0152 152.6859,-204.6739 142.3775,-207.1209 146.1535,-213.0152"/>
</g>
<!-- t21 -->
<g id="node22" class="node">
<title>t21</title>
<polygon fill="#efa03b" stroke="#000000" points="255.1753,-265.5126 436,-238.1903 616.8247,-265.5126 616.6559,-309.721 255.3441,-309.721 255.1753,-265.5126"/>
<polygon fill="none" stroke="#000000" points="251.1584,-262.0699 436,-234.1406 620.8416,-262.0699 620.6444,-313.7252 251.3556,-313.7252 251.1584,-262.0699"/>
<text text-anchor="middle" x="436" y="-271.7315" font-family="Times,serif" font-size="20.00" fill="#000000">ocrmypdf.pipeline.merge_pages</text>
</g>
<!-- t1&#45;&gt;t21 -->
<g id="edge36" class="edge">
<title>t1&#45;&gt;t21</title>
<path fill="none" stroke="#0044a0" d="M184.1669,-1114.1813C180.076,-1086.421 173,-1031.6392 173,-984.84 173,-984.84 173,-984.84 173,-558.3564 173,-534.7746 161.7149,-469.412 178,-452.3564 214.2214,-414.4213 374.884,-466.3873 413,-430.3564 416.9098,-426.6604 424.9678,-367.5181 430.4294,-323.9622"/>
<polygon fill="#0044a0" stroke="#0044a0" points="433.9293,-324.1792 431.6894,-313.8239 426.9827,-323.3158 433.9293,-324.1792"/>
</g>
<!-- t3 -->
<g id="node4" class="node">
<title>t3</title>
<polygon fill="#efa03b" stroke="#000000" points="671.5194,-992.3982 441,-1009.2989 210.4806,-992.3982 210.6958,-965.0524 671.3042,-965.0524 671.5194,-992.3982"/>
<polygon fill="none" stroke="#000000" points="675.5491,-996.1112 441,-1013.3073 206.4509,-996.1112 206.7267,-961.0547 675.2733,-961.0547 675.5491,-996.1112"/>
<text text-anchor="middle" x="441" y="-978.84" font-family="Times,serif" font-size="20.00" fill="#000000">ocrmypdf.pipeline.ocr_or_skip</text>
</g>
<!-- t2&#45;&gt;t3 -->
<g id="edge3" class="edge">
<title>t2&#45;&gt;t3</title>
<path fill="none" stroke="#0044a0" d="M441,-1039.6846C441,-1034.6543 441,-1029.2298 441,-1023.8181"/>
<polygon fill="#0044a0" stroke="#0044a0" points="444.5001,-1023.5335 441,-1013.5335 437.5001,-1023.5336 444.5001,-1023.5335"/>
</g>
<!-- t4 -->
<g id="node5" class="node">
<title>t4</title>
<polygon fill="#efa03b" stroke="#000000" points="550.3166,-934.3564 243.6834,-934.3564 239.6834,-930.3564 239.6834,-898.3564 546.3166,-898.3564 550.3166,-902.3564 550.3166,-934.3564"/>
<polyline fill="none" stroke="#000000" points="546.3166,-930.3564 239.6834,-930.3564 "/>
<polyline fill="none" stroke="#000000" points="546.3166,-930.3564 546.3166,-898.3564 "/>
<polyline fill="none" stroke="#000000" points="546.3166,-930.3564 550.3166,-934.3564 "/>
<text text-anchor="middle" x="395" y="-910.3564" font-family="Times,serif" font-size="20.00" fill="#000000">ocrmypdf.pipeline.rasterize_preview</text>
</g>
<!-- t3&#45;&gt;t4 -->
<g id="edge4" class="edge">
<title>t3&#45;&gt;t4</title>
<path fill="none" stroke="#0044a0" d="M424.9114,-960.8877C421.0122,-955.0827 416.8209,-948.8427 412.846,-942.925"/>
<polygon fill="#0044a0" stroke="#0044a0" points="415.7179,-940.9235 407.2365,-934.5738 409.907,-944.8266 415.7179,-940.9235"/>
</g>
<!-- t5 -->
<g id="node6" class="node">
<title>t5</title>
<polygon fill="#efa03b" stroke="#000000" points="697.0824,-876.3564 438.9176,-876.3564 434.9176,-872.3564 434.9176,-840.3564 693.0824,-840.3564 697.0824,-844.3564 697.0824,-876.3564"/>
<polyline fill="none" stroke="#000000" points="693.0824,-872.3564 434.9176,-872.3564 "/>
<polyline fill="none" stroke="#000000" points="693.0824,-872.3564 693.0824,-840.3564 "/>
<polyline fill="none" stroke="#000000" points="693.0824,-872.3564 697.0824,-876.3564 "/>
<text text-anchor="middle" x="566" y="-852.3564" font-family="Times,serif" font-size="20.00" fill="#000000">ocrmypdf.pipeline.orient_page</text>
</g>
<!-- t3&#45;&gt;t5 -->
<g id="edge6" class="edge">
<title>t3&#45;&gt;t5</title>
<path fill="none" stroke="#0044a0" d="M527.5821,-961.0486C539.7567,-954.2462 550.87,-945.5258 559,-934.3564 568.8835,-920.7777 570.696,-902.0144 570.0069,-886.5291"/>
<polygon fill="#0044a0" stroke="#0044a0" points="573.4858,-886.1249 569.1985,-876.4363 566.5081,-886.6838 573.4858,-886.1249"/>
</g>
<!-- t4&#45;&gt;t5 -->
<g id="edge5" class="edge">
<title>t4&#45;&gt;t5</title>
<path fill="none" stroke="#0044a0" d="M448.1681,-898.3227C465.5399,-892.4305 485,-885.83 503.0225,-879.7171"/>
<polygon fill="#0044a0" stroke="#0044a0" points="504.5189,-882.9055 512.8648,-876.3788 502.2704,-876.2764 504.5189,-882.9055"/>
</g>
<!-- t6 -->
<g id="node7" class="node">
<title>t6</title>
<polygon fill="#efa03b" stroke="#000000" points="800.7325,-818.3564 425.2675,-818.3564 421.2675,-814.3564 421.2675,-782.3564 796.7325,-782.3564 800.7325,-786.3564 800.7325,-818.3564"/>
<polyline fill="none" stroke="#000000" points="796.7325,-814.3564 421.2675,-814.3564 "/>
<polyline fill="none" stroke="#000000" points="796.7325,-814.3564 796.7325,-782.3564 "/>
<polyline fill="none" stroke="#000000" points="796.7325,-814.3564 800.7325,-818.3564 "/>
<text text-anchor="middle" x="611" y="-794.3564" font-family="Times,serif" font-size="20.00" fill="#000000">ocrmypdf.pipeline.rasterize_with_ghostscript</text>
</g>
<!-- t5&#45;&gt;t6 -->
<g id="edge7" class="edge">
<title>t5&#45;&gt;t6</title>
<path fill="none" stroke="#0044a0" d="M579.9916,-840.3227C583.3457,-835.9997 586.9956,-831.2954 590.5748,-826.6821"/>
<polygon fill="#0044a0" stroke="#0044a0" points="593.4974,-828.625 596.8621,-818.5786 587.9667,-824.334 593.4974,-828.625"/>
</g>
<!-- t16 -->
<g id="node14" class="node">
<title>t16</title>
<polygon fill="#ff69b4" stroke="#000000" points="596.2696,-498.3564 215.7304,-498.3564 211.7304,-494.3564 211.7304,-462.3564 592.2696,-462.3564 596.2696,-466.3564 596.2696,-498.3564"/>
<polyline fill="none" stroke="#000000" points="592.2696,-494.3564 211.7304,-494.3564 "/>
<polyline fill="none" stroke="#000000" points="592.2696,-494.3564 592.2696,-462.3564 "/>
<polyline fill="none" stroke="#000000" points="592.2696,-494.3564 596.2696,-498.3564 "/>
<text text-anchor="middle" x="404" y="-474.3564" font-family="Times,serif" font-size="20.00" fill="#000000">ocrmypdf.pipeline.ocr_tesseract_textonly_pdf</text>
</g>
<!-- t5&#45;&gt;t16 -->
<g id="edge15" class="edge">
<title>t5&#45;&gt;t16</title>
<path fill="none" stroke="#0044a0" d="M436.0597,-840.313C335.4079,-822.5625 213,-790.9799 213,-742.3564 213,-742.3564 213,-742.3564 213,-626.3564 213,-582.8621 202.6196,-562.4273 232,-530.3564 242.3778,-519.0283 270.3671,-508.9962 300.8272,-500.9473"/>
<polygon fill="#0044a0" stroke="#0044a0" points="301.9614,-504.2701 310.7845,-498.4046 300.2294,-497.4877 301.9614,-504.2701"/>
</g>
<!-- t13 -->
<g id="node16" class="node">
<title>t13</title>
<polygon fill="#00cc66" stroke="#000000" points="1293,-508.3564 970.4141,-480.3564 1293,-452.3564 1615.5859,-480.3564 1293,-508.3564"/>
<text text-anchor="middle" x="1293" y="-474.3564" font-family="Times,serif" font-size="20.00" fill="#000000">ocrmypdf.pipeline.select_image_layer</text>
</g>
<!-- t5&#45;&gt;t13 -->
<g id="edge21" class="edge">
<title>t5&#45;&gt;t13</title>
<path fill="none" stroke="#0044a0" d="M697.4498,-852.2263C921.648,-839.9951 1354,-807.9097 1354,-742.3564 1354,-742.3564 1354,-742.3564 1354,-626.3564 1354,-583.4588 1362.6414,-568.9918 1344,-530.3564 1341.0314,-524.2037 1336.9784,-518.3835 1332.4454,-513.0377"/>
<polygon fill="#0044a0" stroke="#0044a0" points="1334.8902,-510.5263 1325.5307,-505.5613 1329.7511,-515.2793 1334.8902,-510.5263"/>
</g>
<!-- t19 -->
<g id="node21" class="node">
<title>t19</title>
<polygon fill="#efa03b" stroke="#000000" points="502.7716,-760.3564 257.2284,-760.3564 253.2284,-756.3564 253.2284,-724.3564 498.7716,-724.3564 502.7716,-728.3564 502.7716,-760.3564"/>
<polyline fill="none" stroke="#000000" points="498.7716,-756.3564 253.2284,-756.3564 "/>
<polyline fill="none" stroke="#000000" points="498.7716,-756.3564 498.7716,-724.3564 "/>
<polyline fill="none" stroke="#000000" points="498.7716,-756.3564 502.7716,-760.3564 "/>
<text text-anchor="middle" x="378" y="-736.3564" font-family="Times,serif" font-size="20.00" fill="#000000">ocrmypdf.pipeline.skip_page</text>
</g>
<!-- t5&#45;&gt;t19 -->
<g id="edge32" class="edge">
<title>t5&#45;&gt;t19</title>
<path fill="none" stroke="#0044a0" d="M469.724,-840.3464C444.565,-834.1182 421.7539,-826.6075 412,-818.3564 397.6062,-806.1802 389.0537,-786.6831 384.1266,-770.4858"/>
<polygon fill="#0044a0" stroke="#0044a0" points="387.3923,-769.1572 381.3874,-760.4284 380.6384,-770.9967 387.3923,-769.1572"/>
</g>
<!-- t7 -->
<g id="node8" class="node">
<title>t7</title>
<polygon fill="#efa03b" stroke="#000000" points="1058.0801,-760.3564 633.9199,-760.3564 629.9199,-756.3564 629.9199,-724.3564 1054.0801,-724.3564 1058.0801,-728.3564 1058.0801,-760.3564"/>
<polyline fill="none" stroke="#000000" points="1054.0801,-756.3564 629.9199,-756.3564 "/>
<polyline fill="none" stroke="#000000" points="1054.0801,-756.3564 1054.0801,-724.3564 "/>
<polyline fill="none" stroke="#000000" points="1054.0801,-756.3564 1058.0801,-760.3564 "/>
<text text-anchor="middle" x="844" y="-736.3564" font-family="Times,serif" font-size="20.00" fill="#000000">ocrmypdf.pipeline.preprocess_remove_background</text>
</g>
<!-- t6&#45;&gt;t7 -->
<g id="edge8" class="edge">
<title>t6&#45;&gt;t7</title>
<path fill="none" stroke="#0044a0" d="M683.4454,-782.3227C708.2116,-776.1578 736.0929,-769.2174 761.5862,-762.8714"/>
<polygon fill="#0044a0" stroke="#0044a0" points="762.741,-766.1908 771.5994,-760.3788 761.05,-759.3981 762.741,-766.1908"/>
</g>
<!-- t12 -->
<g id="node15" class="node">
<title>t12</title>
<polygon fill="#efa03b" stroke="#000000" points="951,-586.3564 567.1874,-558.3564 951,-530.3564 1334.8126,-558.3564 951,-586.3564"/>
<text text-anchor="middle" x="951" y="-552.3564" font-family="Times,serif" font-size="20.00" fill="#000000">ocrmypdf.pipeline.select_visible_page_image</text>
</g>
<!-- t6&#45;&gt;t12 -->
<g id="edge19" class="edge">
<title>t6&#45;&gt;t12</title>
<path fill="none" stroke="#0044a0" d="M606.5536,-782.0806C600.8758,-753.9975 594.6738,-699.964 621,-666.3564 648.4442,-631.3215 754.0103,-600.7729 838.4514,-581.1905"/>
<polygon fill="#0044a0" stroke="#0044a0" points="839.4102,-584.5615 848.3759,-578.9164 837.8468,-577.7384 839.4102,-584.5615"/>
</g>
<!-- t8 -->
<g id="node9" class="node">
<title>t8</title>
<polygon fill="#efa03b" stroke="#000000" points="953.6759,-702.3564 634.3241,-702.3564 630.3241,-698.3564 630.3241,-666.3564 949.6759,-666.3564 953.6759,-670.3564 953.6759,-702.3564"/>
<polyline fill="none" stroke="#000000" points="949.6759,-698.3564 630.3241,-698.3564 "/>
<polyline fill="none" stroke="#000000" points="949.6759,-698.3564 949.6759,-666.3564 "/>
<polyline fill="none" stroke="#000000" points="949.6759,-698.3564 953.6759,-702.3564 "/>
<text text-anchor="middle" x="792" y="-678.3564" font-family="Times,serif" font-size="20.00" fill="#000000">ocrmypdf.pipeline.preprocess_deskew</text>
</g>
<!-- t7&#45;&gt;t8 -->
<g id="edge9" class="edge">
<title>t7&#45;&gt;t8</title>
<path fill="none" stroke="#0044a0" d="M827.8319,-724.3227C823.8592,-719.8916 819.5274,-715.06 815.2924,-710.3363"/>
<polygon fill="#0044a0" stroke="#0044a0" points="817.6187,-707.6879 808.3372,-702.5786 812.4067,-712.3607 817.6187,-707.6879"/>
</g>
<!-- t7&#45;&gt;t12 -->
<g id="edge18" class="edge">
<title>t7&#45;&gt;t12</title>
<path fill="none" stroke="#0044a0" d="M920.4182,-724.2656C939.9479,-718.0339 957.1161,-710.5415 963,-702.3564 985.1975,-671.477 976.8981,-626.6742 966.4363,-595.266"/>
<polygon fill="#0044a0" stroke="#0044a0" points="969.6404,-593.8291 962.9995,-585.5738 963.0428,-596.1686 969.6404,-593.8291"/>
</g>
<!-- t9 -->
<g id="node10" class="node">
<title>t9</title>
<polygon fill="#efa03b" stroke="#000000" points="591.8828,-644.3564 290.1172,-644.3564 286.1172,-640.3564 286.1172,-608.3564 587.8828,-608.3564 591.8828,-612.3564 591.8828,-644.3564"/>
<polyline fill="none" stroke="#000000" points="587.8828,-640.3564 286.1172,-640.3564 "/>
<polyline fill="none" stroke="#000000" points="587.8828,-640.3564 587.8828,-608.3564 "/>
<polyline fill="none" stroke="#000000" points="587.8828,-640.3564 591.8828,-644.3564 "/>
<text text-anchor="middle" x="439" y="-620.3564" font-family="Times,serif" font-size="20.00" fill="#000000">ocrmypdf.pipeline.preprocess_clean</text>
</g>
<!-- t8&#45;&gt;t9 -->
<g id="edge10" class="edge">
<title>t8&#45;&gt;t9</title>
<path fill="none" stroke="#0044a0" d="M682.2436,-666.3227C643.0621,-659.885 598.7342,-652.6016 558.7536,-646.0326"/>
<polygon fill="#0044a0" stroke="#0044a0" points="559.1237,-642.5465 548.6885,-644.3788 557.9887,-649.4539 559.1237,-642.5465"/>
</g>
<!-- t8&#45;&gt;t12 -->
<g id="edge17" class="edge">
<title>t8&#45;&gt;t12</title>
<path fill="none" stroke="#0044a0" d="M814.7808,-666.3036C839.7684,-646.5022 880.3545,-614.3396 910.7367,-590.2631"/>
<polygon fill="#0044a0" stroke="#0044a0" points="912.9552,-592.9709 918.6188,-584.0169 908.6076,-587.4846 912.9552,-592.9709"/>
</g>
<!-- t10 -->
<g id="node11" class="node">
<title>t10</title>
<polygon fill="#efa03b" stroke="#000000" points="549.1094,-576.3564 244.8906,-576.3564 240.8906,-572.3564 240.8906,-540.3564 545.1094,-540.3564 549.1094,-544.3564 549.1094,-576.3564"/>
<polyline fill="none" stroke="#000000" points="545.1094,-572.3564 240.8906,-572.3564 "/>
<polyline fill="none" stroke="#000000" points="545.1094,-572.3564 545.1094,-540.3564 "/>
<polyline fill="none" stroke="#000000" points="545.1094,-572.3564 549.1094,-576.3564 "/>
<text text-anchor="middle" x="395" y="-552.3564" font-family="Times,serif" font-size="20.00" fill="#000000">ocrmypdf.pipeline.select_ocr_image</text>
</g>
<!-- t9&#45;&gt;t10 -->
<g id="edge11" class="edge">
<title>t9&#45;&gt;t10</title>
<path fill="none" stroke="#0044a0" d="M427.2088,-608.1336C422.6713,-601.1211 417.3894,-592.9581 412.4313,-585.2957"/>
<polygon fill="#0044a0" stroke="#0044a0" points="415.1948,-583.1237 406.8237,-576.6294 409.3178,-586.9265 415.1948,-583.1237"/>
</g>
<!-- t9&#45;&gt;t12 -->
<g id="edge16" class="edge">
<title>t9&#45;&gt;t12</title>
<path fill="none" stroke="#0044a0" d="M574.8624,-608.3121C645.599,-598.9174 732.1622,-587.4207 804.4069,-577.8258"/>
<polygon fill="#0044a0" stroke="#0044a0" points="805.0506,-581.2711 814.5027,-576.4849 804.1289,-574.332 805.0506,-581.2711"/>
</g>
<!-- t11 -->
<g id="node12" class="node">
<title>t11</title>
<polygon fill="#00cc66" stroke="#000000" points="932.0996,-498.3564 617.9004,-498.3564 613.9004,-494.3564 613.9004,-462.3564 928.0996,-462.3564 932.0996,-466.3564 932.0996,-498.3564"/>
<polyline fill="none" stroke="#000000" points="928.0996,-494.3564 613.9004,-494.3564 "/>
<polyline fill="none" stroke="#000000" points="928.0996,-494.3564 928.0996,-462.3564 "/>
<polyline fill="none" stroke="#000000" points="928.0996,-494.3564 932.0996,-498.3564 "/>
<text text-anchor="middle" x="773" y="-474.3564" font-family="Times,serif" font-size="20.00" fill="#000000">ocrmypdf.pipeline.ocr_tesseract_hocr</text>
</g>
<!-- t10&#45;&gt;t11 -->
<g id="edge12" class="edge">
<title>t10&#45;&gt;t11</title>
<path fill="none" stroke="#0044a0" d="M482.6709,-540.2655C540.4141,-528.3503 616.0731,-512.7381 675.6782,-500.4386"/>
<polygon fill="#0044a0" stroke="#0044a0" points="676.3914,-503.8653 685.4778,-498.4165 674.9767,-497.0097 676.3914,-503.8653"/>
</g>
<!-- t10&#45;&gt;t16 -->
<g id="edge14" class="edge">
<title>t10&#45;&gt;t16</title>
<path fill="none" stroke="#0044a0" d="M397.0874,-540.2655C398.1701,-530.8822 399.5173,-519.2062 400.7341,-508.6609"/>
<polygon fill="#0044a0" stroke="#0044a0" points="404.2233,-508.9546 401.8927,-498.6193 397.2695,-508.1521 404.2233,-508.9546"/>
</g>
<!-- t14 -->
<g id="node13" class="node">
<title>t14</title>
<polygon fill="#00cc66" stroke="#000000" points="1596.0433,-404.8166 1287.9567,-404.8166 1283.9567,-400.8166 1283.9567,-368.8166 1592.0433,-368.8166 1596.0433,-372.8166 1596.0433,-404.8166"/>
<polyline fill="none" stroke="#000000" points="1592.0433,-400.8166 1283.9567,-400.8166 "/>
<polyline fill="none" stroke="#000000" points="1592.0433,-400.8166 1592.0433,-368.8166 "/>
<polyline fill="none" stroke="#000000" points="1592.0433,-400.8166 1596.0433,-404.8166 "/>
<text text-anchor="middle" x="1440" y="-380.8166" font-family="Times,serif" font-size="20.00" fill="#000000">ocrmypdf.pipeline.render_hocr_page</text>
</g>
<!-- t11&#45;&gt;t14 -->
<g id="edge13" class="edge">
<title>t11&#45;&gt;t14</title>
<path fill="none" stroke="#0044a0" d="M884.1541,-462.3371C909.372,-458.6572 936.0694,-455.0821 961,-452.3564 1100.069,-437.1517 1136.9788,-453.1931 1275,-430.3564 1307.5629,-424.9685 1343.0324,-416.0244 1372.7118,-407.6396"/>
<polygon fill="#0044a0" stroke="#0044a0" points="1373.8931,-410.9421 1382.5425,-404.8235 1371.9653,-404.2128 1373.8931,-410.9421"/>
</g>
<!-- t15 -->
<g id="node20" class="node">
<title>t15</title>
<polygon fill="#00cc66" stroke="#000000" points="1265.9202,-404.8166 898.0798,-404.8166 894.0798,-400.8166 894.0798,-368.8166 1261.9202,-368.8166 1265.9202,-372.8166 1265.9202,-404.8166"/>
<polyline fill="none" stroke="#000000" points="1261.9202,-400.8166 894.0798,-400.8166 "/>
<polyline fill="none" stroke="#000000" points="1261.9202,-400.8166 1261.9202,-368.8166 "/>
<polyline fill="none" stroke="#000000" points="1261.9202,-400.8166 1265.9202,-404.8166 "/>
<text text-anchor="middle" x="1080" y="-380.8166" font-family="Times,serif" font-size="20.00" fill="#000000">ocrmypdf.pipeline.render_hocr_debug_page</text>
</g>
<!-- t11&#45;&gt;t15 -->
<g id="edge31" class="edge">
<title>t11&#45;&gt;t15</title>
<path fill="none" stroke="#0044a0" d="M832.1927,-462.321C883.2881,-446.7527 957.1451,-424.2492 1010.9288,-407.8619"/>
<polygon fill="#0044a0" stroke="#0044a0" points="1012.1821,-411.139 1020.7277,-404.8763 1010.1418,-404.4429 1012.1821,-411.139"/>
</g>
<!-- t22 -->
<g id="node24" class="node">
<title>t22</title>
<polygon fill="#efa03b" stroke="#000000" points="485.7205,-374.5993 679,-347.2805 872.2795,-374.5993 872.0991,-418.802 485.9009,-418.802 485.7205,-374.5993"/>
<polygon fill="none" stroke="#000000" points="481.7033,-371.1237 679,-343.2371 876.2967,-371.1237 876.0858,-422.8056 481.9142,-422.8056 481.7033,-371.1237"/>
<text text-anchor="middle" x="679" y="-380.8166" font-family="Times,serif" font-size="20.00" fill="#000000">ocrmypdf.pipeline.merge_sidecars</text>
</g>
<!-- t11&#45;&gt;t22 -->
<g id="edge40" class="edge">
<title>t11&#45;&gt;t22</title>
<path fill="none" stroke="#0044a0" d="M754.8759,-462.321C745.6854,-453.1755 734.09,-441.6369 722.7483,-430.3507"/>
<polygon fill="#0044a0" stroke="#0044a0" points="724.9169,-427.571 715.3597,-422.9982 719.9793,-432.5329 724.9169,-427.571"/>
</g>
<!-- t14&#45;&gt;t17 -->
<g id="edge23" class="edge">
<title>t14&#45;&gt;t17</title>
<path fill="none" stroke="#0044a0" d="M1440,-368.8034C1440,-351.6708 1440,-325.6387 1440,-305.7879"/>
<polygon fill="#0044a0" stroke="#0044a0" points="1443.5001,-305.7714 1440,-295.7714 1436.5001,-305.7715 1443.5001,-305.7714"/>
</g>
<!-- t16&#45;&gt;t17 -->
<g id="edge22" class="edge">
<title>t16&#45;&gt;t17</title>
<path fill="none" stroke="#0044a0" d="M423.7551,-461.9454C432.2558,-453.1007 441.6731,-441.9207 448,-430.3564 467.326,-395.032 441.6768,-368.5782 473,-343.2769 488.6951,-330.5991 1023.9298,-300.1127 1291.2068,-285.6289"/>
<polygon fill="#0044a0" stroke="#0044a0" points="1291.5864,-289.1135 1301.3826,-285.0782 1291.2081,-282.1238 1291.5864,-289.1135"/>
</g>
<!-- t16&#45;&gt;t22 -->
<g id="edge39" class="edge">
<title>t16&#45;&gt;t22</title>
<path fill="none" stroke="#0044a0" d="M457.0228,-462.321C487.2537,-452.0381 526.3796,-438.7296 563.3441,-426.1563"/>
<polygon fill="#0044a0" stroke="#0044a0" points="564.8539,-429.3398 573.1941,-422.8059 562.5996,-422.7127 564.8539,-429.3398"/>
</g>
<!-- t12&#45;&gt;t13 -->
<g id="edge20" class="edge">
<title>t12&#45;&gt;t13</title>
<path fill="none" stroke="#0044a0" d="M1044.453,-537.0425C1090.7976,-526.4727 1146.7836,-513.704 1193.8777,-502.9632"/>
<polygon fill="#0044a0" stroke="#0044a0" points="1194.8141,-506.3396 1203.7855,-500.7035 1193.2575,-499.5148 1194.8141,-506.3396"/>
</g>
<!-- t12&#45;&gt;t15 -->
<g id="edge30" class="edge">
<title>t12&#45;&gt;t15</title>
<path fill="none" stroke="#0044a0" d="M946.8614,-530.3506C944.9813,-507.514 945.8899,-475.3833 961,-452.3564 973.5116,-433.2894 993.5483,-419.2759 1013.6406,-409.2185"/>
<polygon fill="#0044a0" stroke="#0044a0" points="1015.3,-412.3056 1022.8493,-404.872 1012.3121,-405.9753 1015.3,-412.3056"/>
</g>
<!-- t13&#45;&gt;t17 -->
<g id="edge24" class="edge">
<title>t13&#45;&gt;t17</title>
<path fill="none" stroke="#0044a0" d="M1441.7799,-465.2142C1516.5232,-456.0688 1593.6782,-443.637 1605,-430.3564 1630.1081,-400.9042 1626.7355,-375.2989 1605,-343.2769 1591.383,-323.2155 1570.5555,-309.2942 1548.2343,-299.6337"/>
<polygon fill="#0044a0" stroke="#0044a0" points="1549.5211,-296.3788 1538.9381,-295.8785 1546.8992,-302.8693 1549.5211,-296.3788"/>
</g>
<!-- t17&#45;&gt;t20 -->
<g id="edge28" class="edge">
<title>t17&#45;&gt;t20</title>
<path fill="none" stroke="#0044a0" d="M1301.2383,-265.3242C1087.4111,-246.205 676.0608,-209.4245 426.976,-187.1527"/>
<polygon fill="#0044a0" stroke="#0044a0" points="426.9845,-183.6396 416.7125,-186.235 426.361,-190.6118 426.9845,-183.6396"/>
</g>
<!-- t18&#45;&gt;t20 -->
<g id="edge27" class="edge">
<title>t18&#45;&gt;t20</title>
<path fill="none" stroke="#0044a0" d="M220,-368.5908C220,-335.1014 220,-262.8295 220,-214.9755"/>
<polygon fill="#0044a0" stroke="#0044a0" points="223.5001,-214.8609 220,-204.861 216.5001,-214.861 223.5001,-214.8609"/>
</g>
<!-- t18&#45;&gt;t21 -->
<g id="edge34" class="edge">
<title>t18&#45;&gt;t21</title>
<path fill="none" stroke="#0044a0" d="M255.668,-368.8034C282.7268,-355.1381 320.9967,-335.8109 355.3245,-318.4745"/>
<polygon fill="#0044a0" stroke="#0044a0" points="357.0735,-321.5123 364.422,-313.8801 353.9179,-315.2639 357.0735,-321.5123"/>
</g>
<!-- t23 -->
<g id="node23" class="node">
<title>t23</title>
<polygon fill="#efa03b" stroke="#000000" points="161.0652,-47.332 328,-20.0049 494.9348,-47.332 494.779,-91.5483 161.221,-91.5483 161.0652,-47.332"/>
<polygon fill="none" stroke="#000000" points="157.0538,-43.9306 328,-15.9468 498.9462,-43.9306 498.7643,-95.5532 157.2357,-95.5532 157.0538,-43.9306"/>
<text text-anchor="middle" x="328" y="-53.5531" font-family="Times,serif" font-size="20.00" fill="#000000">ocrmypdf.pipeline.copy_final</text>
</g>
<!-- t20&#45;&gt;t23 -->
<g id="edge38" class="edge">
<title>t20&#45;&gt;t23</title>
<path fill="none" stroke="#0044a0" d="M258.0768,-130.184C266.7982,-121.3743 276.1282,-111.9499 285.0392,-102.9487"/>
<polygon fill="#0044a0" stroke="#0044a0" points="287.5282,-105.4094 292.0763,-95.8404 282.5535,-100.4846 287.5282,-105.4094"/>
</g>
<!-- t15&#45;&gt;t21 -->
<g id="edge35" class="edge">
<title>t15&#45;&gt;t21</title>
<path fill="none" stroke="#0044a0" d="M1005.2626,-368.7554C969.0731,-360.3621 924.9121,-350.6352 885,-343.2769 802.0689,-327.9873 709.9855,-314.0238 630.9044,-302.9508"/>
<polygon fill="#0044a0" stroke="#0044a0" points="631.2182,-299.4608 620.8306,-301.546 630.2513,-306.3937 631.2182,-299.4608"/>
</g>
<!-- t19&#45;&gt;t21 -->
<g id="edge33" class="edge">
<title>t19&#45;&gt;t21</title>
<path fill="none" stroke="#0044a0" d="M351.7514,-724.1105C285.3188,-675.8338 121.4207,-542.3014 203,-452.3564 236.7512,-415.1441 393.2861,-466.6723 428,-430.3564 442.1375,-415.5664 442.1449,-363.2074 439.9161,-323.9111"/>
<polygon fill="#0044a0" stroke="#0044a0" points="443.3962,-323.4852 439.2735,-313.7255 436.4101,-323.926 443.3962,-323.4852"/>
</g>
<!-- t21&#45;&gt;t23 -->
<g id="edge37" class="edge">
<title>t21&#45;&gt;t23</title>
<path fill="none" stroke="#0044a0" d="M442.8749,-235.0071C445.8908,-202.6847 445.1767,-158.3414 426,-125.1062 421.1919,-116.7732 414.846,-109.2905 407.6891,-102.6266"/>
<polygon fill="#0044a0" stroke="#0044a0" points="409.5064,-99.5739 399.6391,-95.7155 404.9466,-104.8851 409.5064,-99.5739"/>
</g>
</g>
</svg>
