<?xml version="1.0" encoding="UTF-8" standalone="no"?>
<!DOCTYPE svg PUBLIC "-//W3C//DTD SVG 1.1//EN"
 "http://www.w3.org/Graphics/SVG/1.1/DTD/svg11.dtd">
<!-- Generated by graphviz version 2.40.1 (20161225.0304)
 -->
<!-- Title: Pipeline: Pages: 1 -->
<svg width="1484pt" height="1277pt"
 viewBox="0.00 0.00 1484.00 1277.20" xmlns="http://www.w3.org/2000/svg" xmlns:xlink="http://www.w3.org/1999/xlink">
<g id="graph0" class="graph" transform="scale(1 1) rotate(0) translate(4 1273.1977)">
<title>Pipeline:</title>
<polygon fill="#ffffff" stroke="transparent" points="-4,4 -4,-1273.1977 1480,-1273.1977 1480,4 -4,4"/>
<g id="clust1" class="cluster">
<title>clustertasks</title>
<polygon fill="none" stroke="#000000" points="8,-8 8,-1261.1977 1468,-1261.1977 1468,-8 8,-8"/>
<text text-anchor="middle" x="738" y="-1233.1977" font-family="Times,serif" font-size="30.00" fill="#ff3232">Pipeline:</text>
</g>
<!-- t0 -->
<g id="node1" class="node">
<title>t0</title>
<polygon fill="#efa03b" stroke="#000000" points="1215.7053,-1215.1977 1006.2947,-1215.1977 1002.2947,-1211.1977 1002.2947,-1179.1977 1211.7053,-1179.1977 1215.7053,-1183.1977 1215.7053,-1215.1977"/>
<polyline fill="none" stroke="#000000" points="1211.7053,-1211.1977 1002.2947,-1211.1977 "/>
<polyline fill="none" stroke="#000000" points="1211.7053,-1211.1977 1211.7053,-1179.1977 "/>
<polyline fill="none" stroke="#000000" points="1211.7053,-1211.1977 1215.7053,-1215.1977 "/>
<text text-anchor="middle" x="1109" y="-1191.1977" font-family="Times,serif" font-size="20.00" fill="#000000">ocrmypdf.pipeline.triage</text>
</g>
<!-- t1 -->
<g id="node2" class="node">
<title>t1</title>
<polygon fill="#efa03b" stroke="#000000" points="1280.0433,-1157.1977 941.9567,-1157.1977 937.9567,-1153.1977 937.9567,-1121.1977 1276.0433,-1121.1977 1280.0433,-1125.1977 1280.0433,-1157.1977"/>
<polyline fill="none" stroke="#000000" points="1276.0433,-1153.1977 937.9567,-1153.1977 "/>
<polyline fill="none" stroke="#000000" points="1276.0433,-1153.1977 1276.0433,-1121.1977 "/>
<polyline fill="none" stroke="#000000" points="1276.0433,-1153.1977 1280.0433,-1157.1977 "/>
<text text-anchor="middle" x="1109" y="-1133.1977" font-family="Times,serif" font-size="20.00" fill="#000000">ocrmypdf.pipeline.repair_and_parse_pdf</text>
</g>
<!-- t0&#45;&gt;t1 -->
<g id="edge1" class="edge">
<title>t0&#45;&gt;t1</title>
<path fill="none" stroke="#0044a0" d="M1109,-1179.1641C1109,-1175.4895 1109,-1171.5395 1109,-1167.604"/>
<polygon fill="#0044a0" stroke="#0044a0" points="1112.5001,-1167.4199 1109,-1157.4199 1105.5001,-1167.42 1112.5001,-1167.4199"/>
</g>
<!-- t2 -->
<g id="node3" class="node">
<title>t2</title>
<polygon fill="#efa03b" stroke="#000000" points="1030.0926,-1078.2732 785,-1095.1731 539.9074,-1078.2732 540.1362,-1050.9285 1029.8638,-1050.9285 1030.0926,-1078.2732"/>
<polygon fill="none" stroke="#000000" points="1034.1249,-1082.0021 785,-1099.1801 535.8751,-1082.0021 536.1685,-1046.931 1033.8315,-1046.931 1034.1249,-1082.0021"/>
<text text-anchor="middle" x="785" y="-1064.7153" font-family="Times,serif" font-size="20.00" fill="#000000">ocrmypdf.pipeline.marker_pages</text>
</g>
<!-- t1&#45;&gt;t2 -->
<g id="edge2" class="edge">
<title>t1&#45;&gt;t2</title>
<path fill="none" stroke="#0044a0" d="M1023.449,-1121.1152C984.5695,-1112.8974 938.0675,-1103.0685 896.4957,-1094.2816"/>
<polygon fill="#0044a0" stroke="#0044a0" points="897.1066,-1090.8335 886.5989,-1092.1898 895.6589,-1097.6822 897.1066,-1090.8335"/>
</g>
<!-- t16 -->
<g id="node17" class="node">
<title>t16</title>
<polygon fill="#00cc66" stroke="#000000" points="1215.5059,-328.1861 942.4941,-328.1861 938.4941,-324.1861 938.4941,-292.1861 1211.5059,-292.1861 1215.5059,-296.1861 1215.5059,-328.1861"/>
<polyline fill="none" stroke="#000000" points="1211.5059,-324.1861 938.4941,-324.1861 "/>
<polyline fill="none" stroke="#000000" points="1211.5059,-324.1861 1211.5059,-292.1861 "/>
<polyline fill="none" stroke="#000000" points="1211.5059,-324.1861 1215.5059,-328.1861 "/>
<text text-anchor="middle" x="1077" y="-304.1861" font-family="Times,serif" font-size="20.00" fill="#000000">ocrmypdf.pipeline.weave_layers</text>
</g>
<!-- t1&#45;&gt;t16 -->
<g id="edge24" class="edge">
<title>t1&#45;&gt;t16</title>
<path fill="none" stroke="#0044a0" d="M1097.2373,-1120.9576C1077.987,-1088.7184 1043.7317,-1019.7372 1063,-963.2656 1106.87,-834.6914 1482.8098,-573.3183 1409,-459.2656 1362.7595,-387.8137 1273.2613,-350.2799 1198.8305,-330.7528"/>
<polygon fill="#0044a0" stroke="#0044a0" points="1199.4555,-327.3005 1188.9015,-328.2301 1197.7316,-334.0849 1199.4555,-327.3005"/>
</g>
<!-- t17 -->
<g id="node18" class="node">
<title>t17</title>
<polygon fill="#efa03b" stroke="#000000" points="1439.5156,-1009.7492 1076.4844,-1009.7492 1072.4844,-1005.7492 1072.4844,-973.7492 1435.5156,-973.7492 1439.5156,-977.7492 1439.5156,-1009.7492"/>
<polyline fill="none" stroke="#000000" points="1435.5156,-1005.7492 1072.4844,-1005.7492 "/>
<polyline fill="none" stroke="#000000" points="1435.5156,-1005.7492 1435.5156,-973.7492 "/>
<polyline fill="none" stroke="#000000" points="1435.5156,-1005.7492 1439.5156,-1009.7492 "/>
<text text-anchor="middle" x="1256" y="-985.7492" font-family="Times,serif" font-size="20.00" fill="#000000">ocrmypdf.pipeline.generate_postscript_stub</text>
</g>
<!-- t1&#45;&gt;t17 -->
<g id="edge25" class="edge">
<title>t1&#45;&gt;t17</title>
<path fill="none" stroke="#0044a0" d="M1127.0251,-1121.1176C1153.0342,-1095.0292 1201.2007,-1046.7157 1230.7429,-1017.0834"/>
<polygon fill="#0044a0" stroke="#0044a0" points="1233.2458,-1019.5302 1237.8275,-1009.9772 1228.2885,-1014.5879 1233.2458,-1019.5302"/>
</g>
<!-- t18 -->
<g id="node19" class="node">
<title>t18</title>
<polygon fill="#efa03b" stroke="#000000" points="1070.189,-214.4288 1263,-187.1099 1455.811,-214.4288 1455.631,-258.6317 1070.369,-258.6317 1070.189,-214.4288"/>
<polygon fill="none" stroke="#000000" points="1066.1715,-210.9543 1263,-183.0662 1459.8285,-210.9543 1459.6181,-262.6353 1066.3819,-262.6353 1066.1715,-210.9543"/>
<text text-anchor="middle" x="1263" y="-220.6461" font-family="Times,serif" font-size="20.00" fill="#000000">ocrmypdf.pipeline.metadata_fixup</text>
</g>
<!-- t1&#45;&gt;t18 -->
<g id="edge28" class="edge">
<title>t1&#45;&gt;t18</title>
<path fill="none" stroke="#0044a0" d="M1241.1115,-1121.1192C1311.0076,-1105.2558 1393.5851,-1075.5895 1449,-1020.2329 1458.4922,-1010.7507 1459,-1005.1661 1459,-991.7492 1459,-991.7492 1459,-991.7492 1459,-393.7258 1459,-341.9727 1441.8377,-325.2216 1402,-292.1861 1390.9869,-283.0534 1378.4885,-274.871 1365.6104,-267.6415"/>
<polygon fill="#0044a0" stroke="#0044a0" points="1367.1079,-264.4723 1356.6476,-262.7888 1363.775,-270.6279 1367.1079,-264.4723"/>
</g>
<!-- t3 -->
<g id="node4" class="node">
<title>t3</title>
<polygon fill="#efa03b" stroke="#000000" points="1015.5194,-999.3074 785,-1016.2081 554.4806,-999.3074 554.6958,-971.9616 1015.3042,-971.9616 1015.5194,-999.3074"/>
<polygon fill="none" stroke="#000000" points="1019.5491,-1003.0204 785,-1020.2165 550.4509,-1003.0204 550.7267,-967.9639 1019.2733,-967.9639 1019.5491,-1003.0204"/>
<text text-anchor="middle" x="785" y="-985.7492" font-family="Times,serif" font-size="20.00" fill="#000000">ocrmypdf.pipeline.ocr_or_skip</text>
</g>
<!-- t2&#45;&gt;t3 -->
<g id="edge3" class="edge">
<title>t2&#45;&gt;t3</title>
<path fill="none" stroke="#0044a0" d="M785,-1046.5938C785,-1041.5635 785,-1036.139 785,-1030.7273"/>
<polygon fill="#0044a0" stroke="#0044a0" points="788.5001,-1030.4427 785,-1020.4427 781.5001,-1030.4428 788.5001,-1030.4427"/>
</g>
<!-- t4 -->
<g id="node5" class="node">
<title>t4</title>
<polygon fill="#efa03b" stroke="#000000" points="889.3166,-941.2656 582.6834,-941.2656 578.6834,-937.2656 578.6834,-905.2656 885.3166,-905.2656 889.3166,-909.2656 889.3166,-941.2656"/>
<polyline fill="none" stroke="#000000" points="885.3166,-937.2656 578.6834,-937.2656 "/>
<polyline fill="none" stroke="#000000" points="885.3166,-937.2656 885.3166,-905.2656 "/>
<polyline fill="none" stroke="#000000" points="885.3166,-937.2656 889.3166,-941.2656 "/>
<text text-anchor="middle" x="734" y="-917.2656" font-family="Times,serif" font-size="20.00" fill="#000000">ocrmypdf.pipeline.rasterize_preview</text>
</g>
<!-- t3&#45;&gt;t4 -->
<g id="edge4" class="edge">
<title>t3&#45;&gt;t4</title>
<path fill="none" stroke="#0044a0" d="M767.1627,-967.797C762.8396,-961.9919 758.1927,-955.7519 753.7858,-949.8343"/>
<polygon fill="#0044a0" stroke="#0044a0" points="756.3465,-947.4129 747.5666,-941.483 750.7323,-951.5939 756.3465,-947.4129"/>
</g>
<!-- t5 -->
<g id="node6" class="node">
<title>t5</title>
<polygon fill="#efa03b" stroke="#000000" points="1028.0824,-883.2656 769.9176,-883.2656 765.9176,-879.2656 765.9176,-847.2656 1024.0824,-847.2656 1028.0824,-851.2656 1028.0824,-883.2656"/>
<polyline fill="none" stroke="#000000" points="1024.0824,-879.2656 765.9176,-879.2656 "/>
<polyline fill="none" stroke="#000000" points="1024.0824,-879.2656 1024.0824,-847.2656 "/>
<polyline fill="none" stroke="#000000" points="1024.0824,-879.2656 1028.0824,-883.2656 "/>
<text text-anchor="middle" x="897" y="-859.2656" font-family="Times,serif" font-size="20.00" fill="#000000">ocrmypdf.pipeline.orient_page</text>
</g>
<!-- t3&#45;&gt;t5 -->
<g id="edge6" class="edge">
<title>t3&#45;&gt;t5</title>
<path fill="none" stroke="#0044a0" d="M869.1177,-967.8063C880.553,-961.0264 890.81,-952.3527 898,-941.2656 907.042,-927.3226 906.9457,-908.7053 904.5139,-893.387"/>
<polygon fill="#0044a0" stroke="#0044a0" points="907.914,-892.5383 902.5408,-883.4071 901.0469,-893.8961 907.914,-892.5383"/>
</g>
<!-- t4&#45;&gt;t5 -->
<g id="edge5" class="edge">
<title>t4&#45;&gt;t5</title>
<path fill="none" stroke="#0044a0" d="M784.6807,-905.2319C801.0865,-899.3943 819.4462,-892.8614 836.4913,-886.7963"/>
<polygon fill="#0044a0" stroke="#0044a0" points="838.1026,-889.938 846.3506,-883.288 835.7559,-883.343 838.1026,-889.938"/>
</g>
<!-- t6 -->
<g id="node7" class="node">
<title>t6</title>
<polygon fill="#efa03b" stroke="#000000" points="1064.7325,-825.2656 689.2675,-825.2656 685.2675,-821.2656 685.2675,-789.2656 1060.7325,-789.2656 1064.7325,-793.2656 1064.7325,-825.2656"/>
<polyline fill="none" stroke="#000000" points="1060.7325,-821.2656 685.2675,-821.2656 "/>
<polyline fill="none" stroke="#000000" points="1060.7325,-821.2656 1060.7325,-789.2656 "/>
<polyline fill="none" stroke="#000000" points="1060.7325,-821.2656 1064.7325,-825.2656 "/>
<text text-anchor="middle" x="875" y="-801.2656" font-family="Times,serif" font-size="20.00" fill="#000000">ocrmypdf.pipeline.rasterize_with_ghostscript</text>
</g>
<!-- t5&#45;&gt;t6 -->
<g id="edge7" class="edge">
<title>t5&#45;&gt;t6</title>
<path fill="none" stroke="#0044a0" d="M890.1597,-847.2319C888.6839,-843.3412 887.0909,-839.1417 885.5115,-834.9776"/>
<polygon fill="#0044a0" stroke="#0044a0" points="888.731,-833.5965 881.9119,-825.4878 882.186,-836.0791 888.731,-833.5965"/>
</g>
<!-- t13 -->
<g id="node16" class="node">
<title>t13</title>
<polygon fill="#00cc66" stroke="#000000" points="1077,-515.2656 754.4141,-487.2656 1077,-459.2656 1399.5859,-487.2656 1077,-515.2656"/>
<text text-anchor="middle" x="1077" y="-481.2656" font-family="Times,serif" font-size="20.00" fill="#000000">ocrmypdf.pipeline.select_image_layer</text>
</g>
<!-- t5&#45;&gt;t13 -->
<g id="edge20" class="edge">
<title>t5&#45;&gt;t13</title>
<path fill="none" stroke="#0044a0" d="M1000.2704,-847.241C1031.2359,-840.6873 1060.5415,-832.9862 1074,-825.2656 1114.0954,-802.2644 1145,-795.4899 1145,-749.2656 1145,-749.2656 1145,-749.2656 1145,-633.2656 1145,-590.368 1154.8687,-575.2844 1135,-537.2656 1131.571,-530.7041 1126.8893,-524.6314 1121.6622,-519.1451"/>
<polygon fill="#0044a0" stroke="#0044a0" points="1123.8989,-516.4405 1114.2626,-512.0367 1119.0494,-521.4885 1123.8989,-516.4405"/>
</g>
<!-- t7 -->
<g id="node8" class="node">
<title>t7</title>
<polygon fill="#efa03b" stroke="#000000" points="856.0801,-767.2656 431.9199,-767.2656 427.9199,-763.2656 427.9199,-731.2656 852.0801,-731.2656 856.0801,-735.2656 856.0801,-767.2656"/>
<polyline fill="none" stroke="#000000" points="852.0801,-763.2656 427.9199,-763.2656 "/>
<polyline fill="none" stroke="#000000" points="852.0801,-763.2656 852.0801,-731.2656 "/>
<polyline fill="none" stroke="#000000" points="852.0801,-763.2656 856.0801,-767.2656 "/>
<text text-anchor="middle" x="642" y="-743.2656" font-family="Times,serif" font-size="20.00" fill="#000000">ocrmypdf.pipeline.preprocess_remove_background</text>
</g>
<!-- t6&#45;&gt;t7 -->
<g id="edge8" class="edge">
<title>t6&#45;&gt;t7</title>
<path fill="none" stroke="#0044a0" d="M802.5546,-789.2319C777.7884,-783.067 749.9071,-776.1266 724.4138,-769.7806"/>
<polygon fill="#0044a0" stroke="#0044a0" points="724.95,-766.3073 714.4006,-767.288 723.259,-773.1 724.95,-766.3073"/>
</g>
<!-- t12 -->
<g id="node15" class="node">
<title>t12</title>
<polygon fill="#efa03b" stroke="#000000" points="742,-593.2656 358.1874,-565.2656 742,-537.2656 1125.8126,-565.2656 742,-593.2656"/>
<text text-anchor="middle" x="742" y="-559.2656" font-family="Times,serif" font-size="20.00" fill="#000000">ocrmypdf.pipeline.select_visible_page_image</text>
</g>
<!-- t6&#45;&gt;t12 -->
<g id="edge18" class="edge">
<title>t6&#45;&gt;t12</title>
<path fill="none" stroke="#0044a0" d="M875.1443,-789.1129C874.6867,-773.2956 872.5831,-750.0189 865,-731.2656 844.2991,-680.0716 804.0126,-630.4165 775.1838,-598.9641"/>
<polygon fill="#0044a0" stroke="#0044a0" points="777.4937,-596.3085 768.1202,-591.3701 772.3682,-601.076 777.4937,-596.3085"/>
</g>
<!-- t8 -->
<g id="node9" class="node">
<title>t8</title>
<polygon fill="#efa03b" stroke="#000000" points="732.6759,-709.2656 413.3241,-709.2656 409.3241,-705.2656 409.3241,-673.2656 728.6759,-673.2656 732.6759,-677.2656 732.6759,-709.2656"/>
<polyline fill="none" stroke="#000000" points="728.6759,-705.2656 409.3241,-705.2656 "/>
<polyline fill="none" stroke="#000000" points="728.6759,-705.2656 728.6759,-673.2656 "/>
<polyline fill="none" stroke="#000000" points="728.6759,-705.2656 732.6759,-709.2656 "/>
<text text-anchor="middle" x="571" y="-685.2656" font-family="Times,serif" font-size="20.00" fill="#000000">ocrmypdf.pipeline.preprocess_deskew</text>
</g>
<!-- t7&#45;&gt;t8 -->
<g id="edge9" class="edge">
<title>t7&#45;&gt;t8</title>
<path fill="none" stroke="#0044a0" d="M619.9243,-731.2319C613.9709,-726.3685 607.4267,-721.0226 601.115,-715.8666"/>
<polygon fill="#0044a0" stroke="#0044a0" points="603.2653,-713.1037 593.3065,-709.4878 598.8367,-718.5248 603.2653,-713.1037"/>
</g>
<!-- t7&#45;&gt;t12 -->
<g id="edge17" class="edge">
<title>t7&#45;&gt;t12</title>
<path fill="none" stroke="#0044a0" d="M717.0346,-731.1646C726.8757,-725.6884 735.7103,-718.5557 742,-709.2656 763.0291,-678.205 759.4083,-634.0888 752.8082,-602.8898"/>
<polygon fill="#0044a0" stroke="#0044a0" points="756.1481,-601.7976 750.487,-592.842 749.3278,-603.3733 756.1481,-601.7976"/>
</g>
<!-- t9 -->
<g id="node10" class="node">
<title>t9</title>
<polygon fill="#efa03b" stroke="#000000" points="712.8828,-651.2656 411.1172,-651.2656 407.1172,-647.2656 407.1172,-615.2656 708.8828,-615.2656 712.8828,-619.2656 712.8828,-651.2656"/>
<polyline fill="none" stroke="#000000" points="708.8828,-647.2656 407.1172,-647.2656 "/>
<polyline fill="none" stroke="#000000" points="708.8828,-647.2656 708.8828,-615.2656 "/>
<polyline fill="none" stroke="#000000" points="708.8828,-647.2656 712.8828,-651.2656 "/>
<text text-anchor="middle" x="560" y="-627.2656" font-family="Times,serif" font-size="20.00" fill="#000000">ocrmypdf.pipeline.preprocess_clean</text>
</g>
<!-- t8&#45;&gt;t9 -->
<g id="edge10" class="edge">
<title>t8&#45;&gt;t9</title>
<path fill="none" stroke="#0044a0" d="M567.5798,-673.2319C566.8624,-669.4493 566.0897,-665.3747 565.3216,-661.3247"/>
<polygon fill="#0044a0" stroke="#0044a0" points="568.7581,-660.6605 563.4559,-651.4878 561.8807,-661.9649 568.7581,-660.6605"/>
</g>
<!-- t8&#45;&gt;t12 -->
<g id="edge16" class="edge">
<title>t8&#45;&gt;t12</title>
<path fill="none" stroke="#0044a0" d="M670.0045,-673.2618C693.2528,-667.2338 713.6919,-659.8307 722,-651.2656 734.1971,-638.6912 739.4901,-620.2051 741.6123,-603.5914"/>
<polygon fill="#0044a0" stroke="#0044a0" points="745.1041,-603.8427 742.5574,-593.5585 738.1349,-603.1862 745.1041,-603.8427"/>
</g>
<!-- t10 -->
<g id="node11" class="node">
<title>t10</title>
<polygon fill="#efa03b" stroke="#000000" points="340.1094,-583.2656 35.8906,-583.2656 31.8906,-579.2656 31.8906,-547.2656 336.1094,-547.2656 340.1094,-551.2656 340.1094,-583.2656"/>
<polyline fill="none" stroke="#000000" points="336.1094,-579.2656 31.8906,-579.2656 "/>
<polyline fill="none" stroke="#000000" points="336.1094,-579.2656 336.1094,-547.2656 "/>
<polyline fill="none" stroke="#000000" points="336.1094,-579.2656 340.1094,-583.2656 "/>
<text text-anchor="middle" x="186" y="-559.2656" font-family="Times,serif" font-size="20.00" fill="#000000">ocrmypdf.pipeline.select_ocr_image</text>
</g>
<!-- t9&#45;&gt;t10 -->
<g id="edge11" class="edge">
<title>t9&#45;&gt;t10</title>
<path fill="none" stroke="#0044a0" d="M460.7568,-615.2213C409.7279,-605.9434 347.4237,-594.6153 295.0537,-585.0935"/>
<polygon fill="#0044a0" stroke="#0044a0" points="295.5223,-581.6214 285.0575,-583.276 294.2701,-588.5085 295.5223,-581.6214"/>
</g>
<!-- t9&#45;&gt;t12 -->
<g id="edge15" class="edge">
<title>t9&#45;&gt;t12</title>
<path fill="none" stroke="#0044a0" d="M608.2948,-615.2213C627.0226,-608.2242 648.8712,-600.0609 669.4134,-592.3859"/>
<polygon fill="#0044a0" stroke="#0044a0" points="670.9148,-595.5613 679.0573,-588.7826 668.4648,-589.004 670.9148,-595.5613"/>
</g>
<!-- t11 -->
<g id="node12" class="node">
<title>t11</title>
<polygon fill="#00cc66" stroke="#000000" points="334.0996,-505.2656 19.9004,-505.2656 15.9004,-501.2656 15.9004,-469.2656 330.0996,-469.2656 334.0996,-473.2656 334.0996,-505.2656"/>
<polyline fill="none" stroke="#000000" points="330.0996,-501.2656 15.9004,-501.2656 "/>
<polyline fill="none" stroke="#000000" points="330.0996,-501.2656 330.0996,-469.2656 "/>
<polyline fill="none" stroke="#000000" points="330.0996,-501.2656 334.0996,-505.2656 "/>
<text text-anchor="middle" x="175" y="-481.2656" font-family="Times,serif" font-size="20.00" fill="#000000">ocrmypdf.pipeline.ocr_tesseract_hocr</text>
</g>
<!-- t10&#45;&gt;t11 -->
<g id="edge12" class="edge">
<title>t10&#45;&gt;t11</title>
<path fill="none" stroke="#0044a0" d="M183.4487,-547.1748C182.1254,-537.7914 180.4788,-526.1154 178.9917,-515.5701"/>
<polygon fill="#0044a0" stroke="#0044a0" points="182.4378,-514.9417 177.5755,-505.5285 175.5064,-515.9193 182.4378,-514.9417"/>
</g>
<!-- t15 -->
<g id="node14" class="node">
<title>t15</title>
<polygon fill="#ff69b4" stroke="#000000" points="736.2696,-505.2656 355.7304,-505.2656 351.7304,-501.2656 351.7304,-469.2656 732.2696,-469.2656 736.2696,-473.2656 736.2696,-505.2656"/>
<polyline fill="none" stroke="#000000" points="732.2696,-501.2656 351.7304,-501.2656 "/>
<polyline fill="none" stroke="#000000" points="732.2696,-501.2656 732.2696,-469.2656 "/>
<polyline fill="none" stroke="#000000" points="732.2696,-501.2656 736.2696,-505.2656 "/>
<text text-anchor="middle" x="544" y="-481.2656" font-family="Times,serif" font-size="20.00" fill="#000000">ocrmypdf.pipeline.ocr_tesseract_textonly_pdf</text>
</g>
<!-- t10&#45;&gt;t15 -->
<g id="edge14" class="edge">
<title>t10&#45;&gt;t15</title>
<path fill="none" stroke="#0044a0" d="M269.0322,-547.1748C323.4947,-535.3086 394.7854,-519.776 451.1284,-507.5002"/>
<polygon fill="#0044a0" stroke="#0044a0" points="452.0829,-510.8744 461.1086,-505.3257 450.5927,-504.0348 452.0829,-510.8744"/>
</g>
<!-- t14 -->
<g id="node13" class="node">
<title>t14</title>
<polygon fill="#00cc66" stroke="#000000" points="330.0433,-411.7258 21.9567,-411.7258 17.9567,-407.7258 17.9567,-375.7258 326.0433,-375.7258 330.0433,-379.7258 330.0433,-411.7258"/>
<polyline fill="none" stroke="#000000" points="326.0433,-407.7258 17.9567,-407.7258 "/>
<polyline fill="none" stroke="#000000" points="326.0433,-407.7258 326.0433,-375.7258 "/>
<polyline fill="none" stroke="#000000" points="326.0433,-407.7258 330.0433,-411.7258 "/>
<text text-anchor="middle" x="174" y="-387.7258" font-family="Times,serif" font-size="20.00" fill="#000000">ocrmypdf.pipeline.render_hocr_page</text>
</g>
<!-- t11&#45;&gt;t14 -->
<g id="edge13" class="edge">
<title>t11&#45;&gt;t14</title>
<path fill="none" stroke="#0044a0" d="M174.8072,-469.2302C174.6642,-455.8584 174.4666,-437.3702 174.3027,-422.0357"/>
<polygon fill="#0044a0" stroke="#0044a0" points="177.8024,-421.987 174.1956,-412.025 170.8028,-422.0619 177.8024,-421.987"/>
</g>
<!-- t19 -->
<g id="node22" class="node">
<title>t19</title>
<polygon fill="#efa03b" stroke="#000000" points="351.7205,-381.5085 545,-354.1897 738.2795,-381.5085 738.0991,-425.7112 351.9009,-425.7112 351.7205,-381.5085"/>
<polygon fill="none" stroke="#000000" points="347.7033,-378.0329 545,-350.1463 742.2967,-378.0329 742.0858,-429.7148 347.9142,-429.7148 347.7033,-378.0329"/>
<text text-anchor="middle" x="545" y="-387.7258" font-family="Times,serif" font-size="20.00" fill="#000000">ocrmypdf.pipeline.merge_sidecars</text>
</g>
<!-- t11&#45;&gt;t19 -->
<g id="edge32" class="edge">
<title>t11&#45;&gt;t19</title>
<path fill="none" stroke="#0044a0" d="M246.3397,-469.2302C287.966,-458.7066 342.1269,-445.0142 392.8772,-432.184"/>
<polygon fill="#0044a0" stroke="#0044a0" points="393.8058,-435.5594 402.6429,-429.7151 392.0901,-428.773 393.8058,-435.5594"/>
</g>
<!-- t14&#45;&gt;t16 -->
<g id="edge22" class="edge">
<title>t14&#45;&gt;t16</title>
<path fill="none" stroke="#0044a0" d="M230.6615,-375.7128C262.2207,-366.4581 302.4172,-355.9425 339,-350.1861 448.3957,-332.9725 745.7869,-320.7866 927.9215,-314.6743"/>
<polygon fill="#0044a0" stroke="#0044a0" points="928.248,-318.1655 938.1258,-314.3342 928.0148,-311.1693 928.248,-318.1655"/>
</g>
<!-- t15&#45;&gt;t16 -->
<g id="edge21" class="edge">
<title>t15&#45;&gt;t16</title>
<path fill="none" stroke="#0044a0" d="M630.0636,-469.2083C667.5329,-460.6467 711.76,-449.5912 751,-437.2656 850.4985,-406.0121 963.1653,-359.5222 1026.586,-332.2894"/>
<polygon fill="#0044a0" stroke="#0044a0" points="1028.1566,-335.4238 1035.9553,-328.2523 1025.3866,-328.9951 1028.1566,-335.4238"/>
</g>
<!-- t15&#45;&gt;t19 -->
<g id="edge31" class="edge">
<title>t15&#45;&gt;t19</title>
<path fill="none" stroke="#0044a0" d="M544.1928,-469.2302C544.2822,-460.8687 544.393,-450.5066 544.5035,-440.166"/>
<polygon fill="#0044a0" stroke="#0044a0" points="548.006,-439.9443 544.6132,-429.9075 541.0064,-439.8694 548.006,-439.9443"/>
</g>
<!-- t12&#45;&gt;t13 -->
<g id="edge19" class="edge">
<title>t12&#45;&gt;t13</title>
<path fill="none" stroke="#0044a0" d="M833.9833,-543.8486C879.0975,-533.3444 933.4556,-520.6879 979.3116,-510.0109"/>
<polygon fill="#0044a0" stroke="#0044a0" points="980.3156,-513.3709 989.2614,-507.6943 978.7282,-506.5532 980.3156,-513.3709"/>
</g>
<!-- t13&#45;&gt;t16 -->
<g id="edge23" class="edge">
<title>t13&#45;&gt;t16</title>
<path fill="none" stroke="#0044a0" d="M1077,-459.2068C1077,-426.2624 1077,-371.9187 1077,-338.7552"/>
<polygon fill="#0044a0" stroke="#0044a0" points="1080.5001,-338.3818 1077,-328.3819 1073.5001,-338.3819 1080.5001,-338.3818"/>
</g>
<!-- t16&#45;&gt;t18 -->
<g id="edge27" class="edge">
<title>t16&#45;&gt;t18</title>
<path fill="none" stroke="#0044a0" d="M1117.3592,-292.0592C1133.8695,-284.6437 1153.6803,-275.7459 1173.2953,-266.9361"/>
<polygon fill="#0044a0" stroke="#0044a0" points="1174.8979,-270.0531 1182.586,-262.7632 1172.0299,-263.6676 1174.8979,-270.0531"/>
</g>
<!-- t17&#45;&gt;t18 -->
<g id="edge26" class="edge">
<title>t17&#45;&gt;t18</title>
<path fill="none" stroke="#0044a0" d="M1326.2292,-973.7283C1377.8362,-955.768 1439,-922.4247 1439,-865.2656 1439,-865.2656 1439,-865.2656 1439,-393.7258 1439,-338.7092 1393.2056,-296.3464 1348.3356,-268.0433"/>
<polygon fill="#0044a0" stroke="#0044a0" points="1350.0403,-264.9831 1339.6842,-262.7465 1346.3852,-270.9531 1350.0403,-264.9831"/>
</g>
<!-- t20 -->
<g id="node20" class="node">
<title>t20</title>
<polygon fill="#efa03b" stroke="#000000" points="1400.3184,-161.1062 1129.6816,-161.1062 1125.6816,-157.1062 1125.6816,-125.1062 1396.3184,-125.1062 1400.3184,-129.1062 1400.3184,-161.1062"/>
<polyline fill="none" stroke="#000000" points="1396.3184,-157.1062 1125.6816,-157.1062 "/>
<polyline fill="none" stroke="#000000" points="1396.3184,-157.1062 1396.3184,-125.1062 "/>
<polyline fill="none" stroke="#000000" points="1396.3184,-157.1062 1400.3184,-161.1062 "/>
<text text-anchor="middle" x="1263" y="-137.1062" font-family="Times,serif" font-size="20.00" fill="#000000">ocrmypdf.pipeline.optimize_pdf</text>
</g>
<!-- t18&#45;&gt;t20 -->
<g id="edge29" class="edge">
<title>t18&#45;&gt;t20</title>
<path fill="none" stroke="#0044a0" d="M1263,-182.9188C1263,-179.129 1263,-175.3607 1263,-171.739"/>
<polygon fill="#0044a0" stroke="#0044a0" points="1266.5001,-171.4394 1263,-161.4394 1259.5001,-171.4394 1266.5001,-171.4394"/>
</g>
<!-- t21 -->
<g id="node21" class="node">
<title>t21</title>
<polygon fill="#efa03b" stroke="#000000" points="1096.0652,-47.332 1263,-20.0049 1429.9348,-47.332 1429.779,-91.5483 1096.221,-91.5483 1096.0652,-47.332"/>
<polygon fill="none" stroke="#000000" points="1092.0538,-43.9306 1263,-15.9468 1433.9462,-43.9306 1433.7643,-95.5532 1092.2357,-95.5532 1092.0538,-43.9306"/>
<text text-anchor="middle" x="1263" y="-53.5531" font-family="Times,serif" font-size="20.00" fill="#000000">ocrmypdf.pipeline.copy_final</text>
</g>
<!-- t20&#45;&gt;t21 -->
<g id="edge30" class="edge">
<title>t20&#45;&gt;t21</title>
<path fill="none" stroke="#0044a0" d="M1263,-124.9764C1263,-119.37 1263,-112.9163 1263,-106.2938"/>
<polygon fill="#0044a0" stroke="#0044a0" points="1266.5001,-105.8456 1263,-95.8457 1259.5001,-105.8457 1266.5001,-105.8456"/>
</g>
</g>
</svg>
